<?xml version="1.0" encoding="UTF-8"?>
<!-- Generator: visioncortex VTracer 0.6.12 -->
<svg version="1.1" xmlns="http://www.w3.org/2000/svg" width="512" height="512">
<path d="M0 0 C1.08850754 -0.00960754 2.17701508 -0.01921509 3.29850769 -0.02911377 C3.88238503 -0.03123871 3.88238503 -0.03123871 6.8371582 -0.04199219 C8.04934525 -0.04769226 9.26153229 -0.05339233 10.51045227 -0.05926514 C13.07499319 -0.06870439 15.63954617 -0.07524485 18.20410156 -0.07910156 C22.10609401 -0.08878813 26.00755534 -0.11981503 29.90942383 -0.15136719 C32.40616551 -0.15789967 34.90291094 -0.16314918 37.3996582 -0.16699219 C37.97847496 -0.17316559 37.97847496 -0.17316559 40.90763855 -0.20440674 C51.05536322 -0.176828 59.29749766 1.15744686 66.76293945 8.33691406 C74.66962138 16.88418364 74.74316567 25.18317546 74.69094849 36.26524353 C74.69182133 37.60359626 74.69357376 38.94194866 74.69612682 40.28029925 C74.70058887 43.9472362 74.69261243 47.61405583 74.6825707 51.28097785 C74.673922 55.23931023 74.67685736 59.19763617 74.67837524 63.15597534 C74.6794232 70.01050823 74.67315596 76.86500299 74.66189957 83.71952629 C74.64563538 93.6299725 74.64043562 103.54040031 74.63792358 113.45085842 C74.63354792 129.53048181 74.62024232 145.6100849 74.60131836 161.68969727 C74.58295622 177.30818582 74.56880135 192.92666885 74.56030273 208.54516602 C74.55977729 209.50812652 74.55925184 210.47108703 74.55871047 211.46322816 C74.55610037 216.2941887 74.55357296 221.12514928 74.55108666 225.95610988 C74.53035818 266.02446508 74.49513616 306.0927976 74.45043945 346.16113281 C74.83115601 346.14804077 74.83115601 346.14804077 76.7578125 346.08178711 C80.2176438 345.97766266 83.6771453 345.91275552 87.13793945 345.84863281 C88.33612305 345.80673828 89.53430664 345.76484375 90.76879883 345.72167969 C100.68878164 345.58351837 100.68878164 345.58351837 103.7199707 348.46582031 C105.90814782 351.87404201 106.45043945 354.10932645 106.45043945 358.16113281 C104.93527318 362.17632344 104.04491416 363.76481634 100.45043945 366.16113281 C97.82919058 366.35671799 95.3142683 366.4345442 92.69262886 366.42119503 C91.89037618 366.4250007 91.08812351 366.42880637 90.26156014 366.43272737 C87.55045875 366.44310342 84.83956441 366.43912596 82.12844849 366.43528748 C80.17426532 366.43973662 78.22008395 366.44504958 76.26590526 366.4511562 C70.87797659 366.4653854 65.49010547 366.46699856 60.10216069 366.46655929 C54.29837036 366.46820316 48.49460405 366.48126152 42.69082642 366.49275208 C29.99272655 366.51563383 17.29464336 366.52352595 4.59652567 366.52857852 C-3.32690907 366.53183156 -11.25033892 366.53835161 -19.1737709 366.54557991 C-41.09673598 366.56514922 -63.01969645 366.58163303 -84.94267082 366.58445644 C-85.64412244 366.5845505 -86.34557407 366.58464457 -87.0682818 366.58474148 C-89.91106546 366.58511997 -92.75384911 366.58548396 -95.59663277 366.58584446 C-97.73637823 366.58611618 -99.87612369 366.58639286 -102.01586914 366.58666992 C-102.36939563 366.58671393 -102.36939563 366.58671393 -104.15845394 366.58693666 C-126.37984499 366.5898428 -148.60114909 366.61194384 -170.82250977 366.64819336 C-195.77485069 366.68889665 -220.72713238 366.71261484 -245.67950833 366.71291596 C-258.89629863 366.71350156 -272.11297703 366.72206007 -285.32973862 366.75091362 C-296.58156163 366.77536396 -307.83323193 366.78275337 -319.08507429 366.76766609 C-324.82948218 366.76047141 -330.57358815 366.76146453 -336.31796265 366.78407669 C-341.57225284 366.8045622 -346.82600697 366.80216438 -352.08029069 366.78120185 C-353.98539573 366.7776869 -355.89053864 366.78270093 -357.79559396 366.79690628 C-360.37774343 366.81492604 -362.95797835 366.80238163 -365.54006767 366.78195858 C-366.2865348 366.79452195 -367.03300193 366.80708533 -367.80208927 366.82002941 C-371.68911607 366.75383452 -373.40172796 366.27806467 -376.48765385 363.83717495 C-379.08740731 360.46308929 -379.54956055 358.40699846 -379.54956055 354.16113281 C-378.03439427 350.14594218 -377.14403525 348.55744928 -373.54956055 346.16113281 C-370.73046875 345.93408203 -370.73046875 345.93408203 -367.3503418 345.96582031 C-366.1418457 345.97226562 -364.93334961 345.97871094 -363.68823242 345.98535156 C-362.4255957 346.00210937 -361.16295898 346.01886719 -359.86206055 346.03613281 C-358.58782227 346.04515625 -357.31358398 346.05417969 -356.00073242 346.06347656 C-352.85015427 346.0870764 -349.69995072 346.12000087 -346.54956055 346.16113281 C-346.55622238 345.01822784 -346.56288422 343.87532288 -346.56974792 342.69778442 C-346.63070203 331.89927958 -346.67560173 321.10080989 -346.70499706 310.30217171 C-346.72061779 304.75117925 -346.74179032 299.20032627 -346.77587891 293.64941406 C-346.8086006 288.28720615 -346.82644056 282.92513197 -346.83419228 277.56283188 C-346.83971283 275.52241793 -346.85049291 273.48201085 -346.86675072 271.44165421 C-346.88869534 268.57211032 -346.89152039 265.70311109 -346.89013672 262.83349609 C-346.90092255 261.99983017 -346.91170837 261.16616425 -346.92282104 260.30723572 C-346.87315014 250.71674876 -344.38413054 242.1039426 -337.54956055 235.16113281 C-329.06350017 228.125222 -319.2279136 227.85506762 -308.61206055 227.89550781 C-307.4919458 227.89359436 -306.37183105 227.89168091 -305.21777344 227.88970947 C-302.86124444 227.88835496 -300.5047078 227.89199986 -298.14819336 227.90039062 C-294.56045623 227.91110029 -290.97321978 227.90047 -287.38549805 227.88769531 C-285.08601779 227.88901704 -282.78653783 227.8915797 -280.48706055 227.89550781 C-279.42430908 227.89145935 -278.36155762 227.88741089 -277.26660156 227.88323975 C-266.61300882 227.94964966 -257.83575262 229.33004967 -249.82299805 236.76269531 C-243.47208002 243.6141783 -242.09666924 250.83370374 -242.20898438 259.88183594 C-242.2085463 260.81934692 -242.20810822 261.75685791 -242.20765686 262.72277832 C-242.20973316 265.79619777 -242.23300939 268.86905962 -242.2565918 271.94238281 C-242.26219187 274.08328961 -242.26646003 276.22420028 -242.26945496 278.3651123 C-242.28087128 283.98098493 -242.31031083 289.59662224 -242.34356689 295.21240234 C-242.37975369 301.96058286 -242.39344422 308.70884237 -242.41092682 315.45709229 C-242.43995001 325.69193578 -242.49745997 335.92626363 -242.54956055 346.16113281 C-224.39956055 346.16113281 -206.24956055 346.16113281 -187.54956055 346.16113281 C-187.57574463 340.73047363 -187.60192871 335.29981445 -187.62890625 329.70458984 C-187.71174837 311.7633915 -187.7672366 293.82218563 -187.80862141 275.88084602 C-187.83438144 265.00282148 -187.86948999 254.12497838 -187.92675781 243.24707031 C-187.97666003 233.76370649 -188.00886755 224.28047412 -188.02000302 214.79698265 C-188.0265102 209.77745467 -188.04175815 204.75830266 -188.07821083 199.73889542 C-188.11227802 195.00941459 -188.1225919 190.28046277 -188.11509895 185.5508709 C-188.11646872 183.81993035 -188.1263372 182.08897117 -188.14558792 180.35813713 C-188.25519541 169.99028693 -188.02101566 161.03876107 -180.57277393 153.03759956 C-171.71701775 144.57488015 -161.96302416 144.00563864 -150.22924805 143.95800781 C-149.13419952 143.95230774 -148.039151 143.94660767 -146.91091919 143.94073486 C-144.59614013 143.93130687 -142.28134778 143.92475965 -139.96655273 143.92089844 C-136.45751974 143.91122368 -132.94908052 143.88019117 -129.44018555 143.84863281 C-127.18237649 143.84209872 -124.92456329 143.83684985 -122.66674805 143.83300781 C-121.63194305 143.82066101 -120.59713806 143.80831421 -119.53097534 143.79559326 C-110.51997935 143.82261492 -100.35296603 144.70722251 -93.08081055 150.57128906 C-86.55961408 157.34202111 -84.39051211 163.28926127 -84.42930603 172.51361084 C-84.42887882 172.88488118 -84.42887882 172.88488118 -84.42671686 174.7637341 C-84.42506931 177.25267017 -84.43057159 179.74153889 -84.43603516 182.23046875 C-84.43631721 184.0142873 -84.43615894 185.79810596 -84.43559265 187.58192444 C-84.43530539 192.42658453 -84.44119069 197.27121994 -84.44816661 202.11587429 C-84.45441192 207.17809868 -84.45500488 212.24032362 -84.45619202 217.30255127 C-84.45930185 226.88952587 -84.46751057 236.47648909 -84.47754151 246.06345868 C-84.48871342 256.97748977 -84.49421582 267.89152139 -84.49923694 278.80555677 C-84.50969345 301.25742322 -84.52803463 323.70927406 -84.54956055 346.16113281 C-66.39956055 346.16113281 -48.24956055 346.16113281 -29.54956055 346.16113281 C-29.55289146 344.15521561 -29.55289146 344.15521561 -29.56974792 334.00405884 C-29.62945842 297.20574818 -29.6742382 260.40744357 -29.70275654 223.60909507 C-29.70650861 218.7851323 -29.71039158 213.96116964 -29.71435547 209.13720703 C-29.7151424 208.17685218 -29.71592933 207.21649733 -29.71674011 206.22704081 C-29.72979024 190.68178265 -29.75344194 175.1365578 -29.78101894 159.5913194 C-29.80908403 143.63775812 -29.82573915 127.68421428 -29.83182603 111.73062932 C-29.83594018 101.88823367 -29.84892949 92.04593219 -29.87330995 82.20356552 C-29.88918075 75.45219118 -29.89395785 68.70086545 -29.89006468 61.94947381 C-29.88814523 58.05560802 -29.89106573 54.16190669 -29.90717697 50.26807022 C-29.92183778 46.69861087 -29.92247318 43.12942568 -29.91225723 39.55995338 C-29.91040103 37.6665151 -29.92328427 35.77307977 -29.93680447 33.87968886 C-29.88050351 23.11967168 -28.32345232 14.96838969 -20.73706055 7.07519531 C-14.59453357 1.70048421 -8.04982367 0.05764053 0 0 Z M-7.48557794 24.29043573 C-9.95086669 28.62491304 -9.20807773 34.07421008 -9.15083313 38.9108429 C-9.15510525 40.22185178 -9.15937738 41.53286065 -9.16377896 42.88359708 C-9.17496151 46.52108046 -9.15495723 50.15782801 -9.12988865 53.79521763 C-9.1083055 57.71813818 -9.11560255 61.64101689 -9.11940002 65.5639801 C-9.12202238 72.3602463 -9.10632889 79.15627257 -9.07821083 85.95247841 C-9.03758342 95.7786209 -9.0245544 105.60464733 -9.01827087 115.43086471 C-9.00732649 131.37300228 -8.9740484 147.31501196 -8.92675781 163.25708008 C-8.88086594 178.74372721 -8.84547221 194.23033962 -8.82421875 209.71704102 C-8.82290513 210.67156598 -8.82159152 211.62609095 -8.82023809 212.60954092 C-8.81371293 217.39809033 -8.80739438 222.18663998 -8.80117857 226.97518981 C-8.74934106 266.70395106 -8.65716348 306.43247578 -8.54956055 346.16113281 C11.91043945 346.16113281 32.37043945 346.16113281 53.45043945 346.16113281 C53.56060804 305.33570573 53.65295125 264.51041849 53.7057661 223.68488537 C53.71201985 218.86821108 53.71849144 214.0515371 53.72509766 209.23486328 C53.72575343 208.75539423 53.72575343 208.75539423 53.72907206 206.32899025 C53.75084568 190.78934719 53.79027795 175.24979634 53.83620343 159.71020803 C53.88291368 143.77249957 53.91072334 127.8348395 53.92088193 111.8970654 C53.92775238 102.05765072 53.94947413 92.21849665 53.99002179 82.37916216 C54.01639315 75.63762408 54.02445321 68.89622129 54.01794634 62.15463534 C54.01473465 58.2613986 54.01975639 54.36861815 54.04646683 50.47546196 C54.07518148 46.25952408 54.06541681 42.04456513 54.05171204 37.82855225 C54.05899414 37.20988073 54.05899414 37.20988073 54.095846 34.07902789 C54.02288076 25.82522048 54.02288076 25.82522048 51.07171917 22.40158558 C48.21500286 21.04971854 46.34002512 20.64944782 43.1887207 20.62768555 C42.67643921 20.61976738 42.67643921 20.61976738 40.08398438 20.57969666 C38.98803955 20.58465652 37.89209473 20.58961639 36.76293945 20.59472656 C35.62767822 20.58852798 34.49241699 20.58232941 33.32275391 20.57594299 C30.92554583 20.56884768 28.52828844 20.57201371 26.13110352 20.5847168 C22.46318965 20.59858461 18.79782552 20.56450062 15.13012695 20.52636719 C12.79939716 20.52541601 10.46866418 20.52727474 8.13793945 20.53222656 C7.04199463 20.51896835 5.9460498 20.50571014 4.81689453 20.49205017 C3.79233154 20.50458328 2.76776855 20.51711639 1.7121582 20.5300293 C1.26336304 20.53051018 1.26336304 20.53051018 -1.0078125 20.53294373 C-3.79983788 21.22298847 -5.5021145 22.19810851 -7.48557794 24.29043573 Z M-166.54956055 169.16113281 C-166.64665125 171.43937026 -166.67142659 173.72068704 -166.66981506 176.00099182 C-166.67066949 176.72463501 -166.67152391 177.44827821 -166.67240423 178.19384998 C-166.67406117 180.63682628 -166.6685342 183.07973503 -166.66308594 185.52270508 C-166.66280409 187.26667275 -166.66296176 189.01064055 -166.66352844 190.75460815 C-166.6638165 195.50440776 -166.65791852 200.25418234 -166.65095448 205.00397611 C-166.64472224 209.96211703 -166.64411725 214.92025847 -166.64292908 219.87840271 C-166.63981538 229.27423109 -166.63160148 238.6700479 -166.62157959 248.06587118 C-166.61041964 258.75976431 -166.6049083 269.45365797 -166.59988415 280.14755547 C-166.58941889 302.15208915 -166.57107294 324.15660696 -166.54956055 346.16113281 C-146.08956055 346.16113281 -125.62956055 346.16113281 -104.54956055 346.16113281 C-104.50442843 323.56070265 -104.46757994 300.96030893 -104.4459362 278.35984516 C-104.43561991 267.86626384 -104.42155282 257.37271248 -104.39868164 246.87915039 C-104.37875858 237.73386989 -104.36584667 228.58861109 -104.36138356 219.44330949 C-104.35877435 214.60013689 -104.35263419 209.75702639 -104.33810043 204.91387367 C-104.32453368 200.35606676 -104.32033608 195.79834757 -104.32334518 191.24052238 C-104.32279462 189.5671707 -104.31881178 187.89381611 -104.3111496 186.22048187 C-104.30120251 183.93625275 -104.30359074 181.65235505 -104.30905151 179.36811829 C-104.30720793 178.08959142 -104.30536434 176.81106455 -104.30346489 175.49379444 C-104.54381431 172.23894918 -105.0267516 170.03340005 -106.54956055 167.16113281 C-109.87675515 165.29811189 -112.7640417 164.90705789 -116.53588867 164.88647461 C-117.5003894 164.8769426 -118.46489014 164.86741058 -119.45861816 164.85758972 C-119.97377991 164.85804543 -119.97377991 164.85804543 -122.58081055 164.86035156 C-123.64948364 164.85606644 -124.71815674 164.85178131 -125.81921387 164.84736633 C-128.07518811 164.84163189 -130.33118085 164.84111624 -132.5871582 164.84545898 C-136.0371857 164.84862147 -139.48635759 164.8251392 -142.9362793 164.79980469 C-145.13028863 164.79753186 -147.32430027 164.79682812 -149.51831055 164.79785156 C-150.54863403 164.78864182 -151.57895752 164.77943207 -152.64050293 164.76994324 C-158.2761665 164.80633861 -162.35298286 164.96455512 -166.54956055 169.16113281 Z M-324.54956055 252.16113281 C-325.85296201 256.07133721 -325.68052324 259.78053836 -325.66308594 263.85522461 C-325.66323196 264.74323761 -325.66337799 265.63125061 -325.66352844 266.5461731 C-325.66283123 269.48425735 -325.65504772 272.42227837 -325.6472168 275.36035156 C-325.64535194 277.396306 -325.64392836 279.43226089 -325.64292908 281.46821594 C-325.63910924 286.82924639 -325.62928347 292.19024978 -325.6182251 297.55126953 C-325.60620198 303.98232718 -325.6016062 310.41339387 -325.59577179 316.84445953 C-325.58607146 326.61670278 -325.56691115 336.38888666 -325.54956055 346.16113281 C-305.08956055 346.16113281 -284.62956055 346.16113281 -263.54956055 346.16113281 C-263.42923412 323.36150297 -263.42923412 323.36150297 -263.40307617 313.65332031 C-263.38513302 307.02531747 -263.36389147 300.39743879 -263.32324219 293.76953125 C-263.29067951 288.42680245 -263.27271398 283.08420678 -263.26492882 277.74138641 C-263.25937977 275.7015956 -263.24854401 273.66181218 -263.23237038 271.62207794 C-263.21063735 268.76807326 -263.20759191 265.9146208 -263.20898438 263.06054688 C-263.19819855 262.21466003 -263.18741272 261.36877319 -263.17630005 260.49725342 C-263.19398891 257.15334659 -263.28931623 254.64769868 -264.88334656 251.66741943 C-267.7999323 249.03077485 -270.64983385 249.02955618 -274.40063477 249 C-275.38530731 248.99039246 -276.36997986 248.98078491 -277.38449097 248.97088623 C-278.4470108 248.96663635 -279.50953064 248.96238647 -280.60424805 248.95800781 C-281.69794708 248.95230774 -282.79164612 248.94660767 -283.91848755 248.94073486 C-286.23349032 248.93128495 -288.54850654 248.92475092 -290.86352539 248.92089844 C-294.40364039 248.91119018 -297.94317552 248.88016498 -301.4831543 248.84863281 C-303.73184876 248.84210296 -305.98054739 248.83685242 -308.22924805 248.83300781 C-309.28771942 248.82066101 -310.3461908 248.80831421 -311.43673706 248.79559326 C-320.83616145 248.82405871 -320.83616145 248.82405871 -324.54956055 252.16113281 Z " fill="#F97316" transform="translate(392.549560546875,145.8388671875)"/>
<path d="M0 0 C0.68520218 -0.0087616 1.37040436 -0.01752319 2.07637024 -0.02655029 C4.33086345 -0.04847395 6.58337913 -0.03401956 8.83789062 -0.01708984 C10.41060765 -0.02046008 11.98332214 -0.02531442 13.55603027 -0.03158569 C16.84799053 -0.03894738 20.13927125 -0.02827521 23.43115234 -0.00488281 C27.64491616 0.02360575 31.85708772 0.00719783 36.07079315 -0.02274513 C39.31715837 -0.04083786 42.56314783 -0.03505129 45.80952454 -0.02210617 C47.36282033 -0.01877756 48.91615056 -0.02284014 50.46940613 -0.03450394 C52.64327967 -0.04724678 54.81459751 -0.02779463 56.98828125 0 C58.22340454 0.00397797 59.45852783 0.00795593 60.7310791 0.01205444 C64.87768859 0.81889117 66.34992819 2.43035394 68.99414062 5.64697266 C70.36574634 8.39018409 70.13651127 10.59917118 70.15527344 13.66967773 C70.16488098 14.93471634 70.17448853 16.19975494 70.18438721 17.50312805 C70.18923549 18.89091817 70.19351424 20.27871039 70.19726562 21.66650391 C70.20301776 23.08656313 70.20877549 24.50662234 70.21453857 25.92668152 C70.22504988 28.90677248 70.23089139 31.88683646 70.234375 34.86694336 C70.23985397 38.68020189 70.26386823 42.4931023 70.29234695 46.30624866 C70.3110003 49.2411146 70.3161804 52.17589484 70.31771088 55.11081505 C70.32073288 56.51620118 70.32874621 57.92158597 70.34189606 59.32691383 C70.35900764 61.29656502 70.35522411 63.26636393 70.35058594 65.23608398 C70.35423157 66.35590164 70.3578772 67.4757193 70.3616333 68.62947083 C69.94408776 72.05795936 69.05340692 73.89630901 66.99414062 76.64697266 C62.99159446 79.31533676 59.70100763 79.48099646 54.99414062 78.64697266 C52.23844616 76.4653812 50.55825316 74.77519772 48.99414062 71.64697266 C48.83769891 69.09591236 48.73592673 66.56778603 48.67773438 64.01416016 C48.65695328 63.26232452 48.63617218 62.51048889 48.61476135 61.73587036 C48.54931357 59.33133181 48.49040325 56.92668298 48.43164062 54.52197266 C48.38845085 52.89305495 48.34483641 51.26414844 48.30078125 49.63525391 C48.19363711 45.63927351 48.0923563 41.64318207 47.99414062 37.64697266 C47.45484232 38.18719275 46.91554401 38.72741285 46.35990334 39.28400326 C33.25175245 52.41421573 20.14085158 65.54167637 7.02686501 78.66606045 C0.68517097 85.01291598 -5.65558076 91.36070763 -11.99414062 97.71069336 C-17.51730033 103.24380436 -23.04220156 108.77516934 -28.56922209 114.30442387 C-31.49704709 117.23355521 -34.42397831 120.16356751 -37.34882736 123.0956707 C-40.09956411 125.85317467 -42.85261629 128.60834508 -45.60749245 131.36171341 C-46.62021715 132.37471412 -47.63207966 133.3885776 -48.64303017 134.40334892 C-50.01943344 135.78470033 -51.39919491 137.16270318 -52.77914429 138.54051208 C-53.55160681 139.3138964 -54.32406933 140.08728071 -55.1199398 140.88410091 C-58.37064554 143.92271262 -61.13393163 144.18855794 -65.46899414 144.09828186 C-68.48986423 143.56086802 -69.61243154 142.6593911 -71.83789062 140.58227539 C-72.5272168 139.94482391 -73.21654297 139.30737244 -73.92675781 138.65060425 C-74.61286133 137.98940582 -75.29896484 137.3282074 -76.00585938 136.64697266 C-76.63266602 136.04402374 -77.25947266 135.44107483 -77.90527344 134.81985474 C-79.8102836 132.95719695 -81.69203423 131.07366181 -83.56835938 129.18212891 C-84.24511719 128.50395615 -84.921875 127.82578339 -85.61914062 127.12705994 C-87.75043612 124.99022961 -89.87820155 122.84992443 -92.00585938 120.70947266 C-93.46265717 119.24765142 -94.91968639 117.78606078 -96.37695312 116.32470703 C-99.92259911 112.76811865 -103.46508676 109.20841249 -107.00585938 105.64697266 C-109.87745426 106.94907234 -111.93022059 108.32514234 -114.14627457 110.56084538 C-114.74496581 111.15987142 -115.34365706 111.75889746 -115.96049047 112.3760758 C-116.6087343 113.03492016 -117.25697814 113.69376452 -117.92486572 114.37257385 C-118.27289604 114.72221922 -118.27289604 114.72221922 -120.03414035 116.49163669 C-122.37094079 118.84155866 -124.70051209 121.19852064 -127.03027344 123.55541992 C-128.70211022 125.23927747 -130.37443976 126.92264591 -132.04722595 128.6055603 C-135.65165388 132.23327735 -139.25320286 135.86382067 -142.85276031 139.49637032 C-148.54336561 145.2385672 -154.24494318 150.96980046 -159.94842529 156.69920349 C-161.90013134 158.66003521 -163.85177874 160.62092531 -165.80341721 162.5818243 C-166.29114239 163.07185475 -166.77886758 163.5618852 -167.28137232 164.06676506 C-172.83166027 169.64352343 -178.379997 175.22222088 -183.92724609 180.80200195 C-184.18076341 181.05700286 -184.18076341 181.05700286 -185.46371469 182.34746199 C-193.68097934 190.6134483 -201.8887312 198.88882862 -210.09390381 207.16681565 C-218.52016689 215.66721415 -226.95982289 224.15415718 -235.41119742 232.6295895 C-240.15523571 237.38802579 -244.89251534 242.15282527 -249.61377716 246.93387032 C-254.0541598 251.42949601 -258.51044499 255.90871124 -262.97952461 260.3758049 C-264.61748555 262.01889032 -266.24942496 263.66800371 -267.87485313 265.32348824 C-270.09369614 267.58159855 -272.3330844 269.8171346 -274.57891846 272.0483551 C-274.89857893 272.37889264 -274.89857893 272.37889264 -276.51625466 274.05161291 C-280.91187711 278.35555963 -283.80793508 279.62465027 -290.00585938 279.64697266 C-293.67397568 278.09821244 -296.13866159 276.18482109 -298.00585938 272.64697266 C-298.62436973 267.8756071 -298.07667626 265.22870958 -295.32472026 261.31634283 C-292.72073941 258.02031062 -289.73784109 255.10175845 -286.76295471 252.14337158 C-286.03210897 251.40870029 -285.30126323 250.674029 -284.54827064 249.91709495 C-282.10340534 247.46192863 -279.65146958 245.01395057 -277.19946289 242.56591797 C-275.44305325 240.80516037 -273.68706182 239.04398551 -271.93145752 237.28242493 C-267.66034812 232.99931605 -263.38453378 228.72095825 -259.10625095 224.44501862 C-255.62939043 220.96994267 -252.15430396 217.49310218 -248.68046379 214.01500702 C-248.1856597 213.51960774 -247.69085562 213.02420847 -247.18105746 212.51379709 C-246.17582808 211.50735594 -245.17059987 210.5009136 -244.16537284 209.49447009 C-234.74536267 200.06359168 -225.31885119 190.63923248 -215.890356 181.21683809 C-207.26409421 172.59574948 -198.64608286 163.96646684 -190.03191329 155.33329716 C-181.18381634 146.46583398 -172.33018492 137.60393197 -163.47051948 128.74802661 C-158.49770074 123.77712116 -153.5271135 118.80403226 -148.5623188 113.82511139 C-143.89653112 109.14618248 -139.22298471 104.47510688 -134.54408264 99.80928612 C-132.82618187 98.09375869 -131.11084841 96.37565607 -129.39825249 94.65483284 C-127.06427168 92.31044781 -124.72128757 89.97545096 -122.37574768 87.64263916 C-121.69656062 86.95607782 -121.01737356 86.26951647 -120.31760508 85.56215024 C-116.03672259 81.33015772 -112.94630607 78.70245278 -106.69335938 78.58447266 C-98.90261524 80.82926334 -93.05149958 88.45822181 -87.44335938 94.11181641 C-86.76660156 94.78998917 -86.08984375 95.46816193 -85.39257812 96.16688538 C-83.26128263 98.3037157 -81.1335172 100.44402089 -79.00585938 102.58447266 C-77.54906158 104.04629389 -76.09203236 105.50788453 -74.63476562 106.96923828 C-71.08911964 110.52582666 -67.54663199 114.08553282 -64.00585938 117.64697266 C-58.35197571 112.94293533 -53.13693411 107.91441747 -47.94946289 102.70410156 C-47.07061935 101.82540405 -46.19177582 100.94670654 -45.28630066 100.04138184 C-42.89654427 97.65105149 -40.50901657 95.25853657 -38.12248349 92.86499071 C-35.62056592 90.35678741 -33.11578299 87.85144876 -30.61131287 85.34579468 C-25.87796072 80.60934452 -21.1471617 75.87035289 -16.41729254 71.13042486 C-11.02865376 65.73057723 -5.63714764 60.33359638 -0.24540818 54.93684506 C10.8376172 43.84338998 21.91706684 32.74637075 32.99414062 21.64697266 C31.80860596 21.64286377 30.62307129 21.63875488 29.40161133 21.63452148 C24.99361991 21.61271277 20.58651891 21.55840525 16.17895508 21.49438477 C14.27311756 21.47121989 12.3671523 21.45681259 10.46118164 21.45141602 C7.7174534 21.44211524 4.97573 21.40110195 2.23242188 21.35400391 C1.8078495 21.35597023 1.8078495 21.35597023 -0.34074402 21.36592102 C-4.72073389 21.2584361 -6.48739394 21.0547821 -10.04174805 18.2590332 C-12.17543537 15.4214545 -12.6856015 14.15046839 -12.63085938 10.64697266 C-12.64375 9.82197266 -12.65664063 8.99697266 -12.66992188 8.14697266 C-10.92368558 1.57290662 -6.2320574 0.02007161 0 0 Z " fill="#F97316" transform="translate(397.005859375,-0.64697265625)"/>
<path d="M0 0 C2.82275936 1.25455972 4.46288541 2.28384722 6.3125 4.75 C7.32815881 8.0739743 7.41796486 10.53686262 7 14 C4.55228556 18.00535091 3.07397557 19.66804391 -1.4375 21.0625 C-5.59172484 20.98961886 -7.60668767 20.39074278 -11 18 C-13.39074278 14.60668767 -13.98961886 12.59172484 -14.0625 8.4375 C-11.88416738 1.3899533 -7.10260533 -1.03310623 0 0 Z " fill="#F97316" transform="translate(79,293)"/>
</svg>
