<svg width="29" height="29" viewBox="0 0 29 29" fill="none" xmlns="http://www.w3.org/2000/svg">
<path d="M28.12 13.72V14.41L28.07 14.71C27.76 16.72 26.02 18.16 24 18.16H18.16V24C18.16 26.05 16.68 27.78 14.66 28.08L14.33 28.13H13.78L13.4 28.08C11.4 27.75 9.95 26.04 9.95 24.01V18.16H4.1C1.97 18.16 0.2 16.55 0 14.44V13.66C0.2 11.55 1.97 9.95 4.1 9.95H9.94V4.1C9.94 1.97 11.55 0.2 13.66 0H14.44C16.51 0.19 18.15 1.94 18.15 4.05V9.95H24.11C26.1 9.95 27.75 11.46 28.07 13.38C28.07 13.52 28.09 13.62 28.11 13.71L28.12 13.72Z" fill="white"/>
</svg>
