<svg width="34" height="29" viewBox="0 0 34 29" fill="none" xmlns="http://www.w3.org/2000/svg">
<path d="M33.9466 16.6971V17.8587C33.541 22.292 29.1716 25.4092 24.6263 24.4828C21.1905 23.7844 18.6883 20.9024 18.5582 17.5646C18.4281 14.2268 20.7237 11.1169 24.1213 10.1832C28.8196 8.89662 33.5333 12.0727 33.9542 16.6971H33.9466ZM27.0826 22.1964V21.2259C28.2993 20.8069 28.9727 19.6232 28.7431 18.4542C28.5136 17.2852 27.4499 16.4545 26.172 16.4398C25.6517 16.4398 25.315 15.9398 25.3839 15.5061C25.4604 15.0429 25.9272 14.7268 26.4398 14.837C26.6847 14.8958 26.9372 15.0429 27.1132 15.212C27.4576 15.5355 27.955 15.5575 28.307 15.2561C28.6207 14.9914 28.7049 14.4768 28.3988 14.1386C28.0468 13.7489 27.5877 13.5137 27.075 13.3299V12.4035C27.075 11.9036 26.6924 11.5213 26.195 11.536C25.7205 11.5507 25.3609 11.9256 25.3609 12.4035V13.3225C24.1442 13.7342 23.4708 14.9106 23.708 16.0942C23.9453 17.2779 24.9706 18.0793 26.2179 18.094C26.7765 18.094 27.1591 18.5939 27.052 19.0865C26.9449 19.5791 26.4398 19.8511 25.9195 19.682C25.6134 19.5791 25.3379 19.3732 25.1313 19.1379C24.8023 18.7483 24.2284 18.7189 23.8764 19.0424C23.4938 19.3879 23.532 19.9173 23.8917 20.2702C24.3126 20.6892 24.7717 21.0274 25.3609 21.2186L25.3839 22.2993C25.3915 22.7478 25.8812 23.0492 26.2945 23.0124C26.7077 22.9757 27.0597 22.6375 27.0673 22.2037L27.0826 22.1964Z" fill="#D9D9D9"/>
<path d="M21.3435 27.9823H15.1453V6.56598H12.6431C12.2528 6.56598 11.9468 6.38953 11.809 6.06604C11.6866 5.78666 11.7095 5.38966 11.9927 5.16175L18.0378 0.177094C18.3439 -0.0802254 18.8107 -0.0434655 19.1015 0.19915L25.1237 5.16175C25.4068 5.39701 25.4298 5.78666 25.3073 6.07339C25.1849 6.36012 24.8941 6.55862 24.5268 6.57333H21.9634V9.26416C18.8107 10.8154 16.8288 13.9253 16.8441 17.3072C16.8594 20.6892 18.8337 23.7549 21.9634 25.2989V27.0633C21.9634 27.5045 21.7568 27.8353 21.3359 27.9897L21.3435 27.9823Z" fill="#D9D9D9"/>
<path d="M13.4312 28.1536H7.8349V12.2051C7.8349 11.7248 8.46229 11.3646 9.22771 11.3646H13.4312V28.1536Z" fill="#D9D9D9"/>
<path d="M5.58379 28.1535H1.01638C0.602296 28.0112 0 27.794 0 27.4196V18.919C0.0125478 18.4471 0.602296 18.0801 1.39281 18.0801H5.59634V28.1535H5.58379Z" fill="#D9D9D9"/>
</svg>
