<svg width="29" height="23" viewBox="0 0 29 23" fill="none" xmlns="http://www.w3.org/2000/svg">
<path d="M27.0629 3.8323H1.93731C0.84733 3.8323 0.0127156 2.96694 0.000258689 1.94706C-0.0121982 0.92717 0.828645 0 1.93731 0H27.0256C28.1156 0 28.9439 0.859178 28.9626 1.89143C28.9813 2.92368 28.1841 3.8323 27.0567 3.8323H27.0629Z" fill="#D9D9D9"/>
<path d="M27.0628 13.4131H1.93719C0.84098 13.4131 0.0125936 12.5477 0.000136618 11.5278C-0.0123203 10.5079 0.828523 9.58075 1.93719 9.58075H27.0255C28.1154 9.58075 28.9438 10.4399 28.9625 11.4722C28.9812 12.5044 28.1839 13.4131 27.0566 13.4131H27.0628Z" fill="#D9D9D9"/>
<path d="M27.0628 23H1.93719C0.84098 23 0.0125936 22.1347 0.000136618 21.1148C-0.0123203 20.0949 0.828523 19.1677 1.93719 19.1677H27.0255C28.1154 19.1677 28.9438 20.0269 28.9625 21.0592C28.9812 22.0914 28.1839 23 27.0566 23H27.0628Z" fill="#D9D9D9"/>
</svg>
