<svg width="29" height="30" viewBox="0 0 29 30" fill="none" xmlns="http://www.w3.org/2000/svg">
<path d="M16.1198 18.7745C15.1653 18.0559 13.9301 18.0446 12.9756 18.7016C12.139 19.2799 11.6112 20.2175 11.6056 21.2562L11.5944 26.0624C11.5944 27.7188 10.303 29.0158 8.64666 29.0102H5.78877C2.50416 29.0102 0 26.1972 0 23.008V12.6882C0.00561471 10.7399 0.982575 9.09477 2.4424 7.88761L10.0728 1.59913C12.605 -0.489542 16.3051 -0.556919 18.8486 1.54298L26.8439 8.14589C28.1859 9.25199 28.9832 10.9252 28.9888 12.677L29 23.0024C29 26.186 26.5014 29.0045 23.2112 29.0102H20.3533C18.697 29.0158 17.4056 27.7188 17.4056 26.0624L17.3944 21.2562C17.3944 20.2681 16.9227 19.3697 16.1255 18.7689L16.1198 18.7745Z" fill="#F68132"/>
</svg>
