<svg width="27" height="30" viewBox="0 0 27 30" fill="none" xmlns="http://www.w3.org/2000/svg">
<path d="M21.42 29.4403H20.3077C17.0453 29.1279 14.6012 26.3229 14.7351 23.0754C14.8727 19.7757 17.5995 17.1754 20.8918 17.1902C24.1803 17.2051 26.8848 19.8203 26.9964 23.12C27.108 26.4197 24.6639 29.1316 21.42 29.4403ZM24.5486 22.402H21.7846V19.638H19.9432V24.2434H24.5449V22.402H24.5486Z" fill="#D9D9D9"/>
<path d="M12.2799 23.2726V27.0075L2.45895 27C1.10485 27 0 25.8989 0 24.5448V2.44035C0.0372004 1.15321 0.96349 0.163682 2.2469 0H19.8092C21.1447 0.152522 22.1045 1.19413 22.0896 2.54079V14.7314C21.3679 14.7314 20.702 14.7128 20.0101 14.7797C15.6576 15.215 12.2836 18.8718 12.2761 23.2688L12.2799 23.2726ZM15.9552 3.68284H3.67912V6.13806H15.9552V3.68284ZM18.4105 8.59329H3.67912V11.0485H18.4105V8.59329ZM11.0448 13.5037H3.67912V15.959H11.0448V13.5037ZM8.58957 18.4142H3.67912V20.8694H8.58957V18.4142Z" fill="#D9D9D9"/>
</svg>
