<?xml version="1.0" encoding="UTF-8"?>
<!-- Generator: visioncortex VTracer 0.6.12 -->
<svg version="1.1" xmlns="http://www.w3.org/2000/svg" width="512" height="512">
<path d="M0 0 C1.0179061889648438 0.0021551513671875244 2.0358123779296875 0.004310302734374993 3.084564208984375 0.00653076171875 C17.693635229548704 0.05620145963173834 32.02575852916743 0.3070980886269008 46.375 3.3125 C47.349853515625 3.5111767578125 48.32470703125 3.709853515625 49.3291015625 3.91455078125 C88.47564493690726 12.10330593713118 124.6981509097472 27.7945398095082 156.375 52.3125 C157.26187499999997 52.9866796875 158.14875 53.660859375 159.0625 54.35546875 C174.64607274822652 66.46770077386196 189.25647310668865 80.75345100497096 201.375 96.3125 C201.75720703125 96.7804296875 201.75720703125 96.7804296875 203.69140625 99.1484375 C238.32002637322864 142.3925249091041 256.813659967386 197.89189906879716 256.690673828125 253.039794921875 C256.6875221028246 255.9793848655914 256.7110492567148 258.91795580264846 256.736328125 261.857421875 C256.78098736637037 275.23056192328187 255.5755154212572 288.12666711471957 253.375 301.3125 C253.28093872070315 301.88101684570313 253.28093872070315 301.88101684570313 252.804931640625 304.758056640625 C245.7794696706443 343.8695474613034 228.79665905913777 381.05202177598204 204.375 412.3125 C203.61574218750002 413.284453125 202.85648437499998 414.25640625 202.07421875 415.2578125 C189.73986402421014 430.6374164387291 175.93895498824395 445.1901519598607 160.375 457.3125 C159.439140625 458.0769140625 158.50328125 458.841328125 157.5390625 459.62890625 C125.58628299072046 485.2157721038318 86.4198832199985 501.725512762431 46.375 509.3125 C45.565629882812516 509.4762109375 44.756259765624975 509.639921875 43.92236328125 509.80859375 C13.881100128679634 515.6797713659273 -20.761517596690908 514.5851290900239 -50.625 508.3125 C-51.13264892578127 508.20800537109375 -51.13264892578127 508.20800537109375 -53.70166015625 507.67919921875 C-90.84546555185369 499.78695344394004 -125.7094544457149 483.6834557755112 -155.625 460.3125 C-156.596953125 459.5532421875 -157.56890625 458.793984375 -158.5703125 458.01171875 C-173.94991643872908 445.67736402421014 -188.5026519598607 431.87645498824395 -200.625 416.3125 C-201.00720703125 415.84457031249997 -201.00720703125 415.84457031249997 -202.94140625 413.4765625 C-228.5282721038318 381.52378299072046 -245.03801276243098 342.3573832199985 -252.625 302.3125 C-252.7887109375 301.5031298828125 -252.952421875 300.693759765625 -253.12109375 299.85986328125 C-258.5906955774214 271.8733572366031 -258.46977510900365 238.21828160758798 -252.625 210.3125 C-252.4263232421875 209.337646484375 -252.227646484375 208.36279296875 -252.02294921875 207.3583984375 C-243.85281954072698 168.30089461342294 -228.22714582590564 131.86349681020226 -203.625 100.3125 C-202.952109375 99.428203125 -202.27921874999998 98.54390625 -201.5859375 97.6328125 C-189.48489742903845 82.04587611230056 -175.18662021067772 67.42083932122956 -159.625 55.3125 C-159.14546875 54.9244921875 -159.14546875 54.9244921875 -156.71875 52.9609375 C-112.24221147992327 17.581872768120782 -56.46801744518373 -0.2150198894765648 0 0 Z M-155.625 96.3125 C-156.12241699218748 96.782685546875 -156.61983398437502 97.25287109375 -157.13232421875 97.7373046875 C-165.13838762811935 105.33444934258416 -172.03249721093766 113.47194152887894 -178.625 122.3125 C-179.0502294921875 122.871630859375 -179.475458984375 123.43076171875 -179.91357421875 124.0068359375 C-187.16970106740087 133.56450244402743 -193.10360829025853 143.66807575667337 -198.625 154.3125 C-199.0157470703125 155.0612841796875 -199.406494140625 155.810068359375 -199.80908203125 156.58154296875 C-215.67172991407767 187.36825990457797 -223.08020260574747 221.12664341473834 -223 255.625 C-222.99912384033203 256.5483615112305 -222.99824768066406 257.47172302246094 -222.99734497070313 258.4230651855469 C-222.8137845896018 317.25448490703536 -199.15704804599315 371.114751349377 -158.625 413.3125 C-157.76906250000002 414.2096875 -156.91312499999998 415.106875 -156.03125 416.03125 C-150.26417802513438 421.9443237970141 -144.1837581003871 427.2964223763273 -137.625 432.3125 C-136.98030761718752 432.806533203125 -136.33561523437498 433.30056640625 -135.67138671875 433.8095703125 C-124.83901324164151 442.0358654929434 -113.72845012538934 449.1137431307939 -101.625 455.3125 C-100.8820166015625 455.698896484375 -100.139033203125 456.08529296875 -99.37353515625 456.4833984375 C-47.31468465722622 483.3169299325682 13.98450289140942 486.8488882386563 69.494140625 469.26123046875 C102.96928428034806 458.23712807513283 132.08101384158124 439.6080393363759 157.375 415.3125 C157.82359375 414.88453125 157.82359375 414.88453125 160.09375 412.71875 C166.01226517169226 406.94637100538654 171.31283334532299 400.8451457830807 176.375 394.3125 C176.7989404296875 393.7702880859375 177.22288085937498 393.228076171875 177.65966796875 392.66943359375 C208.01011115062687 353.6030794360035 223.8683636356688 305.74996347863345 223.75 256.4375 C223.749123840332 255.5403125 223.74824768066406 254.643125 223.74734497070313 253.71875 C223.5592239350404 195.06143939225072 199.70451387661643 141.3819828699554 159.375 99.3125 C158.48039062499998 98.3650390625 157.58578125000003 97.417578125 156.6640625 96.44140625 C149.75998731380855 89.3044956836291 142.30488392299952 83.2441488461592 134.375 77.3125 C133.81441894531253 76.8858203125 133.253837890625 76.459140625 132.67626953125 76.01953125 C123.12016383964709 68.76526123593646 113.01727006592671 62.832774311847 102.375 57.3125 C101.6262158203125 56.9217529296875 100.87743164062499 56.531005859375 100.10595703125 56.12841796875 C16.706944088328385 13.157640056753849 -86.89826482004446 30.68228687126195 -155.625 96.3125 Z " fill="#3B82F6" transform="translate(255.625,-0.3125)"/>
<path d="M0 0 C10.560000000000002 0 21.120000000000005 0 32 0 C31.553742675781223 4.158273925781245 31.107485351562502 8.316547851562504 30.647705078125 12.600830078125 C28.7013761136198 31.96901784985198 27.537556000337418 51.362095631807364 26.8125 70.8125 C26.77892693996432 71.68310483455656 26.745353879928587 72.55370966911318 26.710763454437256 73.45069646835327 C25.058805016335384 117.67880469756221 26.679620397704696 154.70845416509937 57.844513952732086 188.3992138504982 C64.39679790831588 195.34173198242365 71.39250683272644 201.76759604733525 78.5625 208.0625 C79.10568390369417 208.54120056629182 79.64886780738829 209.01990113258364 80.20851182937622 209.51310777664185 C94.19731411096814 221.81459405643943 108.73801459852461 233.3065733209636 124 244 C123.04751485303501 245.11829227297142 122.0940213285366 246.2357257280416 121.14010620117188 247.35279846191406 C120.87467230796813 247.66398006916046 120.87467230796813 247.66398006916046 119.53141593933105 249.23874759674072 C117.66809707653738 251.3817152522604 115.71083508236069 253.4023251875036 113.6953125 255.40234375 C112.94765625000002 256.14677734375 112.19999999999999 256.8912109375 111.4296875 257.658203125 C110.66914062500001 258.41037109375 109.90859375000002 259.1625390625 109.125 259.9375 C108.34125 260.71673828125 107.5575 261.4959765625 106.75 262.298828125 C104.83561419416304 264.201540846655 102.91891966211125 266.10186170710523 101 268 C100.03936141967773 267.1470333862305 99.07872283935546 266.29406677246095 98.08897399902344 265.4152526855469 C94.59642287680435 262.4223516188652 90.93901629967093 259.7775109140343 87.16360664367676 257.15551948547363 C72.96068331604823 247.27644552644955 59.58409495938349 236.49637777019427 46.5625 225.125 C46.00860690116883 224.64331706047062 45.454713802337665 224.16163412094113 44.88403606414795 223.66535472869873 C15.558993829068413 198.0646149432676 -2.980513760403767 172.73527501275333 -5.771456778049469 133.00764667987823 C-6.865573615519509 114.69641129485453 -6.645992025923306 96.44291782253873 -5.875 78.125 C-5.835409636497502 77.16104718208311 -5.795819272995004 76.19709436416628 -5.755029201507568 75.20393085479736 C-4.701129259544899 50.03823912123511 -2.681705648849345 25.043005059254597 0 0 Z " fill="#3B82F6" transform="translate(240,96)"/>
</svg>
