<svg width="24" height="24" viewBox="0 0 24 24" fill="none" xmlns="http://www.w3.org/2000/svg">
<path fill-rule="evenodd" clip-rule="evenodd" d="M7.57821 2.91194C4.8091 3.55436 2.75 6.03342 2.75 9C2.75 9.41421 2.41421 9.75 2 9.75C1.58579 9.75 1.25 9.41421 1.25 9C1.25 4.71579 4.71579 1.25 9 1.25C9.2702 1.25 9.51952 1.39534 9.65265 1.63047C9.78578 1.8656 9.78214 2.15417 9.64312 2.38587L8.59313 4.13587C8.38002 4.49105 7.91933 4.60623 7.56414 4.39312C7.20896 4.18001 7.09378 3.71932 7.30689 3.36413L7.57821 2.91194ZM22 14.25C22.4142 14.25 22.75 14.5858 22.75 15C22.75 19.2842 19.2842 22.75 15 22.75C14.7298 22.75 14.4805 22.6047 14.3474 22.3695C14.2142 22.1344 14.2179 21.8458 14.3569 21.6141L15.4069 19.8641C15.62 19.5089 16.0807 19.3938 16.4359 19.6069C16.791 19.82 16.9062 20.2807 16.6931 20.6359L16.4218 21.0881C19.1909 20.4456 21.25 17.9666 21.25 15C21.25 14.5858 21.5858 14.25 22 14.25Z" fill="#181D27"/>
<path d="M16.4 8.21001L12.64 6.18001C12.24 5.97001 11.77 5.97001 11.37 6.18001L7.60999 8.21001C7.33999 8.36001 7.17001 8.65001 7.17001 8.98001C7.17001 9.31001 7.33999 9.60001 7.60999 9.75001L11.37 11.78C11.57 11.89 11.79 11.94 12.01 11.94C12.23 11.94 12.45 11.89 12.65 11.78L16.41 9.75001C16.68 9.60001 16.85 9.31001 16.85 8.98001C16.84 8.65001 16.67 8.36001 16.4 8.21001Z" fill="#181D27"/>
<path opacity="0.4" d="M10.74 12.47L7.23999 10.72C6.96999 10.59 6.65999 10.6 6.39999 10.76C6.13999 10.92 5.98999 11.19 5.98999 11.49V14.8C5.98999 15.37 6.31001 15.89 6.82001 16.14L10.32 17.89C10.44 17.95 10.57 17.98 10.71 17.98C10.87 17.98 11.02 17.94 11.16 17.85C11.42 17.69 11.57 17.42 11.57 17.12V13.81C11.57 13.24 11.26 12.73 10.74 12.47Z" fill="#181D27"/>
<path opacity="0.4" d="M17.59 10.76C17.33 10.6 17.02 10.59 16.75 10.72L13.25 12.47C12.74 12.73 12.42 13.24 12.42 13.81V17.12C12.42 17.42 12.57 17.69 12.83 17.85C12.97 17.94 13.12 17.98 13.28 17.98C13.41 17.98 13.54 17.95 13.67 17.89L17.17 16.14C17.68 15.88 18 15.37 18 14.8V11.49C18 11.19 17.85 10.92 17.59 10.76Z" fill="#181D27"/>
</svg>
