<svg width="24" height="24" viewBox="0 0 24 24" fill="none" xmlns="http://www.w3.org/2000/svg">
<path opacity="0.4" d="M9.99 17.98C14.4028 17.98 17.98 14.4028 17.98 9.99C17.98 5.57724 14.4028 2 9.99 2C5.57724 2 2 5.57724 2 9.99C2 14.4028 5.57724 17.98 9.99 17.98Z" fill="#2765B0"/>
<path d="M21.9701 15.9901C21.9701 19.2901 19.2901 21.9701 15.9901 21.9701C13.9501 21.9701 12.1601 20.9501 11.0801 19.4001C15.4401 18.9101 18.9101 15.4401 19.4001 11.0801C20.9501 12.1601 21.9701 13.9501 21.9701 15.9901Z" fill="#2765B0"/>
<path d="M11.45 9.70991L9.05 8.86991C8.81 8.78991 8.76 8.76991 8.76 8.41991C8.76 8.15991 8.94 7.94991 9.17 7.94991H10.67C10.99 7.94991 11.25 8.23991 11.25 8.59991C11.25 9.00991 11.59 9.34991 12 9.34991C12.41 9.34991 12.75 9.00991 12.75 8.59991C12.75 7.44991 11.86 6.50991 10.75 6.45991V6.40991C10.75 5.99991 10.41 5.65991 10 5.65991C9.59 5.65991 9.25 5.98991 9.25 6.40991V6.45991H9.16C8.11 6.45991 7.25 7.33991 7.25 8.42991C7.25 9.37991 7.67 9.98991 8.54 10.2899L10.95 11.1299C11.19 11.2099 11.24 11.2299 11.24 11.5799C11.24 11.8399 11.06 12.0499 10.83 12.0499H9.33C9.01 12.0499 8.75 11.7599 8.75 11.3999C8.75 10.9899 8.41 10.6499 8 10.6499C7.59 10.6499 7.25 10.9899 7.25 11.3999C7.25 12.5499 8.14 13.4899 9.25 13.5399V13.5999C9.25 14.0099 9.59 14.3499 10 14.3499C10.41 14.3499 10.75 14.0099 10.75 13.5999V13.5499H10.84C11.89 13.5499 12.75 12.6699 12.75 11.5799C12.75 10.6299 12.32 10.0199 11.45 9.70991Z" fill="#2765B0"/>
</svg>
