<svg width="78" height="78" viewBox="0 0 78 78" fill="none" xmlns="http://www.w3.org/2000/svg">
<path d="M78 39C78 17.4609 60.5391 0 39 0C17.4609 0 0 17.4609 0 39C0 60.5391 17.4609 78 39 78C60.5391 78 78 60.5391 78 39Z" fill="url(#paint0_linear_189_1799)"/>
<path d="M39 32.2747H33.401V45.7145H39V32.2747Z" fill="#3677BC"/>
<path d="M35.5553 32.2747H21.0001V45.7145H35.5553V32.2747Z" fill="#5F9CD3"/>
<path opacity="0.2" d="M35.5553 45.277H21.0001V45.7253H35.5553V45.277Z" fill="#3E3E3F"/>
<path opacity="0.2" d="M39 45.277H35.5553V45.7253H39V45.277Z" fill="#3E3E3F"/>
<path d="M29.5844 32.2747H26.9708V35.4788H29.5844V32.2747Z" fill="#F58220"/>
<path d="M39 45.7255H33.401V59.1653H39V45.7255Z" fill="#3677BC"/>
<path d="M35.5553 45.7255H21.0001V59.1653H35.5553V45.7255Z" fill="#5F9CD3"/>
<path d="M29.5844 45.7255H26.9708V48.9296H29.5844V45.7255Z" fill="#F58220"/>
<path d="M56.9891 45.7255H51.39V59.1653H56.9891V45.7255Z" fill="#3677BC"/>
<path d="M53.5553 45.7255H39V59.1653H53.5553V45.7255Z" fill="#5F9CD3"/>
<path d="M47.5845 45.7255H44.9709V48.9296H47.5845V45.7255Z" fill="#F58220"/>
<path d="M56.9891 32.2747H51.39V45.7145H56.9891V32.2747Z" fill="#3677BC"/>
<path d="M53.5553 32.2747H39V45.7145H53.5553V32.2747Z" fill="#5F9CD3"/>
<path opacity="0.2" d="M53.5553 45.277H39V45.7253H53.5553V45.277Z" fill="#3E3E3F"/>
<path opacity="0.2" d="M57 45.277H53.5553V45.7253H57V45.277Z" fill="#3E3E3F"/>
<path d="M47.5845 32.2747H44.9709V35.4788H47.5845V32.2747Z" fill="#F58220"/>
<path d="M48.0219 18.8348H42.4229V32.2747H48.0219V18.8348Z" fill="#3677BC"/>
<path d="M44.5881 18.8348H30.0328V32.2747H44.5881V18.8348Z" fill="#5F9CD3"/>
<path opacity="0.2" d="M44.5881 31.8373H30.0328V32.2856H44.5881V31.8373Z" fill="#3E3E3F"/>
<path opacity="0.2" d="M48.0328 31.8373H44.5881V32.2856H48.0328V31.8373Z" fill="#3E3E3F"/>
<path d="M38.6173 18.8348H36.0037V22.039H38.6173V18.8348Z" fill="#F58220"/>
<defs>
<linearGradient id="paint0_linear_189_1799" x1="39" y1="78" x2="39" y2="0" gradientUnits="userSpaceOnUse">
<stop stop-color="#E7F6F9"/>
<stop offset="1" stop-color="#FFE6D6"/>
</linearGradient>
</defs>
</svg>
