<svg width="78" height="78" viewBox="0 0 78 78" fill="none" xmlns="http://www.w3.org/2000/svg">
<path d="M78 39C78 17.4609 60.5391 0 39 0C17.4609 0 0 17.4609 0 39C0 60.5391 17.4609 78 39 78C60.5391 78 78 60.5391 78 39Z" fill="url(#paint0_linear_189_1759)"/>
<path d="M50.1901 23.9503H37.3828V57.2747H50.1901V23.9503Z" fill="#12629E"/>
<path d="M24.5756 57.2863V23.9504H37.3829V21.5692H22.1829V59.6674H37.3829V57.2863H24.5756Z" fill="#D16218"/>
<path d="M52.5828 21.5692H37.3828V23.9504H50.1901V57.2863H37.3828V59.6674H52.5828V21.5692Z" fill="#F58220"/>
<path d="M37.3828 23.9503H24.5755V57.2747H37.3828V23.9503Z" fill="#FFE6D6"/>
<path d="M50.1901 23.9503H37.3828V57.2747H50.1901V23.9503Z" fill="#E7F6F9"/>
<path d="M30.2972 34.6423L27.1994 31.533L28.0548 30.6776L30.2394 32.8622L34.2388 28.3196L35.1519 29.1171L30.2972 34.6423Z" fill="#5F9CD3"/>
<path d="M47.1155 31.4751H37.3828V32.8044H47.1155V31.4751Z" fill="#5F9CD3"/>
<path d="M30.2972 42.6064L27.1994 39.5086L28.0548 38.6417L30.2394 40.8264L34.2388 36.2837L35.1519 37.0928L30.2972 42.6064Z" fill="#5F9CD3"/>
<path d="M47.1155 39.4508H37.3828V40.7801H47.1155V39.4508Z" fill="#5F9CD3"/>
<path d="M30.2972 50.582L27.1994 47.4842L28.0548 46.6173L30.2394 48.8019L34.2388 44.2593L35.1519 45.0684L30.2972 50.582Z" fill="#5F9CD3"/>
<path d="M47.1155 47.4149H37.3828V48.7442H47.1155V47.4149Z" fill="#5F9CD3"/>
<path d="M43.4588 40.2792L42.3613 41.201L54.6358 55.8137L55.7333 54.8918L43.4588 40.2792Z" fill="#5F9CD3"/>
<path d="M55.7394 54.8668L54.6342 55.7975L56.7934 58.3616L57.8986 57.4309L55.7394 54.8668Z" fill="#F58220"/>
<path d="M44.5438 39.3536L43.4472 40.2766L55.7296 54.8675L56.8261 53.9445L44.5438 39.3536Z" fill="#3677BC"/>
<path d="M56.8413 53.9454L55.7448 54.8684L57.9035 57.4329L59 56.5098L56.8413 53.9454Z" fill="#D16218"/>
<path d="M41.1626 38.5377L42.3532 41.2078L43.4513 40.2831L41.6365 38.1447L41.1626 38.5377Z" fill="#D16218"/>
<path d="M43.4513 40.283L44.5494 39.3583L42.122 37.7285L41.6365 38.1446L43.4513 40.283Z" fill="#F58220"/>
<path d="M40.2379 36.4686L41.1626 38.5377L41.6365 38.1447L40.2379 36.4686Z" fill="#8A8A95"/>
<path d="M41.6365 38.1447L42.122 37.7286L40.2379 36.4686L41.6365 38.1447Z" fill="#29292C"/>
<path d="M44.3528 21.5692H30.4243V24.8057H44.3528V21.5692Z" fill="#5F9CD3"/>
<path d="M44.3528 18.3326H30.4243V21.5691H44.3528V18.3326Z" fill="#3677BC"/>
<defs>
<linearGradient id="paint0_linear_189_1759" x1="39" y1="78" x2="39" y2="0" gradientUnits="userSpaceOnUse">
<stop stop-color="#E7F6F9"/>
<stop offset="1" stop-color="#FFE6D6"/>
</linearGradient>
</defs>
</svg>
