<svg width="78" height="78" viewBox="0 0 78 78" fill="none" xmlns="http://www.w3.org/2000/svg">
<path d="M78 39C78 17.4609 60.5391 0 39 0C17.4609 0 0 17.4609 0 39C0 60.5391 17.4609 78 39 78C60.5391 78 78 60.5391 78 39Z" fill="url(#paint0_linear_189_1748)"/>
<path d="M54.5578 31.0007C54.0944 31.0007 53.7193 30.6256 53.7193 30.1623C53.7193 24.1825 48.8539 19.3171 42.8742 19.3171H35.0851C29.1053 19.3171 24.2399 24.1825 24.2399 30.1623C24.2399 30.6256 23.8648 31.0007 23.4014 31.0007C22.9381 31.0007 22.563 30.6256 22.563 30.1623C22.563 23.2558 28.1786 17.6401 35.0851 17.6401H42.8742C49.7806 17.6401 55.3963 23.2558 55.3963 30.1623C55.3963 30.6256 55.0212 31.0007 54.5578 31.0007Z" fill="#3677BC"/>
<path d="M51.4466 31.4862V40.6433C51.4466 47.0312 46.2612 52.2166 39.8733 52.2166H38.097C31.7091 52.2166 26.5237 47.0312 26.5237 40.6433V31.4862C26.5237 31.3207 26.5237 31.1662 26.5347 31.0007C26.7885 25.4733 31.345 21.0713 36.9386 21.0713H41.0317C46.7908 21.0713 51.4466 25.7381 51.4466 31.4862Z" fill="#F58220"/>
<path d="M40.7118 53.2646H37.2475C32.4703 53.2646 28.5979 55.1292 28.5979 57.424H49.3724C49.3724 55.1292 45.5 53.2646 40.7228 53.2646H40.7118Z" fill="#3677BC"/>
<path d="M53.8296 46.976H37.3137C36.8503 46.976 36.4752 46.6009 36.4752 46.1375C36.4752 45.6742 36.8503 45.299 37.3137 45.299H52.8477L52.1637 40.8639C52.0975 40.4116 52.4064 39.9813 52.8587 39.9151C53.3111 39.8379 53.7414 40.1578 53.8076 40.6101L54.635 46.0162C54.6681 46.2589 54.6019 46.5016 54.4475 46.6892C54.293 46.8767 54.0613 46.976 53.8186 46.976H53.8296Z" fill="#3677BC"/>
<path d="M51.4466 31.4861V31.5964C45.2793 31.3537 40.0388 27.5254 37.7329 22.1414C37.0158 27.1723 32.691 31.0558 27.4505 31.0558C27.1415 31.0558 26.8326 31.0448 26.5237 31.0117C26.7775 25.4843 31.334 21.0823 36.9275 21.0823H41.0207C46.7798 21.0823 51.4356 25.7491 51.4356 31.4971L51.4466 31.4861Z" fill="#5F9CD3"/>
<path d="M26.5237 40.7205C26.4354 40.7316 26.3361 40.7426 26.2479 40.7426H22.0886C20.9412 40.7426 20.0144 39.8159 20.0144 38.6685V32.2254C20.0144 31.1883 20.8529 30.3608 21.8789 30.3608H26.4465C26.4465 30.3608 26.5016 30.3608 26.5237 30.3608V40.7205Z" fill="#D16218"/>
<path d="M56.1244 30.3609H51.5569C51.5569 30.3609 51.4797 30.3609 51.4466 30.3609C51.4466 30.383 51.4466 30.405 51.4466 30.416V40.7096C51.5459 40.7206 51.6562 40.7316 51.7665 40.7316H55.9258C57.0732 40.7316 58 39.8049 58 38.6575V32.2144C58 31.1773 57.1615 30.3499 56.1355 30.3499L56.1244 30.3609Z" fill="#D16218"/>
<defs>
<linearGradient id="paint0_linear_189_1748" x1="39" y1="78" x2="39" y2="0" gradientUnits="userSpaceOnUse">
<stop stop-color="#E7F6F9"/>
<stop offset="1" stop-color="#FFE6D6"/>
</linearGradient>
</defs>
</svg>
