<svg width="78" height="78" viewBox="0 0 78 78" fill="none" xmlns="http://www.w3.org/2000/svg">
<path d="M78 39C78 17.4609 60.5391 0 39 0C17.4609 0 0 17.4609 0 39C0 60.5391 17.4609 78 39 78C60.5391 78 78 60.5391 78 39Z" fill="url(#paint0_linear_189_1784)"/>
<path d="M49.5156 18.9139H28.4843C27.1122 18.9139 25.9999 20.0262 25.9999 21.3983V56.616C25.9999 57.9881 27.1122 59.1004 28.4843 59.1004H49.5156C50.8877 59.1004 52 57.9881 52 56.616V21.3983C52 20.0262 50.8877 18.9139 49.5156 18.9139Z" fill="#D16218"/>
<path d="M49.6373 23.6394H28.3627V52.0022H49.6373V23.6394Z" fill="#E7F6F9"/>
<path d="M42.7824 21.8952H35.2176C35.0047 21.8952 34.8424 21.7228 34.8424 21.52C34.8424 21.3172 35.0148 21.1448 35.2176 21.1448H42.7824C42.9953 21.1448 43.1576 21.3172 43.1576 21.52C43.1576 21.7228 42.9852 21.8952 42.7824 21.8952Z" fill="#F58220"/>
<path d="M41.0179 56.2306H36.9719C36.5561 56.2306 36.2215 55.896 36.2215 55.4802C36.2215 55.0645 36.5561 54.7299 36.9719 54.7299H41.0179C41.4337 54.7299 41.7683 55.0645 41.7683 55.4802C41.7683 55.896 41.4337 56.2306 41.0179 56.2306Z" fill="#5F9CD3"/>
<path d="M28.3627 23.6394L49.6373 52.0022V23.6394H28.3627Z" fill="#FFE6D6"/>
<path d="M46.1287 33.4653L39.2027 30.9708C39.2027 30.9708 39.1115 30.9505 39.0608 30.9708L32.1349 33.4653C32.0538 33.4958 32.0031 33.5668 32.0031 33.658C32.0031 33.7493 32.0538 33.8203 32.1349 33.8507L39.0608 36.3452C39.0608 36.3452 39.1115 36.3554 39.1318 36.3554C39.152 36.3554 39.1825 36.3554 39.2027 36.3452L46.1287 33.8507C46.2098 33.8203 46.2605 33.7493 46.2605 33.658C46.2605 33.5668 46.2098 33.4958 46.1287 33.4653Z" fill="#5F9CD3"/>
<path d="M39.2027 35.9498L32.2768 33.4552C32.216 33.4349 32.145 33.4451 32.0943 33.4856C32.0436 33.5262 32.0031 33.587 32.0031 33.6479V42.5207C32.0031 42.6019 32.0538 42.6729 32.1247 42.7134L39.0506 45.644C39.0506 45.644 39.1013 45.6643 39.1318 45.6643C39.1723 45.6643 39.2129 45.6541 39.2433 45.6339C39.3042 45.5933 39.3346 45.5325 39.3346 45.4615V36.1424C39.3346 36.0512 39.2839 35.9802 39.2027 35.9498Z" fill="#5F9CD3"/>
<path d="M46.1794 33.4856C46.1287 33.4451 46.0577 33.4349 45.9969 33.4552L39.071 35.9498C38.9898 35.9802 38.9391 36.0512 38.9391 36.1424V45.4615C38.9391 45.5325 38.9696 45.5933 39.0304 45.6339C39.0608 45.6541 39.1014 45.6643 39.142 45.6643C39.1724 45.6643 39.2028 45.6643 39.2231 45.644L46.149 42.541C46.22 42.5106 46.2707 42.4396 46.2707 42.3585V33.658C46.2707 33.587 46.2402 33.5262 46.1794 33.4958V33.4856Z" fill="#3677BC"/>
<path d="M41.2004 31.6908L34.3962 34.4287V37.8258C34.3962 37.917 34.457 38.0083 34.5483 38.0387L36.4648 38.7688C36.4648 38.7688 36.5155 38.7891 36.5459 38.7891C36.5967 38.7891 36.6372 38.779 36.6778 38.7485C36.7386 38.708 36.7792 38.637 36.7792 38.5559V35.3109L43.9079 32.6643L41.2004 31.6908Z" fill="#F58220"/>
<path d="M36.5764 35.2197L34.599 34.5098L34.4063 34.4388C34.4063 34.4388 34.3962 34.4794 34.3962 34.5098V37.8257C34.3962 37.917 34.457 38.0083 34.5483 38.0387L36.4648 38.7688C36.4648 38.7688 36.5155 38.7891 36.5459 38.7891C36.5967 38.7891 36.6372 38.7789 36.6778 38.7485C36.7386 38.708 36.7792 38.637 36.7792 38.5559V35.3008L36.5764 35.2298V35.2197Z" fill="#D16218"/>
<defs>
<linearGradient id="paint0_linear_189_1784" x1="39" y1="78" x2="39" y2="0" gradientUnits="userSpaceOnUse">
<stop stop-color="#E7F6F9"/>
<stop offset="1" stop-color="#FFE6D6"/>
</linearGradient>
</defs>
</svg>
