<svg width="78" height="78" viewBox="0 0 78 78" fill="none" xmlns="http://www.w3.org/2000/svg">
<path d="M78 39C78 17.4609 60.5391 0 39 0C17.4609 0 0 17.4609 0 39C0 60.5391 17.4609 78 39 78C60.5391 78 78 60.5391 78 39Z" fill="url(#paint0_linear_189_1824)"/>
<path d="M54.6956 28.1136L39.1605 22.5267C39.0591 22.4929 38.9492 22.4929 38.8478 22.5267L23.3126 28.1136C23.1267 28.1812 23.0084 28.3503 23.0084 28.5447C23.0084 28.7391 23.1267 28.9081 23.3126 28.9757L38.8478 34.5626C38.8985 34.5795 38.9492 34.588 38.9999 34.588C39.0506 34.588 39.1013 34.5795 39.152 34.5626L54.6871 28.9757C54.8731 28.9081 54.9914 28.7391 54.9914 28.5447C54.9914 28.3503 54.8731 28.1812 54.6871 28.1136H54.6956Z" fill="#5F9CD3"/>
<path d="M39.1521 33.7089L23.617 28.122C23.4733 28.0713 23.3212 28.0966 23.1944 28.1811C23.0761 28.2657 23 28.4093 23 28.553V48.4579C23 48.6439 23.1099 48.8045 23.2789 48.8805L38.814 55.4648C38.8732 55.4901 38.9324 55.4986 38.9915 55.4986C39.0845 55.4986 39.169 55.4732 39.2451 55.4225C39.3719 55.338 39.4479 55.1943 39.4479 55.0422V34.1399C39.4479 33.9455 39.3296 33.7765 39.1437 33.7089H39.1521Z" fill="#5F9CD3"/>
<path d="M54.8056 28.1727C54.6872 28.0882 54.5267 28.0628 54.383 28.1135L38.8479 33.7004C38.6619 33.7681 38.5436 33.9371 38.5436 34.1315V55.0337C38.5436 55.1859 38.6196 55.3296 38.7549 55.4141C38.831 55.4648 38.9155 55.4902 39.0085 55.4902C39.0761 55.4902 39.1352 55.4733 39.1944 55.4479L54.7295 48.4749C54.8986 48.3988 55 48.2382 55 48.0522V28.5446C55 28.3925 54.9239 28.2572 54.8056 28.1727Z" fill="#3677BC"/>
<path d="M43.6318 24.141L28.3671 30.2858V37.9096C28.3671 38.1209 28.5024 38.3238 28.7052 38.3999L33.0158 40.0396C33.075 40.0649 33.1342 40.0734 33.2018 40.0734C33.3032 40.0734 33.4131 40.0396 33.4976 39.9804C33.6413 39.8874 33.7258 39.7268 33.7258 39.5493V32.2636L49.7258 26.3217L43.6487 24.1326L43.6318 24.141Z" fill="#F58220"/>
<path d="M33.2525 32.0692L28.8235 30.4717L28.3925 30.3196C28.3756 30.3703 28.3671 30.421 28.3671 30.4717V37.9096C28.3671 38.1209 28.5024 38.3238 28.7052 38.3999L33.0158 40.0396C33.075 40.0649 33.1342 40.0734 33.2018 40.0734C33.3032 40.0734 33.4131 40.0396 33.4976 39.9804C33.6413 39.8875 33.7258 39.7269 33.7258 39.5494V32.2382L33.2694 32.0692H33.2525Z" fill="#D16218"/>
<defs>
<linearGradient id="paint0_linear_189_1824" x1="39" y1="78" x2="39" y2="0" gradientUnits="userSpaceOnUse">
<stop stop-color="#E7F6F9"/>
<stop offset="1" stop-color="#FFE6D6"/>
</linearGradient>
</defs>
</svg>
