<svg width="78" height="78" viewBox="0 0 78 78" fill="none" xmlns="http://www.w3.org/2000/svg">
<path d="M78 39C78 17.4609 60.5391 0 39 0C17.4609 0 0 17.4609 0 39C0 60.5391 17.4609 78 39 78C60.5391 78 78 60.5391 78 39Z" fill="url(#paint0_linear_189_1843)"/>
<path d="M56.8808 55.7395C56.1467 56.6163 54.2606 55.6274 53.292 55.6987C52.9555 55.7191 52.721 56.025 52.4763 56.2085C52.1603 56.4532 51.7933 56.6571 51.4466 56.8508C44.4219 60.7761 35.4397 60.5722 28.1193 57.5645C27.5585 57.33 27.0182 57.0853 26.4778 56.7998C26.0292 56.5653 25.5908 56.3105 25.1626 56.025C25.1524 56.025 25.1422 56.0148 25.132 56.0046C25.0402 55.9434 24.8057 55.6987 24.6936 55.6885C24.3775 55.6681 23.9697 55.7497 23.5313 55.8517C23.4803 55.8619 23.4192 55.8822 23.3682 55.8924C22.5016 56.0964 21.5738 56.2901 21.1048 55.7293C20.4013 54.3223 23.0419 52.3036 23.0419 52.2934C24.2144 49.4897 23.5925 46.0028 24.2756 43.0359C25.3053 38.5193 27.2731 33.5745 30.8925 30.5056C31.545 29.9551 32.2485 29.4657 33.0029 29.0477C33.8084 28.6093 34.7362 28.5379 35.1644 27.5999C35.5212 26.8149 35.2561 25.8973 34.7973 25.2142C33.737 23.6237 31.4634 22.6347 31.1372 20.5956C30.8007 18.4342 33.6249 19.4027 34.6342 19.7494C34.7871 19.8003 34.9299 19.8411 35.0624 19.8717C35.7455 20.0145 36.2145 19.8717 36.6733 19.5659C37.0302 19.3314 37.3768 18.9949 37.8152 18.6483C39.3649 17.4044 40.1602 18.9541 41.3734 19.5964C41.4346 19.627 41.506 19.6576 41.5672 19.6882C42.0463 19.8921 42.5255 19.8717 43.0149 19.78C43.9937 19.576 44.9725 19.0255 45.9716 19.2192C48.653 19.7392 44.9827 23.2668 44.3403 23.8989C43.6165 24.6024 42.4338 25.8565 42.5357 27.0086C42.5663 27.294 42.6683 27.5795 42.8824 27.8548C43.4227 28.5277 44.5341 28.8132 45.2579 29.2516C46.1755 29.8225 47.0218 30.4954 47.7864 31.2499C49.3361 32.7792 50.5698 34.6144 51.4976 36.572C52.7108 39.131 53.4347 41.894 53.9649 44.6672C54.2096 45.9722 54.3013 47.1549 54.3421 48.4599C54.3625 49.2552 54.23 51.7327 54.9437 52.2832C54.9437 52.2832 57.5843 54.3121 56.8808 55.7089V55.7395Z" fill="#5F9CD3"/>
<path d="M37.4482 24.8063C37.4482 24.8063 35.8475 22.3288 35.0624 19.8819C35.7455 20.0247 36.2145 19.8819 36.6733 19.576C36.7345 20.7587 36.9384 22.5022 37.4482 24.8063Z" fill="#3677BC"/>
<path d="M43.0149 19.7903C42.2503 22.2678 40.5986 24.8167 40.5986 24.8167C41.1084 22.5227 41.3021 20.7996 41.3735 19.6169C41.4346 19.6475 41.506 19.6781 41.5672 19.7087C42.0464 19.9126 42.5256 19.8922 43.0149 19.8005V19.7903Z" fill="#3677BC"/>
<path d="M56.8808 55.7395C56.1467 56.6164 54.2606 55.6274 53.292 55.6988C52.9555 55.7192 52.7211 56.025 52.4764 56.2085C52.1603 56.4532 51.7933 56.6571 51.4466 56.8509C44.4219 60.7761 35.4397 60.5722 28.1193 57.5645C27.5585 57.33 27.0182 57.0854 26.4778 56.7999C26.0292 56.5654 25.5908 56.3105 25.1626 56.025C35.3071 58.89 42.4236 57.7583 46.6751 56.2595C49.7032 55.189 51.7117 52.3037 51.6709 49.1023C51.467 34.5533 42.8824 28.2219 42.8824 28.2219L41.7099 27.3247L42.5357 27.0188C42.5663 27.3043 42.6683 27.5897 42.8824 27.865C43.4228 28.5379 44.5341 28.8234 45.2579 29.2618C46.1755 29.8328 47.0218 30.4954 47.7864 31.2601C49.3361 32.7895 50.5698 34.6246 51.4976 36.5822C52.7109 39.1413 53.4347 41.9042 53.9649 44.6774C54.2096 45.9824 54.3014 47.1651 54.3421 48.4701C54.3625 49.2654 54.23 51.7429 54.9437 52.2935C54.9437 52.2935 57.5843 54.3224 56.8808 55.7192V55.7395Z" fill="#3677BC"/>
<path d="M43.4228 26.4275H34.5832C34.3386 26.4275 34.1346 26.2236 34.1346 25.9789C34.1346 25.7342 34.3386 25.5303 34.5832 25.5303H43.4228C43.6674 25.5303 43.8714 25.7342 43.8714 25.9789C43.8714 26.2236 43.6674 26.4275 43.4228 26.4275Z" fill="#FFE6D6"/>
<path d="M43.4635 26.4275H34.5323C34.307 26.4275 34.1245 26.6101 34.1245 26.8353V26.9169C34.1245 27.1421 34.307 27.3247 34.5323 27.3247H43.4635C43.6888 27.3247 43.8714 27.1421 43.8714 26.9169V26.8353C43.8714 26.6101 43.6888 26.4275 43.4635 26.4275Z" fill="#F58220"/>
<path d="M43.4228 28.2219H34.5832C34.3386 28.2219 34.1346 28.018 34.1346 27.7733C34.1346 27.5286 34.3386 27.3247 34.5832 27.3247H43.4228C43.6674 27.3247 43.8714 27.5286 43.8714 27.7733C43.8714 28.018 43.6674 28.2219 43.4228 28.2219Z" fill="#D16218"/>
<defs>
<linearGradient id="paint0_linear_189_1843" x1="39" y1="78" x2="39" y2="0" gradientUnits="userSpaceOnUse">
<stop stop-color="#E7F6F9"/>
<stop offset="1" stop-color="#FFE6D6"/>
</linearGradient>
</defs>
</svg>
