<svg width="24" height="24" viewBox="0 0 24 24" fill="none" xmlns="http://www.w3.org/2000/svg">
<path opacity="0.4" d="M22 9.75C21.59 9.75 21.25 9.41 21.25 9V7C21.25 4.42 19.58 2.75 17 2.75H7C4.42 2.75 2.75 4.42 2.75 7V9C2.75 9.41 2.41 9.75 2 9.75C1.59 9.75 1.25 9.41 1.25 9V7C1.25 3.56 3.56 1.25 7 1.25H17C20.44 1.25 22.75 3.56 22.75 7V9C22.75 9.41 22.41 9.75 22 9.75Z" fill="#A4A7AE"/>
<path opacity="0.4" d="M17 22.75H7C3.56 22.75 1.25 20.44 1.25 17V15C1.25 14.59 1.59 14.25 2 14.25C2.41 14.25 2.75 14.59 2.75 15V17C2.75 19.58 4.42 21.25 7 21.25H17C19.58 21.25 21.25 19.58 21.25 17V15C21.25 14.59 21.59 14.25 22 14.25C22.41 14.25 22.75 14.59 22.75 15V17C22.75 20.44 20.44 22.75 17 22.75Z" fill="#A4A7AE"/>
<path d="M16.4 8.20999L12.64 6.17996C12.24 5.96996 11.77 5.96996 11.37 6.17996L7.60999 8.20999C7.33999 8.35999 7.16998 8.64995 7.16998 8.97995C7.16998 9.30995 7.33999 9.59997 7.60999 9.74997L11.37 11.78C11.57 11.89 11.79 11.94 12.01 11.94C12.23 11.94 12.45 11.89 12.65 11.78L16.41 9.74997C16.68 9.59997 16.85 9.30995 16.85 8.97995C16.84 8.64995 16.67 8.35999 16.4 8.20999Z" fill="#A4A7AE"/>
<path d="M10.74 12.4699L7.23999 10.7199C6.96999 10.5899 6.65998 10.6 6.39998 10.76C6.13998 10.92 5.98999 11.1899 5.98999 11.4899V14.7999C5.98999 15.3699 6.30999 15.89 6.81999 16.14L10.32 17.89C10.44 17.95 10.57 17.9799 10.71 17.9799C10.87 17.9799 11.02 17.9399 11.16 17.8499C11.42 17.6899 11.57 17.4199 11.57 17.1199V13.8099C11.57 13.2399 11.26 12.7299 10.74 12.4699Z" fill="#A4A7AE"/>
<path d="M17.59 10.76C17.33 10.6 17.02 10.5899 16.75 10.7199L13.25 12.4699C12.74 12.7299 12.42 13.2399 12.42 13.8099V17.1199C12.42 17.4199 12.57 17.6899 12.83 17.8499C12.97 17.9399 13.12 17.9799 13.28 17.9799C13.41 17.9799 13.54 17.95 13.67 17.89L17.17 16.14C17.68 15.88 18 15.3699 18 14.7999V11.4899C18 11.1899 17.85 10.92 17.59 10.76Z" fill="#A4A7AE"/>
</svg>
