<svg width="37" height="41" viewBox="0 0 37 41" fill="none" xmlns="http://www.w3.org/2000/svg">
<path d="M36.2799 8.67768L19.7167 0.27858C18.9814 -0.0928601 18.1096 -0.0928601 17.3743 0.27858L0.773202 8.59429C0.288056 8.83687 0.0454825 9.30685 0.0454825 9.76926L0 30.4941C0 30.9641 0.242573 31.4265 0.720139 31.6767L17.2833 40.0682C17.6548 40.2577 18.049 40.3486 18.4507 40.3486C18.8525 40.3486 19.2543 40.2577 19.6257 40.0758L36.2268 31.7525C36.7119 31.5099 36.9545 31.0399 36.9545 30.5775L37 9.86022C37 9.39024 36.7574 8.92783 36.2799 8.67768Z" fill="#F5B977"/>
<path d="M36.9773 9.81476V30.532C36.9773 31.002 36.7347 31.4644 36.2495 31.707L19.6712 40.0682C19.2997 40.2501 18.898 40.3487 18.5038 40.3487V9.81476H36.9773Z" fill="#DE9761"/>
<path d="M36.2496 10.9897L19.6712 19.3509C18.9359 19.7223 18.0642 19.7223 17.3289 19.3509L11.1129 16.2202L6.28419 13.7869L0.750486 10.9897C-0.219807 10.5046 -0.219807 9.11735 0.750486 8.6322L17.3289 0.278588C18.0642 -0.0928524 18.9359 -0.0928524 19.6712 0.278588L36.2496 8.63978C37.2199 9.12493 37.2199 10.5121 36.2496 10.9973V10.9897Z" fill="#F6CF94"/>
<path d="M31.2009 6.09277L11.1128 16.2202L6.28412 13.7793L26.3722 3.65946L31.2009 6.09277Z" fill="#F68132"/>
<path d="M11.1128 16.2202V26.0899L6.28412 23.6566V13.7793L11.1128 16.2202Z" fill="#E06D20"/>
</svg>
