<svg width="135" height="140" viewBox="0 0 135 140" fill="none" xmlns="http://www.w3.org/2000/svg">
<g clip-path="url(#clip0_555_25)">
<path d="M40.6926 70.58C40.6926 78.8503 58.6612 96.339 58.6612 96.339C58.6612 96.339 61.0189 95.4111 63.4067 93.6864C65.4333 92.224 66.6673 89.4605 66.6673 85.6481C66.6673 77.3778 60.8483 67.2921 53.6749 63.1267C46.5016 58.9612 40.6826 62.2996 40.6826 70.5699L40.6926 70.58Z" fill="#606062"/>
<path d="M39.8398 71.5583C39.8398 79.8286 45.6588 89.9143 52.8322 94.0798C60.0056 98.2452 65.8245 94.9068 65.8245 86.6365C65.8245 78.3662 60.0056 68.2805 52.8322 64.1151C45.6588 59.9496 39.8398 63.288 39.8398 71.5583Z" fill="#818183"/>
<path d="M38.4955 72.0827C38.4955 80.353 44.3144 90.4388 51.4878 94.6042C58.6612 98.7696 64.4802 95.4312 64.4802 87.1609C64.4802 78.8906 58.6612 68.8049 51.4878 64.6395C44.3144 60.4741 38.4955 63.8124 38.4955 72.0827Z" fill="#606062"/>
<path d="M36.83 72.6375C36.83 80.9078 42.649 90.9936 49.8224 95.159C56.9958 99.3244 62.8147 95.986 62.8147 87.7157C62.8147 79.4454 56.9958 69.3597 49.8224 65.1943C42.649 61.0289 36.83 64.3672 36.83 72.6375Z" fill="#4F4F51"/>
<path d="M37.5323 73.041C37.5323 80.8675 43.0403 90.4187 49.8224 94.3521C56.6145 98.2957 62.1124 95.1388 62.1124 87.3022C62.1124 79.4656 56.6045 69.9245 49.8224 65.9911C43.0302 62.0475 37.5323 65.2044 37.5323 73.041Z" fill="#2B2B2D"/>
<path d="M58.2398 85.7288C58.2398 87.7963 57.7081 89.41 56.7851 90.4791C56.6847 90.6002 56.5844 90.7111 56.464 90.812C56.0527 91.2154 55.5611 91.528 55.0294 91.7298C54.8588 91.7903 54.6983 91.8407 54.5277 91.881C53.083 92.2441 51.3072 91.9113 49.391 90.8019C47.4848 89.6924 45.709 87.9577 44.2542 85.9305C44.0736 85.6682 43.883 85.406 43.7125 85.1236C41.7661 82.1281 40.5522 78.6082 40.5522 75.4716C40.5522 74.6445 40.6324 73.8881 40.803 73.2224C40.8431 73.0106 40.9033 72.8089 40.9635 72.6072C42.0571 69.2688 45.1873 68.1796 48.9395 70.1261C49.09 70.2068 49.2405 70.2976 49.391 70.3884C49.5314 70.459 49.6719 70.5497 49.8023 70.6405C50.0431 70.7918 50.2739 70.9532 50.5146 71.1246C51.0062 71.4776 51.4778 71.871 51.9393 72.3046C54.2067 74.3823 56.0728 77.2668 57.1663 80.2623C57.367 80.7968 57.5476 81.3314 57.678 81.876C57.7382 82.0374 57.7683 82.1887 57.8084 82.35C57.8786 82.6324 57.9489 82.9048 57.989 83.1872C58.1596 84.0444 58.2398 84.9118 58.2398 85.7388V85.7288Z" fill="#606062"/>
<path d="M58.6712 85.3153C58.6712 87.3829 58.1395 88.9966 57.2165 90.0657C57.1162 90.1867 57.0158 90.2976 56.8954 90.3985C56.4841 90.8019 55.9925 91.1146 55.4608 91.3163C55.2902 91.3768 55.1297 91.4272 54.9591 91.4676C53.5144 91.8307 51.7386 91.4979 49.8224 90.3884C47.9162 89.279 46.1404 87.5442 44.6856 85.517C44.5051 85.2548 44.3144 84.9925 44.1439 84.7101C42.2076 81.7147 40.9836 78.1948 40.9836 75.0581C40.9836 74.2311 41.0638 73.4747 41.2344 72.809C41.2745 72.5972 41.3347 72.3955 41.3949 72.1938C42.4885 68.8554 45.6187 67.7661 49.3709 69.7127C49.5214 69.7934 49.6719 69.8841 49.8224 69.9749C49.9628 70.0455 50.1033 70.1363 50.2337 70.227C50.4745 70.3783 50.7053 70.5397 50.946 70.7112C51.4376 71.0642 51.9092 71.4575 52.3707 71.8912C54.6381 73.9688 56.5042 76.8534 57.5977 79.8488C57.7984 80.3834 57.979 80.9179 58.1094 81.4625C58.1696 81.6239 58.1997 81.7752 58.2398 81.9366C58.31 82.219 58.3803 82.4913 58.4204 82.7737C58.591 83.631 58.6712 84.4984 58.6712 85.3254V85.3153Z" fill="white"/>
<path d="M52.6014 89.0469C50.6852 87.9375 48.9094 86.2128 47.4647 84.1654C47.2741 83.9032 47.0935 83.641 46.9229 83.3586C44.9866 80.3631 43.7526 76.8432 43.7526 73.6964C43.7526 72.8795 43.8429 72.1231 44.0034 71.4574C44.0536 71.2355 44.1138 71.0338 44.174 70.8422C44.4449 70.0051 44.8462 69.3092 45.3578 68.7645C43.4917 68.9461 42.0571 70.1362 41.3949 72.1735C41.3247 72.3651 41.2645 72.5668 41.2244 72.7887C41.0638 73.4544 40.9735 74.2108 40.9735 75.0278C40.9735 78.1745 42.2076 81.6944 44.1439 84.6899C44.3245 84.9622 44.5051 85.2345 44.6856 85.4967C46.1303 87.5341 47.9061 89.2688 49.8224 90.3782C51.7386 91.4877 53.5144 91.8205 54.9591 91.4574C55.1297 91.4171 55.3002 91.3666 55.4608 91.3061C56.0627 91.0842 56.5945 90.7111 57.0459 90.227C55.7417 90.348 54.2167 89.9748 52.6014 89.0368V89.0469Z" fill="#979790"/>
<path d="M53.5746 80.9179L57.2165 90.0657C57.1162 90.1867 57.0158 90.2976 56.8954 90.3985C56.8553 90.3985 55.5009 91.3062 55.4608 91.3163L51.3072 81.8054L47.4747 84.2764C47.1136 84.6294 44.8662 85.7893 44.6957 85.5069L49.4813 78.3763L41.4049 72.1937C41.4451 71.9719 43.1807 71.3465 43.2409 71.1448L50.2237 76.3289L50.946 70.701C51.4376 71.0541 51.9092 71.4474 52.3707 71.8811L53.0328 77.9224L57.5977 79.8387C57.7984 80.3733 58.0994 81.3818 58.2398 81.9265L53.5746 80.9179Z" fill="#595B5A"/>
<path d="M47.6353 79.4151L44.1439 84.7C44.3245 84.9724 44.5051 85.2447 44.6856 85.5069L49.8224 82.6425L54.9591 91.4676C55.1297 91.4272 55.3002 91.3768 55.4608 91.3163L51.7386 81.9668L58.4204 82.7636C58.3702 82.4913 58.31 82.2089 58.2398 81.9365L51.1868 78.9713L50.2337 70.2169C50.0933 70.1362 49.9628 70.0455 49.8224 69.9648C49.6719 69.874 49.5214 69.7933 49.3709 69.7126L48.3777 77.3576L41.4049 72.1836C41.3347 72.3753 41.2745 72.577 41.2344 72.7989L47.6453 79.4151H47.6353Z" fill="#8B8D8C"/>
<path d="M44.5351 75.9052C44.5351 77.872 45.3077 80.0706 46.5116 81.9365C46.622 82.108 46.7323 82.2794 46.8527 82.4408C47.7556 83.7116 48.8693 84.7908 50.0632 85.4867C51.2571 86.1826 52.3707 86.3843 53.2736 86.1624C53.384 86.1423 53.4843 86.1019 53.5846 86.0716C54.8086 85.6178 55.5912 84.2966 55.5912 82.3198C55.5912 81.7953 55.541 81.2608 55.4307 80.7262C55.4006 80.5548 55.3604 80.3833 55.3203 80.2118C54.628 77.3374 52.6616 74.3823 50.314 72.8896C50.2337 72.8392 50.1434 72.7787 50.0632 72.7383C49.9729 72.6879 49.8725 72.6274 49.7822 72.5769C47.4346 71.3566 45.4782 72.0424 44.796 74.1201C44.7559 74.2411 44.7157 74.3722 44.6856 74.5033C44.5853 74.9168 44.5351 75.3909 44.5351 75.9052Z" fill="#A9ABA9"/>
<path d="M44.0335 76.1574C44.0335 78.1242 44.806 80.3228 46.01 82.1887C46.1203 82.3602 46.2307 82.5316 46.3511 82.693C47.254 83.9638 48.3676 85.043 49.5615 85.7389C50.7554 86.4348 51.8691 86.6365 52.772 86.4146C52.8824 86.3945 52.9827 86.3541 53.083 86.3238C54.307 85.87 55.0896 84.5488 55.0896 82.572C55.0896 82.0475 55.0394 81.513 54.929 80.9784C54.8989 80.807 54.8588 80.6355 54.8187 80.464C54.1264 77.5896 52.16 74.6345 49.8124 73.1418C49.7321 73.0914 49.6418 73.0309 49.5615 72.9905C49.4712 72.9401 49.3709 72.8796 49.2806 72.8291C46.933 71.6088 44.9766 72.2946 44.2944 74.3723C44.2542 74.4933 44.2141 74.6244 44.184 74.7555C44.0837 75.169 44.0335 75.6431 44.0335 76.1574Z" fill="#D5D6D5"/>
<path d="M121.406 45.4362C121.596 46.122 122.258 46.818 122.891 46.9793C123.513 47.1407 123.864 46.707 123.673 46.0212C123.482 45.3354 122.82 44.6394 122.188 44.4781C121.566 44.3167 121.215 44.7504 121.406 45.4362Z" fill="#2B2B2D"/>
<path d="M109.055 38.9612C108.173 39.2637 108.203 40.2925 107.811 40.4034C107.771 40.4034 107.741 40.4236 107.701 40.4337C107.36 40.5245 107.159 40.5245 106.979 40.4135C106.949 40.3933 106.858 40.3127 106.718 40.1916C106.216 39.7176 105.203 38.6889 105.082 38.5577C104.43 37.8215 103.046 33.8578 102.354 33.1518C101.982 32.7786 101.2 31.9112 100.538 31.1649C99.8956 30.4589 99.3639 29.8538 99.3639 29.8538L104.45 24.7806C104.45 24.7806 105.123 25.6379 105.825 26.5961C106.367 27.3424 106.918 28.119 107.209 28.6334C107.892 29.8134 110.49 35.0076 110.49 35.0076C110.49 35.0076 110.54 35.1488 110.57 35.3807C110.731 36.238 110.942 38.3359 109.065 38.9914L109.055 38.9612Z" fill="#F2BC85"/>
<path d="M123.884 47.2718L123.553 47.5844C123.553 47.5844 123.492 48.1795 123.352 48.5325C123.212 48.8754 122.82 48.7846 122.82 48.7846V48.8653C122.85 48.946 122.489 49.3494 122.269 49.4705C122.048 49.6117 121.777 49.5209 121.777 49.5209L121.626 49.8134C121.626 49.8134 121.887 49.9243 122.028 49.9748C122.178 50.0151 122.269 50.59 122.218 50.9228C122.158 51.2556 121.386 51.0943 121.125 51.1346L119.73 51.417C119.6 51.4473 119.118 51.1548 118.597 50.8119C118.225 50.5698 117.864 50.3076 117.563 50.0857C117.322 49.9142 117.162 49.7327 117.041 49.5209C116.761 49.0973 116.65 48.5325 116.389 47.7156C115.988 46.4851 115.396 46.1321 114.824 45.2042C114.242 44.2763 112.517 43.3989 111.223 43.0862C109.938 42.7735 108.062 41.4422 108.062 41.4422C107.791 41.2909 106.668 40.2521 106.718 40.1815C106.788 40.0907 106.888 39.9798 107.009 39.8588C107.009 39.8588 106.276 38.8502 106.286 38.8099C107.079 36.8835 108.213 37.7508 108.714 36.8835C109.788 35.0378 110.049 34.9773 110.55 35.3404C111.283 35.8648 112.246 36.6011 112.968 37.186C114.182 38.1744 116.771 40.8573 117.112 41.2506C117.453 41.6238 118.055 41.7145 118.667 42.3096C119.279 42.9147 119.57 43.1467 121.195 43.3888C122.81 43.651 123.342 43.9737 123.563 44.3671C123.773 44.7705 123.874 47.2617 123.874 47.2617L123.884 47.2718Z" fill="#F9C48E"/>
<path d="M118.817 47.413C118.817 47.413 119.158 48.6333 119.198 49.0569C119.239 49.4805 119.73 50.1058 119.921 50.1764C120.122 50.247 121.486 50.1764 121.486 50.1764L121.687 50.3076C121.687 50.3076 120.824 50.3076 120.553 50.3076C120.282 50.3076 119.821 50.4488 119.399 49.8537C118.978 49.2486 118.446 48.6838 118.456 48.2501C118.456 47.8164 118.265 46.6364 118.817 47.4029V47.413Z" fill="#E09C63"/>
<path d="M113.129 43.5098C112.888 43.3283 112.567 43.3888 112.286 43.3283C111.935 43.2476 111.584 43.177 111.233 43.0963C109.948 42.7836 108.072 41.4523 108.072 41.4523C107.801 41.301 106.678 40.2622 106.728 40.1916C106.226 39.7176 105.213 38.6888 105.093 38.5577C104.44 37.8215 103.056 33.8578 102.364 33.1518C101.992 32.7786 101.21 31.9112 100.548 31.1649L104.099 25.2546C104.099 25.2546 104.952 25.9203 105.865 26.6767C105.945 27.292 105.975 27.9274 105.925 28.5628C105.825 29.9243 105.203 31.4876 103.869 31.8003C105.072 32.8088 104.069 37.1356 105.484 37.7912C105.895 37.9828 106.597 39.4251 107.019 39.8689C107.049 39.8991 107.069 39.9294 107.089 39.9395C107.189 40 107.28 40.0605 107.37 40.1311C107.37 40.1311 107.39 40.1513 107.4 40.1513C107.5 40.242 107.601 40.3328 107.701 40.4337C107.922 40.6555 108.142 40.8774 108.393 41.059C108.694 41.2809 108.905 41.6137 109.226 41.8053C109.387 41.9062 109.617 41.9062 109.758 42.007C109.828 42.0575 109.878 42.1987 109.948 42.2693C110.039 42.36 110.139 42.4306 110.249 42.4911C110.47 42.6122 110.711 42.6727 110.952 42.7433C111.694 42.9551 112.416 43.2072 113.129 43.5098Z" fill="#E09C63"/>
<path d="M118.045 47.5542L115.346 49.5915L117.001 52.0827L119.54 50.0353L119.75 48.0988L118.045 47.5542Z" fill="#2B2B2D"/>
<path d="M115.065 50.5396C115.256 51.2254 115.918 51.9213 116.55 52.0827C117.172 52.2441 117.523 51.8104 117.332 51.1246C117.142 50.4387 116.48 49.7428 115.848 49.5815C115.226 49.4201 114.874 49.8538 115.065 50.5396Z" fill="#161618"/>
<path d="M113.861 48.7948C113.861 48.7948 114.794 48.4922 116.008 49.7933C117.222 51.0943 119.68 54.0293 119.961 54.9269C120.242 55.8245 120.061 57.287 116.901 55.7539C113.741 54.2209 113.319 54.3218 112.808 52.819C112.296 51.3162 111.192 49.6218 113.861 48.8049V48.7948Z" fill="#BFCFB8"/>
<path d="M115.396 48.008C115.396 48.008 116.329 47.7055 117.543 49.0065C118.757 50.3076 120.673 53.4241 120.954 54.3217C121.235 55.2193 120.433 57.3575 117.272 55.8245C114.112 54.2914 113.179 52.7685 112.667 51.2657C112.146 49.763 112.737 48.825 115.396 48.0181V48.008Z" fill="#86A49D"/>
<path d="M115.797 59.8589L119.178 57.166C119.178 57.166 123.492 53.7671 114.834 48.9663C112.808 47.8468 111.082 51.518 111.082 51.518L115.797 59.8589Z" fill="#DB5100"/>
<path d="M118.817 35.2798C118.817 37.3474 117.784 39.9293 116.52 41.0489C115.256 42.1684 114.222 41.4019 114.222 39.3444C114.222 37.2869 115.256 34.6949 116.52 33.5753C117.784 32.4558 118.817 33.2223 118.817 35.2798Z" fill="#BFCFB8"/>
<path d="M119.108 35.6733C119.108 37.3475 118.275 39.4352 117.242 40.343C116.209 41.2507 115.376 40.6354 115.376 38.9612C115.376 37.287 116.209 35.1992 117.242 34.2915C118.275 33.3838 119.108 33.999 119.108 35.6733Z" fill="#CDDAC9"/>
<path d="M118.225 39.2738C118.426 41.4927 117.282 50.9128 117.282 50.9128L117.112 51.649L116.349 51.4271C116.349 51.4271 117.553 40.4135 117.322 37.5391C117.322 37.5391 117.403 36.6415 117.513 36.4801C117.694 36.2179 118.075 37.6601 118.215 39.2738H118.225Z" fill="#D8E2D4"/>
<path d="M40.0706 71.5382C40.0706 73.5049 40.8431 75.7036 42.047 77.5694C42.1574 77.7409 42.2678 77.9124 42.3882 78.0737C43.2911 79.3445 44.4047 80.4237 45.5986 81.1196C46.7925 81.8155 47.9061 82.0172 48.8091 81.7954C48.9194 81.7752 49.0198 81.7348 49.1201 81.7046C50.3441 81.2507 51.1266 79.9295 51.1266 77.9527C51.1266 77.4282 51.0765 76.8937 50.9661 76.3591C50.936 76.1877 50.8959 76.0162 50.8557 75.8448C50.1635 72.9703 48.1971 70.0152 45.8494 68.5225C45.7692 68.4721 45.6789 68.4116 45.5986 68.3713C45.5083 68.3208 45.408 68.2603 45.3177 68.2099C42.97 66.9895 41.0137 67.6753 40.3315 69.753C40.2913 69.874 40.2512 70.0051 40.2211 70.1363C40.1208 70.5498 40.0706 71.0238 40.0706 71.5382Z" fill="#D5D6D5"/>
<path d="M76.1381 89.5109L62.0823 83.1569C62.0823 83.1569 45.6588 77.5694 44.9164 76.2986C44.174 75.0278 39.6994 70.1665 41.415 70.3178C43.1306 70.4691 49.3809 73.5049 56.9456 77.3375C64.5103 81.17 74.4326 85.164 76.1281 89.5008L76.1381 89.5109Z" fill="#434545"/>
<path d="M41.4651 71.0541C40.2211 70.923 39.88 72.6073 40.8832 74.2109C41.716 75.5422 43.4416 77.1358 47.0132 78.3561C54.5277 80.9179 61.2195 83.2881 61.2195 83.2881C61.2195 83.2881 59.6645 80.2321 53.8054 76.8231C49.2906 74.1907 43.9232 71.3163 41.4651 71.0541Z" fill="#686A6A"/>
<path d="M56.5744 73.7772C56.5744 73.7772 55.4608 78.3965 63.9284 84.579C72.396 90.7616 75.5964 93.4948 75.8673 91.4978C76.1382 89.5009 76.7803 86.5457 76.7803 86.5457L56.5744 73.7772Z" fill="#686A6A"/>
<path d="M108.815 112.426C108.815 120.696 126.783 138.185 126.783 138.185C126.783 138.185 129.141 137.257 131.529 135.532C133.555 134.07 134.789 131.306 134.789 127.494C134.789 119.223 128.97 109.138 121.797 104.972C114.624 100.807 108.805 104.145 108.805 112.416L108.815 112.426Z" fill="#606062"/>
<path d="M107.962 113.414C107.962 121.684 113.781 131.77 120.954 135.935C128.128 140.101 133.947 136.762 133.947 128.492C133.947 120.222 128.128 110.136 120.954 105.971C113.781 101.805 107.962 105.144 107.962 113.414Z" fill="#818183"/>
<path d="M106.617 113.928C106.617 122.199 112.436 132.284 119.61 136.45C126.783 140.615 132.602 137.277 132.602 129.007C132.602 120.736 126.783 110.651 119.61 106.485C112.436 102.32 106.617 105.658 106.617 113.928Z" fill="#606062"/>
<path d="M135 111.508C135 111.78 134.779 112.325 134.368 112.92C133.706 113.888 132.542 115.008 131.047 115.29C130.194 115.472 129.221 115.361 128.188 114.796C123.382 112.204 121.095 104.74 118.506 104.065C116.49 103.54 111.794 103.833 109.818 103.994C109.517 104.014 109.276 104.034 109.116 104.054C108.985 104.054 108.915 104.075 108.915 104.075L111.102 94.5134L111.273 93.7771L111.353 93.4241L111.503 92.7786C111.503 92.7786 112.236 91.407 113.951 90.8321C114.363 90.6909 114.834 90.59 115.366 90.58C115.537 90.58 115.707 90.58 115.898 90.58C115.898 90.58 115.918 90.58 115.928 90.58C117.403 90.6808 119.289 91.3566 121.636 93.1216C122.208 93.5452 122.8 94.0494 123.432 94.6142C132.131 102.471 135 111.518 135 111.518V111.508Z" fill="#FFC03B"/>
<path d="M134.368 112.92C133.706 113.888 132.542 115.008 131.047 115.29C130.194 115.472 129.221 115.361 128.188 114.796C127.255 114.634 124.777 112.456 121.747 110.287C120.453 108.311 119.349 106.636 118.185 106.334C116.169 105.809 111.473 106.102 109.497 106.263C108.935 106.304 108.594 106.334 108.594 106.334L109.116 104.044L110.781 96.7726L111.032 95.6834L111.182 95.0379C111.182 95.0379 111.283 94.8563 111.483 94.5941C111.674 94.352 111.965 94.0495 112.346 93.757C112.687 93.4948 113.109 93.2527 113.62 93.0812C114.032 92.94 114.503 92.8392 115.035 92.8291C115.205 92.8291 115.376 92.8291 115.567 92.8291C115.567 92.8291 115.587 92.8291 115.597 92.8291C117.072 92.93 118.958 93.6057 121.305 95.3707C121.877 95.7943 122.469 96.2986 123.101 96.8634C130.194 103.268 133.415 110.479 134.358 112.91L134.368 112.92Z" fill="#FFD54D"/>
<path d="M131.228 114.685C131.228 114.826 131.168 115.038 131.057 115.29C130.204 115.472 129.231 115.361 128.198 114.796C127.265 114.634 124.787 112.456 121.757 110.288C120.372 109.299 118.857 108.321 117.342 107.534C115.807 106.737 114.313 106.697 112.918 107.01C110.651 106.848 107.561 107.06 106.056 107.181C105.494 107.221 105.153 107.252 105.153 107.252L107.34 97.6905L107.591 96.6012L107.741 95.9557C107.741 95.9557 108.102 95.28 108.905 94.6849C109.246 94.4126 109.667 94.1806 110.179 93.9991C110.51 93.8881 110.881 93.8075 111.283 93.7671C111.383 93.7671 111.483 93.7469 111.594 93.7469C111.764 93.7469 111.935 93.7469 112.125 93.7469C112.125 93.7469 112.146 93.7469 112.156 93.7469C112.216 93.7469 112.286 93.747 112.346 93.7671C113.781 93.9083 115.617 94.6042 117.854 96.2886C118.426 96.7122 119.018 97.2164 119.65 97.7812C128.348 105.638 131.218 114.685 131.218 114.685H131.228Z" fill="#FFC03B"/>
<path d="M102.093 105.255C100.989 106.304 98.501 108.381 97.5981 108.765C96.9058 108.26 95.2705 109.481 93.6653 108.593C89.0101 106.031 82.7196 102.068 80.693 101.846C80.3017 101.805 79.3286 99.637 78.8269 99.516C75.486 96.8533 73.9611 94.2512 73.4494 93.2527C73.3089 92.9703 73.2487 92.809 73.2487 92.809C73.2487 92.809 71.4529 88.1897 70.7506 79.1731C70.0383 70.3178 76.1181 70.2371 76.3388 70.2371C76.1381 70.0051 72.8274 66.4953 70.57 63.5906C68.2424 60.5851 49.9929 51.3869 42.649 50.701C40.9234 50.5397 39.278 50.812 37.7731 51.3062C40.1609 49.5714 48.6987 45.749 52.5513 45.9002C64.0989 46.3642 82.2982 52.9804 84.6258 55.986C86.8832 58.9007 84.8064 61.9063 85.0171 62.1383C84.7964 62.1383 84.0941 62.7232 84.8064 71.5684C85.5288 80.5851 87.3146 85.2043 87.3146 85.2043C87.3146 85.2043 87.3146 85.2043 87.3346 85.2043C87.9366 85.7086 103.347 98.4872 105.745 99.4151C106.688 99.7782 100.909 105.366 102.123 105.265L102.093 105.255Z" fill="#C34100"/>
<path d="M45.6889 40.928C45.6889 40.928 46.9029 45.6279 47.4446 46.6264C47.9864 47.6249 50.6049 50.5901 50.6049 50.5901C50.6049 50.5901 49.1803 51.1448 48.2172 50.8019C47.264 50.459 45.1672 48.5125 45.2575 48.8655C45.3478 49.2285 43.883 47.6653 42.4483 45.6683C41.0137 43.6713 33.5995 37.7812 33.6196 36.339C33.6396 34.8967 45.6889 40.9179 45.6889 40.9179V40.928Z" fill="#3F5B72"/>
<path d="M102.093 105.255C100.989 106.304 98.501 108.381 97.5981 108.765C96.9058 108.26 95.2705 109.481 93.6653 108.593C89.0101 106.031 82.7196 102.068 80.693 101.846C80.3017 101.805 79.3286 99.637 78.8269 99.5159C75.486 96.8533 73.9611 94.2512 73.4494 93.2527C73.3089 92.9703 73.2487 92.8089 73.2487 92.8089L87.2945 85.1942C87.2945 85.1942 87.2945 85.1942 87.3146 85.1942C87.9165 85.6985 103.327 98.4771 105.725 99.405C106.668 99.7681 100.889 105.356 102.103 105.255H102.093Z" fill="#618979"/>
<path d="M102.785 71.2255C102.775 71.4676 102.765 71.6995 102.745 71.9416C102.695 72.8594 102.645 73.7772 102.454 74.6748C102.263 75.5725 101.922 76.4297 101.591 77.287C100.819 79.284 100.036 81.281 99.2635 83.278C98.6917 84.7404 98.2502 86.0515 97.3673 87.3425H97.3071C97.0162 87.3425 95.5514 87.2316 93.8158 86.3138C93.6452 86.2432 93.4847 86.1423 93.3242 86.0515C91.9597 85.2447 91.6387 84.2159 91.5985 83.5604C91.5685 83.167 91.6387 82.9048 91.6387 82.9048C91.6387 82.9048 92.4714 82.3803 92.8928 80.6052C93.3041 78.8301 94.1469 76.9139 94.7388 76.1473C95.3407 75.3909 94.7388 73.7974 94.7388 73.7873C94.3977 72.8897 97.4777 72.6476 97.9091 72.4862C98.7218 72.1837 99.5143 71.2961 100.187 70.7515C101.039 70.0757 101.882 69.4 102.735 68.7242C102.835 69.5513 102.825 70.3884 102.785 71.2154V71.2255Z" fill="#003F64"/>
<path d="M82.3584 59.395C82.3384 59.6068 82.3584 59.8085 82.3584 60.0304C82.4387 60.6759 82.6995 61.3113 83.0507 61.9063C83.8332 63.2074 85.0673 64.2966 85.7495 64.8614C86.0605 65.1136 86.2712 65.2548 86.2712 65.2548C86.2712 65.2548 91.5684 71.4777 92.963 72.4862C94.5682 73.6663 96.2838 74.2311 98.2502 73.4746C99.6448 72.9401 100.748 71.8408 101.742 70.7112C102.183 70.2069 102.635 69.6421 102.695 68.9663C102.795 67.867 101.832 66.8584 102.002 65.7591C102.083 65.8599 102.153 65.9507 102.233 66.0515C100.457 62.925 98.6315 59.8286 96.9159 56.6718C95.6618 54.3622 93.2539 51.7298 90.8561 50.57C89.281 49.8135 86.8531 48.9966 86.8531 48.9966C86.8531 48.9966 83.8533 54.2109 82.7497 57.6501C82.539 58.3057 82.3986 58.9008 82.3685 59.3849L82.3584 59.395Z" fill="#045175"/>
<path d="M106.487 63.6007C106.487 63.6007 100.758 63.8932 100.738 64.1151C100.718 64.337 102.574 74.8261 103.206 78.8201C103.838 82.814 105.333 91.4373 103.307 95.0783L101.28 98.7192C101.28 98.7192 95.1301 104.831 96.9761 107.03C98.8221 109.229 106.407 101.836 106.407 101.836C106.407 101.836 115.175 95.0581 114.583 89.7631C113.992 84.4681 106.487 63.6108 106.487 63.6108V63.6007Z" fill="#2B2B2D"/>
<path d="M69.4865 24.2159C69.4865 27.0298 68.8745 38.6486 68.5434 40.1513C68.2224 41.6642 52.2001 50.4892 49.6418 49.0066C47.5951 47.8266 45.5083 38.8906 44.0034 34.8059C43.6121 33.7671 43.271 33.051 42.9701 32.8493C41.4952 31.8407 40.9836 30.2169 40.8532 26.3742C40.7227 22.5316 27.5899 17.1962 27.5899 17.1962C30.379 13.9184 44.1639 6.68688 45.8294 7.64503C45.8294 7.64503 57.4472 13.757 62.3833 16.8432C65.2025 18.6082 67.1087 19.8488 68.2224 21.1095C69.0751 22.0575 69.4764 23.0157 69.4764 24.2159H69.4865Z" fill="#FCFDFF"/>
<path d="M69.4865 24.2159C69.4865 27.0298 68.8745 38.6486 68.5434 40.1514C68.2224 41.6642 54.618 48.7444 49.1903 49.6824C49.1903 49.6824 50.0431 36.7121 48.5382 32.6274L68.2324 21.1095C69.0852 22.0576 69.4865 23.0157 69.4865 24.2159Z" fill="#EAEAEA"/>
<path d="M43.3011 41.1398C43.3011 41.1398 44.5151 45.8397 45.0569 46.8382C45.5986 47.8367 48.2172 50.8019 48.2172 50.8019C48.2172 50.8019 45.6488 50.4792 44.6957 50.1362C43.7426 49.7933 42.7895 48.7142 42.8798 49.0772C42.9701 49.4403 41.5053 47.877 40.0706 45.8801C38.6359 43.8831 31.2218 37.993 31.2418 36.5508C31.2619 35.1085 43.3112 41.1297 43.3112 41.1297L43.3011 41.1398Z" fill="#6A80A7"/>
<path d="M28.6233 17.4584C28.6233 17.4584 38.5657 22.6223 43.5018 25.7085C48.4379 28.7948 50.5949 30.2673 50.5949 33.0812C50.5949 35.8951 49.9729 47.5038 49.6518 49.0166C49.3308 50.5295 47.6052 49.531 45.0368 48.0383C42.4784 46.5557 28.9343 37.6803 27.4695 36.6717C26.0048 35.6631 25.4831 34.0393 25.3526 30.1967C25.2222 26.354 25.0316 24.9118 25.8643 21.6238C26.697 18.3359 26.9478 16.5103 28.6233 17.4584Z" fill="#C8C7C4"/>
<path d="M71.3726 92.0323L57.3168 85.6783C57.3168 85.6783 43.0202 83.9032 36.5792 78.0131C35.4957 77.0247 34.9238 72.6879 36.6494 72.8492C38.365 73.0005 44.6154 76.0363 52.1801 79.8689C59.7447 83.7015 69.6671 87.6954 71.3626 92.0323H71.3726Z" fill="#434545"/>
<path d="M38.1142 74.2411C36.8702 74.11 36.5291 75.7943 37.5323 77.3979C38.365 78.7292 40.4719 79.7882 44.0435 81.0086C45.709 81.5734 47.244 82.1281 48.6185 82.6425C50.334 83.2779 51.5279 80.8674 49.9729 79.8992C49.6819 79.7176 49.3709 79.526 49.0499 79.3445C44.5351 76.7121 40.5823 74.5033 38.1243 74.2411H38.1142Z" fill="#686A6A"/>
<path d="M51.7988 76.2986C51.7988 76.2986 50.6852 80.9178 59.1528 87.1004C67.6204 93.2829 70.8208 96.0162 71.0917 94.0192C71.3626 92.0222 72.0047 89.0671 72.0047 89.0671L51.7988 76.2986Z" fill="#686A6A"/>
<path d="M104.952 114.483C104.952 122.753 110.771 132.839 117.944 137.005C125.118 141.17 130.937 137.832 130.937 129.561C130.937 121.291 125.118 111.205 117.944 107.04C110.771 102.874 104.952 106.213 104.952 114.483Z" fill="#4F4F51"/>
<path d="M105.644 114.897C105.644 122.723 111.152 132.274 117.934 136.208C124.727 140.151 130.224 136.994 130.224 129.158C130.224 121.321 124.716 111.78 117.934 107.847C111.152 103.913 105.644 107.06 105.644 114.897Z" fill="#2B2B2D"/>
<path d="M126.352 127.585C126.352 129.652 125.82 131.266 124.897 132.335C124.797 132.456 124.696 132.567 124.576 132.668C124.165 133.071 123.673 133.384 123.141 133.586C122.971 133.646 122.81 133.697 122.64 133.737C121.195 134.1 119.419 133.767 117.503 132.658C115.597 131.548 113.821 129.814 112.366 127.786C112.186 127.524 111.995 127.262 111.824 126.979C109.888 123.984 108.664 120.464 108.664 117.327C108.664 116.5 108.744 115.744 108.915 115.078C108.955 114.866 109.015 114.665 109.086 114.463C110.179 111.125 113.309 110.035 117.062 111.982C117.212 112.063 117.363 112.153 117.513 112.244C117.653 112.315 117.794 112.406 117.924 112.496C118.165 112.648 118.396 112.809 118.637 112.98C119.128 113.333 119.6 113.727 120.061 114.16C122.329 116.238 124.195 119.123 125.288 122.118C125.489 122.653 125.67 123.187 125.8 123.732C125.86 123.893 125.89 124.044 125.93 124.206C126.001 124.488 126.071 124.761 126.111 125.043C126.282 125.9 126.362 126.768 126.362 127.595L126.352 127.585Z" fill="#606062"/>
<path d="M126.793 127.161C126.793 129.228 126.262 130.842 125.339 131.911C125.238 132.032 125.138 132.143 125.017 132.244C124.606 132.648 124.115 132.96 123.583 133.162C123.422 133.222 123.252 133.273 123.081 133.313C121.636 133.676 119.861 133.343 117.944 132.234C116.038 131.125 114.262 129.39 112.808 127.363C112.627 127.1 112.436 126.838 112.266 126.556C110.32 123.56 109.106 120.04 109.106 116.904C109.106 116.077 109.186 115.32 109.356 114.655C109.397 114.443 109.457 114.241 109.527 114.039C110.621 110.701 113.751 109.612 117.503 111.558C117.653 111.639 117.804 111.73 117.954 111.82C118.095 111.891 118.235 111.982 118.366 112.073C118.607 112.224 118.837 112.385 119.078 112.557C119.57 112.91 120.041 113.303 120.503 113.737C122.77 115.814 124.636 118.699 125.73 121.694C125.93 122.229 126.111 122.764 126.241 123.308C126.302 123.47 126.332 123.621 126.372 123.782C126.442 124.065 126.512 124.337 126.552 124.619C126.713 125.477 126.803 126.344 126.803 127.171L126.793 127.161Z" fill="white"/>
<path d="M120.713 130.903C118.797 129.793 117.021 128.069 115.577 126.021C115.386 125.759 115.205 125.497 115.035 125.214C113.099 122.219 111.865 118.699 111.865 115.552C111.865 114.735 111.955 113.979 112.115 113.313C112.166 113.091 112.226 112.89 112.286 112.698C112.557 111.861 112.958 111.165 113.47 110.63C111.604 110.812 110.169 112.002 109.507 114.039C109.437 114.231 109.376 114.433 109.336 114.655C109.176 115.32 109.086 116.077 109.086 116.894C109.086 120.04 110.32 123.56 112.256 126.556C112.436 126.828 112.617 127.1 112.798 127.363C114.242 129.4 116.018 131.135 117.934 132.244C119.851 133.354 121.626 133.686 123.071 133.323C123.242 133.283 123.412 133.232 123.573 133.172C124.175 132.95 124.706 132.577 125.158 132.093C123.854 132.214 122.329 131.841 120.713 130.903Z" fill="#979790"/>
<path d="M121.697 122.774L125.339 131.921C125.238 132.042 125.138 132.153 125.017 132.254C124.977 132.254 123.623 133.162 123.583 133.172L119.429 123.661L115.597 126.132C115.236 126.485 112.988 127.645 112.818 127.363L117.603 120.232L109.527 114.049C109.567 113.828 111.303 113.202 111.363 113.001L118.346 118.185L119.068 112.557C119.56 112.91 120.031 113.303 120.493 113.737L121.155 119.778L125.72 121.694C125.92 122.229 126.221 123.238 126.362 123.782L121.697 122.774Z" fill="#595B5A"/>
<path d="M115.757 121.261L112.266 126.546C112.446 126.818 112.627 127.09 112.808 127.353L117.944 124.488L123.081 133.313C123.252 133.273 123.422 133.222 123.583 133.162L119.861 123.813L126.542 124.609C126.492 124.337 126.432 124.055 126.362 123.782L119.309 120.817L118.356 112.063C118.215 111.982 118.085 111.891 117.944 111.81C117.794 111.72 117.643 111.639 117.493 111.558L116.5 119.203L109.527 114.029C109.457 114.221 109.397 114.423 109.356 114.645L115.767 121.261H115.757Z" fill="#8B8D8C"/>
<path d="M112.657 117.751C112.657 119.718 113.43 121.916 114.634 123.782C114.744 123.954 114.854 124.125 114.975 124.286C115.878 125.557 116.991 126.636 118.185 127.332C119.379 128.028 120.493 128.23 121.396 128.008C121.506 127.988 121.606 127.948 121.707 127.917C122.931 127.463 123.713 126.142 123.713 124.165C123.713 123.641 123.663 123.106 123.553 122.572C123.523 122.4 123.482 122.229 123.442 122.058C122.75 119.183 120.784 116.228 118.436 114.735C118.356 114.685 118.265 114.624 118.185 114.584C118.095 114.534 117.995 114.473 117.904 114.423C115.557 113.202 113.6 113.888 112.918 115.966C112.878 116.087 112.838 116.218 112.808 116.349C112.707 116.763 112.657 117.237 112.657 117.751Z" fill="#A9ABA9"/>
<path d="M112.156 118.003C112.156 119.97 112.928 122.169 114.132 124.034C114.242 124.206 114.353 124.377 114.473 124.539C115.376 125.809 116.49 126.889 117.684 127.585C118.877 128.281 119.991 128.482 120.894 128.26C121.004 128.24 121.105 128.2 121.205 128.17C122.429 127.716 123.212 126.394 123.212 124.418C123.212 123.893 123.161 123.359 123.051 122.824C123.021 122.653 122.981 122.481 122.941 122.31C122.248 119.435 120.282 116.48 117.934 114.988C117.854 114.937 117.764 114.877 117.684 114.836C117.593 114.786 117.493 114.725 117.403 114.675C115.055 113.454 113.099 114.14 112.416 116.218C112.376 116.339 112.336 116.47 112.306 116.601C112.206 117.015 112.156 117.489 112.156 118.003Z" fill="#D5D6D5"/>
<path d="M109.657 96.8937C109.657 96.8937 113.119 106.485 113.42 106.989C114.313 108.502 116.429 107.464 117.924 113.162C119.209 118.054 121.235 126.465 120.101 126.838C118.968 127.211 116.52 124.569 114.754 118.709C112.988 112.849 108.835 98.9613 108.835 98.9613L109.667 96.9038L109.657 96.8937Z" fill="#434545"/>
<path d="M109.306 99.2839C109.306 99.2839 112.426 107.937 112.697 108.401C113.51 109.773 115.065 107.716 116.409 112.849C117.563 117.267 119.349 124.438 119.329 126.193C119.319 127.272 116.51 123.732 115.516 118.296C114.343 111.881 111.664 115.088 108.544 101.15C108.433 100.656 109.296 99.2839 109.296 99.2839H109.306Z" fill="#616363"/>
<path d="M128.188 114.796C127.255 114.634 124.777 112.456 121.747 110.287C120.362 109.299 118.847 108.321 117.332 107.534C115.797 106.737 114.303 106.697 112.908 107.01C110.53 107.504 108.423 108.956 106.758 109.319C106.306 109.42 105.895 109.45 105.514 109.35C102.925 108.674 102.093 107.363 102.093 107.363L104.691 102.189L106.868 97.8417C106.868 97.8417 107.179 95.5018 108.895 94.6748C109.336 94.4529 109.878 94.342 110.54 94.4025C110.721 94.4025 110.922 94.4529 111.112 94.4933C111.233 94.5235 111.363 94.5538 111.493 94.584C112.647 94.9168 114.062 95.7136 115.828 97.2063C116.078 97.4181 116.339 97.6501 116.61 97.8921C125.308 105.749 128.188 114.786 128.188 114.786V114.796Z" fill="#E57423"/>
<path d="M121.045 109.047C121.998 109.148 122.81 109.44 123.503 109.884C123.884 109.985 124.245 110.116 124.576 110.277C122.63 106.657 118.777 101.039 112.667 98.6788C112.667 98.6788 110.881 102.168 109.617 104.518C110.911 104.428 112.276 104.549 113.65 104.821C115.416 105.174 117.072 105.618 118.576 106.697C119.56 107.403 120.342 108.2 121.065 109.047H121.045Z" fill="#FF8600"/>
<g style="mix-blend-mode:multiply">
<path d="M121.646 93.1115C121.426 93.999 121.055 94.8664 120.422 95.2698C118.898 96.228 117.222 97.2164 115.828 97.2164C114.443 97.2366 113.149 96.2683 112.416 98.1645C112.085 99.0217 111.042 101.483 109.828 104.004C108.845 106.041 107.731 108.089 106.768 109.329C106.317 109.43 105.905 109.46 105.524 109.36C102.935 108.684 102.103 107.373 102.103 107.373L104.701 102.199C106.527 99.6975 108.684 96.7323 110.55 94.4227C110.831 94.0697 111.102 93.7368 111.373 93.4242C112.416 92.1937 113.309 91.2557 113.971 90.822C114.232 90.6506 114.443 90.5598 114.614 90.5598C114.834 90.5598 115.105 90.5598 115.386 90.5598C115.557 90.5598 115.727 90.5598 115.918 90.5598C115.918 90.5598 115.938 90.5598 115.948 90.5598C117.423 90.6607 119.309 91.3364 121.657 93.1014L121.646 93.1115Z" fill="#BE5900"/>
</g>
<path d="M120.603 93.3435C120.603 93.3435 119.369 95.2698 115.828 95.8548C115.797 95.8044 115.446 95.401 115.075 94.5235C114.192 92.4559 112.687 87.635 109.096 79.9093C104.049 69.047 100.748 66.8886 100.377 66.2835C100.317 66.1927 99.9859 65.6481 99.725 65.3253C99.6046 65.0026 99.5244 64.7605 99.5344 64.6798C99.715 62.9955 112.707 60.4136 112.707 60.4136C112.707 60.4136 113.299 60.3934 118.255 71.0439C123.202 81.6844 120.613 93.3435 120.613 93.3435H120.603Z" fill="#FFD54D"/>
<path d="M100.367 109.924C100.367 109.924 103.598 108.452 105.815 106.979C108.032 105.517 109.878 98.6385 111.202 97.3576C112.527 96.0767 113.259 94.3823 113.259 94.3823C113.259 94.3823 109.818 93.3737 107.52 98.2249C105.223 103.076 100.788 109.914 100.788 109.914H100.357L100.367 109.924Z" fill="#4C4C4E"/>
<path d="M115.828 95.8549C115.828 95.8549 115.597 95.7641 115.306 95.6834C115.055 95.6128 114.734 95.5321 114.363 95.4918C113.008 95.3506 111.012 95.6431 109.567 98.0636C107.962 100.726 105.574 105.396 102.514 108.301C100.989 109.753 99.2936 110.751 97.4576 110.852C91.9096 111.135 93.3442 110.177 88.6891 107.615C84.0439 105.053 80.1011 102.491 78.0745 102.279C76.0479 102.068 67.4599 93.3032 67.4599 93.3032C67.4599 93.3032 61.3801 82.8846 60.8985 82.4711C60.4169 82.0576 59.223 80.8776 58.9321 80.9179C58.5809 80.9179 42.6992 75.9759 36.7498 70.0556C30.7803 64.1151 32.0043 65.0329 32.0043 65.0329C32.0043 65.0329 34.1312 52.4358 39.0172 50.812C40.5221 50.3178 42.2477 49.642 43.8931 50.2068C63.8882 57.0954 66.9683 61.7147 69.2959 64.7202C71.5532 67.6249 76.1281 70.0152 76.3288 70.2371C76.1081 70.2371 70.0383 70.3178 70.7406 79.1731C71.4529 88.1897 73.2387 92.809 73.2387 92.809C73.2387 92.809 77.2016 96.0969 81.4856 99.516C85.8097 102.965 90.4448 106.556 91.6788 107.03C93.0433 107.554 94.6284 108.038 96.635 107.201C97.5479 106.818 98.5412 106.162 99.6448 105.124C100.447 104.367 101.31 103.389 102.233 102.158C107.179 95.5321 108.263 91.8206 107.841 89.4403C107.42 87.0702 100.678 70.7817 100.849 69.0974C100.889 68.7343 99.3639 65.6683 99.3438 65.3657C99.3137 64.9724 99.5043 65.0833 99.725 65.3455C99.9959 65.6683 100.317 66.2129 100.377 66.3037C100.758 66.9189 104.049 69.0672 109.096 79.9295C112.697 87.6552 114.022 92.1635 115.075 94.5437C115.456 95.4111 115.797 95.8246 115.828 95.875V95.8549Z" fill="#E18802"/>
<path d="M108.464 99.3445C106.979 101.906 105.072 105.053 102.785 107.211C101.26 108.664 99.5645 109.662 97.7285 109.763C92.1804 110.045 93.6151 109.087 88.9599 106.526C84.3148 103.964 80.3719 101.402 78.3453 101.19C76.3187 100.978 67.7308 92.2139 67.7308 92.2139C67.7308 92.2139 61.6509 81.7954 61.1694 81.3818C60.6878 80.9683 59.4939 79.7883 59.203 79.8286C58.8518 79.8286 42.9701 74.8866 37.0207 68.9663C33.3286 65.2951 32.3856 64.2462 32.205 63.9739C32.0745 64.6294 32.0043 65.0228 32.0043 65.0228C32.0043 65.0228 30.7803 64.105 36.7498 70.0455C42.6992 75.9759 58.5809 80.9078 58.9321 80.9078C59.223 80.8675 60.4269 82.0475 60.8985 82.461C61.3801 82.8745 67.4599 93.2931 67.4599 93.2931C67.4599 93.2931 76.0479 102.058 78.0745 102.269C80.1111 102.481 84.0439 105.043 88.6891 107.605C93.3442 110.167 91.9096 111.125 97.4576 110.842C99.2936 110.741 100.989 109.743 102.514 108.291C105.343 105.608 107.591 101.432 109.186 98.7091C108.965 98.9411 108.714 99.1529 108.464 99.3344V99.3445Z" fill="#A34503"/>
<g style="mix-blend-mode:multiply">
<path d="M56.444 54.8665C56.444 54.8665 54.8287 56.2381 56.765 57.4283C58.7013 58.6184 66.9382 63.9033 68.4029 66.8685C69.8577 69.8337 71.7438 73.041 71.7438 73.041C71.7438 73.041 73.8507 74.0395 74.4226 74.7354C75.0647 75.5321 75.9375 78.8806 75.6064 83.8529C75.3957 87.0601 76.1382 91.0944 76.1382 91.0944C76.1382 91.0944 81.7565 94.9673 82.3484 95.8448C82.9403 96.7223 86.9534 100.666 86.9534 100.666L86.4317 93.7369L79.6095 88.926C79.6095 88.926 79.2082 84.1857 79.3787 82.0374C79.5693 79.6673 79.7198 76.6416 79.7198 76.6416C79.7198 76.6416 80.2917 85.4666 82.0474 88.2502C82.4788 88.926 96.4644 97.6501 96.4644 97.6501L92.0099 90.1262L86.5521 88.4419L84.7663 83.1166C84.7663 83.1166 83.9536 77.166 83.6125 75.1388C82.83 70.459 83.9235 68.9058 83.9235 68.9058L56.454 54.8463L56.444 54.8665Z" fill="#BE5900"/>
</g>
<path d="M100.949 96.4096C100.778 97.6804 100.046 98.6082 98.7418 98.6788C97.0262 98.7595 94.9194 96.7121 94.508 96.1272C94.1067 95.5523 93.6753 93.8074 92.8627 92.7585C92.06 91.6995 88.3981 89.8841 88.7091 88.6839C88.8396 88.1796 88.97 87.6854 89.1205 87.2215C89.1205 87.2013 89.1205 87.1912 89.1205 87.1811C89.3312 86.5457 89.6121 85.9708 90.0334 85.4665C90.5351 84.8513 91.3377 84.5286 91.7791 84.3975C91.9999 84.932 92.4513 85.5472 93.3141 86.0515C93.4747 86.1423 93.6352 86.2331 93.8057 86.3138C95.0598 86.9794 96.1835 87.2114 96.8055 87.2921L96.8858 87.3526C96.8858 87.3526 96.9961 89.3395 97.4576 89.8236C97.9191 90.3077 98.792 92.5669 99.0629 92.7787C99.3237 92.9905 100.768 93.3334 100.959 95.1892C101.009 95.6229 100.999 96.0364 100.939 96.4196L100.949 96.4096Z" fill="#BDBDB9"/>
<path d="M101.21 95.6632C101.16 95.9355 101.059 96.1776 100.939 96.4096C100.568 97.1256 99.9156 97.6098 99.0328 97.6602C97.3172 97.7409 95.2103 95.6834 94.799 95.1085C94.4077 94.5336 93.9663 92.7787 93.1636 91.7298C92.351 90.6809 88.6891 88.8654 89.0101 87.6652C89.0502 87.514 89.0803 87.3728 89.1205 87.2215C89.1205 87.2013 89.1205 87.1912 89.1205 87.1811C89.4014 86.1524 89.7124 85.2043 90.3344 84.4479C90.6856 84.0243 91.1671 83.7419 91.5885 83.5704C91.5885 83.8024 91.6487 84.0949 91.7791 84.4076C91.9999 84.9421 92.4513 85.5573 93.3141 86.0616C93.4747 86.1524 93.6352 86.2431 93.8057 86.3238C95.0598 86.9895 96.1835 87.2215 96.8055 87.3022C97.0463 87.3425 97.2068 87.3425 97.2971 87.3526C97.3874 87.9174 97.5981 88.4721 97.6683 89.2184C97.7687 90.2976 98.7318 90.8221 99.3739 91.6693C100.207 92.7686 101.531 94.1605 101.2 95.6834L101.21 95.6632Z" fill="#3B3B30"/>
<g style="mix-blend-mode:multiply">
<path d="M84.1242 61.2305C83.9135 61.5331 83.7429 61.8861 83.6426 62.2391C83.5122 62.7232 83.7028 62.8543 84.0239 63.2174C84.5456 63.8125 85.1275 64.3571 85.7394 64.8513C86.0505 65.1034 86.2612 65.2446 86.2612 65.2446C86.2612 65.2446 91.5584 71.4675 92.953 72.4761C93.4245 72.819 94.0164 73.293 94.7287 73.7872C94.7287 73.7872 95.3407 75.3808 94.7287 76.1473C94.1268 76.9138 93.2941 78.8301 92.8827 80.6052C92.4714 82.3803 91.6387 82.9047 91.6387 82.9047C91.6387 82.9047 91.1571 84.7605 93.3242 86.0515C93.4847 86.1523 93.6452 86.2431 93.8057 86.3137C94.3676 85.3556 94.6986 84.1856 95.0398 83.167C95.9327 80.4741 96.4744 77.6702 96.645 74.8462C96.6952 74.1302 96.7253 73.4141 96.7253 72.6879C96.7253 72.4559 96.7252 72.2139 96.5948 72.0222C96.4644 71.8104 96.2136 71.6995 95.9828 71.6087C94.2572 70.9027 96.5647 66.1019 94.7588 65.6783C91.3879 64.8916 87.766 64.0041 85.4786 61.17C85.3281 60.9784 85.1576 60.7666 84.9168 60.7262C84.6158 60.6758 84.3549 60.9279 84.1743 61.17C84.1543 61.1902 84.1442 61.2103 84.1242 61.2305Z" fill="#9DC4A7"/>
</g>
<g style="mix-blend-mode:multiply">
<path d="M100.768 68.7242C100.768 68.7242 100.899 69.6722 101.079 70.2875C101.26 70.9027 103.748 70.2875 103.748 70.2875C103.748 70.2875 103.547 69.7025 104.601 69.3091C106.246 68.6939 104.521 69.5109 108.775 68.4014C111.253 67.7559 114.132 65.6077 114.172 65.053C114.212 64.5083 114.142 64.4176 114.313 64.1856C114.483 63.9536 114.744 63.6006 114.744 63.6006L113.64 61.765C113.64 61.765 100.417 63.8225 100.768 68.7141V68.7242Z" fill="#BB3E00"/>
</g>
<path d="M37.9236 67.8771C37.9236 67.8771 40.5622 45.4161 62.9953 66.9189C70.2088 73.8276 67.0686 87.4736 67.0686 87.4736C67.0686 87.4736 65.2125 88.6234 64.43 88.1595C59.1729 85.0531 40.1408 71.397 37.9236 67.8771Z" fill="#FFC03B"/>
<path d="M36.208 68.1997C36.208 68.1997 38.8466 45.7388 61.2797 67.2416C68.4932 74.1503 65.353 87.7963 65.353 87.7963C65.353 87.7963 64.5805 88.2703 64.42 88.1594C57.9589 83.8427 38.2647 71.4776 36.208 68.1997Z" fill="#E18802"/>
<path d="M67.4799 41.2103C62.5138 41.1901 56.4741 43.9536 56.7851 46.0716C57.367 50.0252 60.4771 51.9012 61.8817 53.3334C63.2863 54.7655 73.2487 62.7837 74.2319 64.8008C75.2151 66.818 75.155 73.9688 75.155 73.9688L85.8699 68.0585C85.8699 68.0585 88.1072 63.2981 87.746 59.9294C87.3848 56.5608 86.4317 54.2108 82.4387 52.0626C78.4457 49.9143 76.4993 49.0268 72.9879 45.2345C69.4664 41.4322 67.8211 41.2103 67.4799 41.2103Z" fill="#59595B"/>
<path d="M74.5028 59.5463C74.5028 59.5463 66.567 53.8882 67.4498 51.639C68.2123 49.6723 70.9312 47.0198 76.6799 49.5412C82.4287 52.0626 88.8997 59.8589 88.8997 59.8589L85.8598 68.0586L78.3353 72.2139C78.3353 72.2139 80.2616 63.0763 74.4928 59.5463H74.5028Z" fill="#3E3E40"/>
<path d="M56.7851 46.0817C56.7851 46.0817 56.1931 46.8382 56.3035 50.8321C56.4139 54.8261 55.7116 54.4428 57.1061 55.875C58.5107 57.3072 68.4732 65.3253 69.4564 67.3425C70.4396 69.3596 72.4963 72.8291 72.4963 72.8291L75.1549 73.989C75.1549 73.989 77.3922 69.2285 77.0311 65.8599C76.6699 62.4912 75.7168 60.1413 71.7238 57.993C67.7307 55.8447 65.7844 54.9572 62.273 51.165C58.7515 47.3626 56.9255 45.7792 56.7851 46.0918V46.0817Z" fill="#2B2B2D"/>
<path d="M92.05 98.9209C92.2306 99.4353 92.4814 99.5765 92.3109 100.131C92.1804 100.565 92.0099 101.059 91.5985 101.291C91.0768 101.584 90.4548 101.634 89.8729 101.725C88.4182 101.937 86.843 100.857 86.0705 99.6975C85.599 99.0117 84.997 98.4368 84.5656 97.7207C84.1442 97.0349 83.773 96.2784 83.2513 95.6834C82.6293 94.9774 82.0976 94.1907 81.4053 93.5654C80.9639 93.162 79.9606 92.3652 80.2014 91.6491C80.5826 90.4691 80.9538 89.3495 81.7364 88.5225C82.5189 87.6955 83.8834 87.4938 83.8834 87.4938L88.4483 90.8321C88.4483 90.8321 88.4382 92.819 88.8696 93.3334C89.301 93.8478 90.0234 96.1675 90.2742 96.3894C90.5852 96.6617 90.9865 96.8029 91.2775 97.1055C91.5183 97.3475 91.7089 97.64 91.8293 97.9628C91.9396 98.2653 91.9396 98.5982 92.05 98.9007V98.9209Z" fill="#BDBDB9"/>
<path d="M90.3645 95.3103C91.2875 96.7021 93.8459 100.061 90.826 100.605C90.1338 100.726 89.3913 100.676 88.7192 100.454C87.5253 100.051 86.6023 99.0521 85.9501 98.0032C85.7495 97.6905 85.599 97.3476 85.3883 97.0349C85.0271 96.4903 84.5255 96.0465 84.074 95.5725C83.2714 94.7253 82.6995 93.7369 82.0073 92.809C81.5959 92.2644 80.2817 91.508 80.5626 90.6507C80.9438 89.4706 81.315 88.3511 82.0976 87.5241C82.8801 86.6971 84.2446 86.4954 84.2446 86.4954L88.8094 89.8337C88.8094 89.8337 88.7994 91.8206 89.2208 92.335C89.913 93.162 89.7525 94.4026 90.3445 95.2901L90.3645 95.3103Z" fill="#3B3B30"/>
<path d="M84.7863 89.3597C84.9469 89.4606 85.1074 89.5513 85.2679 89.6219C87.2143 90.6507 88.8195 90.6507 88.8195 90.6507C88.8195 90.6507 92.9931 83.1065 94.1067 80.4943C96.1935 75.633 96.7554 71.0944 96.7554 71.0944C95.4712 71.2054 94.187 71.3567 92.9028 71.518C92.1303 71.6189 91.2775 71.9013 90.515 71.9114C89.7224 71.9114 88.7693 71.4273 88.1172 71.0238C87.9165 70.9028 87.7259 70.7616 87.5052 70.7011C87.2845 70.6305 87.0136 70.6507 86.8531 70.812C86.7026 70.9532 86.6524 71.1751 86.6123 71.3869C86.201 73.636 85.4385 75.7137 84.9168 77.9225C84.5355 79.5665 84.5155 81.2709 84.1342 82.9048C83.9938 83.51 83.9536 84.1857 83.7429 84.7606C83.4921 85.4565 83.0206 85.9507 83.0406 86.7273C83.0808 87.8771 83.8132 88.7848 84.7763 89.3597H84.7863Z" fill="#196482"/>
<path d="M72.4963 56.4398C72.9478 57.6098 73.6199 58.6789 74.5028 59.5563C75.2352 60.2724 76.2585 61.5029 77.0712 62.1585C78.8871 63.6209 80.7733 65.9003 82.5791 67.3627C84.686 69.0571 86.231 71.3264 87.9266 73.4343C87.8965 73.3637 87.8563 73.283 87.8262 73.2124C88.2677 73.7469 88.6489 74.5538 89.1506 75.0077C89.7224 75.5321 90.826 75.3909 91.5383 75.3909C94.2271 75.3909 95.7922 73.9487 96.4544 72.2139C96.5948 71.8609 96.6851 71.4777 96.7554 71.1146C96.8256 70.6809 96.8456 70.2472 96.8155 69.8337C96.645 67.2921 94.0365 63.4595 88.8195 57.3476C87.0838 55.3102 84.4553 51.6088 81.7966 50.3279C80.2215 49.5715 77.7935 48.7545 77.7935 48.7545C77.7935 48.7545 73.3691 49.0067 72.2655 52.4459C71.9345 53.5049 71.9044 54.2311 72.1351 55.2901C72.2154 55.6733 72.3358 56.0566 72.4862 56.4499L72.4963 56.4398Z" fill="#1C688A"/>
<path d="M101.069 20.9178C101.069 20.9178 103.026 22.9047 103.808 23.7721C104.019 24.0041 104.23 24.2361 104.43 24.468C104.982 25.0933 105.434 25.7287 105.474 26.4146C105.524 27.3525 105.243 29.763 103.006 30.7817C100.768 31.8003 98.8121 30.9935 98.8121 30.9935L101.069 20.9178Z" fill="#DA3F3C"/>
<path d="M98.8121 30.9935L100.457 23.6511C100.598 23.6007 100.728 23.5603 100.879 23.5402C101.049 24.7101 101.22 25.88 101.39 27.0399C101.481 27.635 101.571 28.2401 101.742 28.815C101.862 29.1882 102.012 29.5513 102.243 29.874C102.464 30.1867 102.755 30.5094 103.086 30.7313C103.056 30.7414 103.036 30.7716 102.996 30.7817C100.758 31.8004 98.802 30.9935 98.802 30.9935H98.8121Z" fill="#A8020B"/>
<path d="M95.4511 17.8014L101.069 20.9179C101.069 20.9179 103.287 22.2391 99.9257 30.7918C96.5647 39.3344 94.1067 49.985 94.1067 49.985C94.1067 49.985 90.8963 54.342 81.9772 55.0077C73.0581 55.6733 74.9643 51.1549 74.9643 51.1549L73.7905 26.2734C73.7905 26.2734 77.4825 23.2275 80.7532 21.866C84.0239 20.5044 92.4614 14.2311 95.4511 17.8014Z" fill="#BE1513"/>
<path d="M77.8537 34.8261C78.245 35.875 78.9373 36.813 79.2282 37.9022C79.7098 39.7177 79.5693 44.0142 79.0777 45.8296C78.0845 49.4907 77.944 53.3031 77.6129 57.0853C73.2989 56.2381 71.6535 52.1634 71.6535 52.1634L73.7905 26.2633C73.7905 26.2633 77.4825 23.2174 80.7532 21.8558C84.0238 20.4943 92.4613 14.2209 95.4511 17.7913L101.069 20.9078C101.069 20.9078 101.14 20.9582 101.24 21.0691C99.414 20.9582 97.5981 20.7968 95.7621 20.8573C90.816 21.0187 85.9 22.0979 81.3351 24.0142C79.9004 24.6193 78.6062 25.4968 77.2618 26.2835C76.9408 26.4751 76.6197 26.6667 76.389 26.9592C76.1181 27.292 76.0077 27.7257 75.9375 28.1493C75.486 30.8019 77.001 32.5265 77.8537 34.816V34.8261Z" fill="#900000"/>
<path d="M76.8906 51.8911C77.9541 51.4473 78.7968 50.6304 78.9373 50.9229C78.9373 50.9229 78.1648 52.2037 77.7635 52.94C77.4023 52.6475 77.0913 52.2945 76.9006 51.8911H76.8906Z" fill="#F2BC85"/>
<path d="M77.5126 53.4544C77.5126 53.4544 77.5929 53.2225 77.7534 52.9401C78.6965 53.757 79.9104 54.2209 79.77 54.3117C79.5994 54.4327 78.4156 54.3823 77.2217 54.2411C76.098 54.0898 77.8236 53.7671 77.5126 53.4645V53.4544Z" fill="#F2BC85"/>
<path d="M79.9004 48.7443C79.9004 48.9864 79.9004 49.1679 79.8402 49.2991C79.4489 50.3984 77.021 49.4302 76.7201 50.4589C76.5595 50.9834 76.6498 51.4675 76.8806 51.8911C76.3288 52.1331 75.7067 52.2643 75.0847 52.0827C74.5329 51.9314 73.9811 51.5482 73.4795 50.7716C73.028 50.0757 72.6167 49.1074 72.2756 47.7358C71.6435 45.174 71.3726 40.8775 72.0248 37.1256C72.1351 36.4397 72.2856 35.7741 72.4662 35.1488C73.1986 32.5467 78.7968 39.1831 78.7968 39.1831C78.7968 39.1831 78.9473 39.4453 78.9975 39.9798C79.0376 40.4236 79.0175 41.0489 78.7968 41.876C78.7768 41.9466 78.7768 42.0575 78.7968 42.2088C78.8671 43.4191 79.8202 46.9491 79.9004 48.6031C79.9004 48.6031 79.9004 48.6637 79.9004 48.7544V48.7443Z" fill="#F2BC85"/>
<path d="M35.275 68.5629C35.275 68.5629 37.9136 46.1019 60.3467 67.6047C67.5602 74.5134 64.42 88.1594 64.42 88.1594C64.42 88.1594 37.8132 72.6072 35.275 68.5629Z" fill="#E17200"/>
<path d="M111.313 61.8054C111.283 61.3818 111.313 60.9481 111.413 60.5245C111.453 59.7176 111.684 58.9612 112.125 58.2753C112.537 57.7206 112.938 57.1357 113.43 56.6314C113.5 56.5608 113.55 56.4902 113.62 56.4297C113.961 55.9455 114.323 55.4715 114.744 55.058C115.406 54.3923 116.189 53.9385 117.021 53.6561C116.991 52.1937 117.001 51.1649 117.001 51.1649L115.356 49.8033C115.356 49.8033 115.326 49.7731 115.306 49.763C113.259 48.0888 110.33 48.0484 108.102 49.4705C104.952 51.4776 99.4642 54.3016 98.4107 54.8059C98.4107 54.8059 97.4175 57.055 98.1098 59.4856C98.802 61.9163 100.738 66.2733 100.738 66.2733L102.113 66.4145C103.487 66.5557 106.577 66.1523 106.577 66.1523L106.377 65.5068C106.256 65.1236 108.955 63.2375 111.313 61.8154V61.8054Z" fill="#FFD54D"/>
<path d="M113.761 63.2275L109.096 65.5472C108.474 65.9103 107.821 66.1927 107.169 66.3843L106.367 66.5154C106.367 66.5154 106.106 66.5154 105.775 66.6163C105.715 66.6163 105.654 66.6163 105.604 66.6163H105.544C104.822 66.5255 104.149 66.112 104.079 64.8815C103.929 62.1483 104.721 58.3056 104.721 58.3056L116.981 51.1448L117.503 55.6531C117.864 58.7091 116.389 61.6844 113.741 63.2275H113.761Z" fill="#E5EBEB"/>
<path d="M114.884 61.1499C114.443 61.6541 113.911 62.0878 113.299 62.4307L108.694 64.7101C108.082 65.0631 107.52 65.3153 106.979 65.4666L106.407 65.5573H106.347C106.226 65.5573 106.056 65.5775 105.634 65.6884C105.323 65.638 105.062 65.517 105.022 64.8311C104.972 64.0747 105.022 63.2174 105.093 62.4005C105.093 62.3198 105.093 62.229 105.113 62.1483C105.243 60.7767 105.454 59.516 105.574 58.8906L112.115 55.0682L116.259 52.6476L116.63 55.754C116.861 57.751 116.209 59.7076 114.905 61.1398L114.884 61.1499Z" fill="#BBDDBD"/>
<path d="M112.105 55.0782C111.915 57.2467 110.691 59.2134 108.775 60.3329L105.103 62.1584C105.233 60.7868 105.444 59.5261 105.564 58.9007L112.105 55.0782Z" fill="#CFE7D1"/>
<g style="mix-blend-mode:multiply">
<path d="M114.884 61.1499C113.339 60.0606 111.985 59.2034 111.684 59.1832C110.962 59.1328 105.825 62.0072 105.082 62.4106C105.082 62.3299 105.082 62.2392 105.103 62.1585C105.233 60.7868 105.444 59.5261 105.564 58.9008L112.105 55.0783L116.249 52.6577L116.62 55.7641C116.851 57.7611 116.199 59.7177 114.894 61.1499H114.884Z" fill="#84B3D9"/>
</g>
<path d="M105.554 66.6264C104.21 66.6063 103.036 66.0011 102.394 64.5185C102.193 64.0546 102.354 62.4913 102.414 62.1685C102.695 60.575 104.741 58.3158 104.741 58.3158C104.741 58.3158 103.949 62.1585 104.099 64.8917C104.159 66.1221 104.832 66.5357 105.564 66.6264H105.554Z" fill="#C5E2C7"/>
<path d="M107.179 66.3843C106.708 66.5255 106.236 66.6062 105.795 66.6162C106.126 66.5255 106.357 66.4751 106.387 66.5053L107.189 66.3843H107.179Z" fill="#C5E2C7"/>
<path d="M105.614 66.6264C105.614 66.6264 105.684 66.6264 105.725 66.6264C104.741 66.8987 102.915 67.4635 102.354 67.3526C101.541 67.1912 101.4 67.3828 101.601 68.0182C101.812 68.6536 99.5745 69.0066 99.5745 69.0066C99.5745 69.0066 98.7117 69.0672 97.3372 68.9159L95.9628 68.7747C95.9628 68.7747 95.7019 65.8902 95.0197 63.4595C94.3375 61.0288 96.0631 60.575 95.7621 58.9007C95.3407 56.5003 97.1165 55.6632 98.4107 54.7858C98.4107 54.7858 101.451 55.5825 103.096 56.9542L104.731 58.3158C104.731 58.3158 103.939 62.1584 104.089 64.8917C104.149 66.1221 104.822 66.5356 105.554 66.6264H105.614Z" fill="#E18802"/>
<path d="M107.36 66.3541C107.199 66.4146 106.457 66.6769 105.735 66.6365C105.755 66.6365 105.775 66.6365 105.795 66.6164C106.126 66.5256 106.357 66.4752 106.387 66.5054L107.189 66.3844L107.37 66.3541H107.36Z" fill="#6AB1A7"/>
<path d="M99.5745 69.0066L102.344 67.3525C102.344 67.3525 106.156 63.6006 97.4978 58.8099C95.4712 57.6904 93.7455 61.3616 93.7455 61.3616L99.5745 69.0167V69.0066Z" fill="#DB5100"/>
<path d="M93.7455 61.3617C93.7455 61.3617 94.6786 61.0591 95.8925 62.3602C97.1065 63.6612 99.5244 67.1206 99.8053 68.0183C100.086 68.9159 98.782 70.7111 95.6217 69.1781C92.4614 67.6451 91.5283 66.1221 91.0167 64.6194C90.505 63.1166 91.0869 62.1786 93.7455 61.3718V61.3617Z" fill="#86A49D"/>
<path d="M92.2206 62.1483C92.2206 62.1483 93.1536 61.8457 94.3676 63.1468C95.5815 64.4478 98.5412 67.7257 98.8221 68.6233C99.103 69.521 98.4208 70.6405 95.2605 69.1074C92.1002 67.5744 91.6788 67.6753 91.1671 66.1725C90.6555 64.6697 89.5519 62.9753 92.2206 62.1584V62.1483Z" fill="#BFCFB8"/>
<path d="M91.0166 64.6092C91.0166 65.3253 91.4681 66.1725 92.03 66.4952C92.5918 66.818 93.0433 66.4952 93.0433 65.7892C93.0433 65.0832 92.5918 64.2259 92.03 63.9032C91.4681 63.5804 91.0166 63.9032 91.0166 64.6092Z" fill="#2B2B2D"/>
<path d="M84.997 69.8134L92.8125 66.465L91.2474 63.9335L84.064 66.9693L84.997 69.8134Z" fill="#2B2B2D"/>
<path d="M92.0901 68.1796C92.0901 68.1796 92.05 69.3395 91.9096 69.7429C91.7691 70.1463 91.1571 70.9128 90.6755 70.0253C90.204 69.1378 90.7658 68.5023 91.2775 67.9375C91.7892 67.3828 92.0901 68.1695 92.0901 68.1695V68.1796Z" fill="#E09C63"/>
<path d="M92.8627 68.1493C92.6319 68.7746 92.2105 68.9259 91.9597 68.9259H91.7089C91.7089 68.9259 90.8762 68.9561 90.8762 68.8049C90.8762 68.7242 90.8762 68.6838 90.8762 68.6536C90.8762 68.7645 90.8561 69.3797 90.3645 69.5109C89.8127 69.642 89.2108 69.7428 89.0101 69.531L88.8095 69.3091C88.8095 69.3091 88.8496 69.7327 88.3881 69.7126C87.9366 69.6924 87.5052 69.9143 87.3948 69.5714C87.2845 69.2184 87.2042 69.0671 87.2042 69.0671C87.2042 69.0671 87.2042 69.5209 86.6424 69.6117C86.3715 69.6521 86.1307 69.6117 85.92 69.5613C85.8598 69.5411 85.7996 69.5109 85.7595 69.5008C85.6793 69.4604 85.609 69.4302 85.5689 69.3697C85.5689 69.3697 85.4886 69.2789 85.4686 69.2184C85.4184 69.0469 85.2378 68.3611 85.1375 67.9778C85.0873 67.8165 85.0673 67.7055 85.0673 67.7055C85.0673 67.7055 85.0171 67.6753 84.9268 67.6147C84.7562 67.4836 84.4252 67.2214 84.064 66.8281C83.5323 66.2128 82.3484 63.8124 82.1277 63.6107C81.917 63.3989 80.8335 61.6541 78.8971 59.8084C77.011 58.0333 73.8206 51.5179 73.7102 51.2859C73.63 51.1044 73.5798 50.9834 73.5497 50.9229L73.4996 50.822C73.4996 50.822 73.4996 50.7817 73.4996 50.7413C73.5196 50.5699 73.5597 50.2471 73.63 50.1059C73.7604 49.8336 73.7704 49.763 73.8808 49.6016C73.9611 49.4907 74.1015 49.3293 74.3724 49.0267C74.4326 48.9561 74.5028 48.8755 74.563 48.8149C75.8171 47.5038 78.3855 46.9793 79.9205 48.5729C79.9205 48.5729 79.9205 48.6334 79.9205 48.7242C79.9706 49.3898 80.2817 52.1836 81.8769 54.3117C83.9336 57.055 85.5388 60.8472 86.2511 61.17C86.9735 61.4826 88.5687 62.7837 89.8629 63.2577C91.1571 63.7217 91.418 63.7721 92.0199 65.1034C92.6118 66.4549 93.0934 67.5038 92.8627 68.119V68.1493Z" fill="#F9C48E"/>
<path d="M85.0673 67.5543C85.0673 67.5543 85.0071 67.6048 84.8967 67.635C84.7261 67.5039 84.3951 67.2417 84.0339 66.8483C83.5022 66.2331 82.3183 63.8327 82.0976 63.631C81.8869 63.4192 80.8034 61.6743 78.867 59.8287C76.9809 58.0536 73.7905 51.5382 73.6801 51.3062C73.5999 51.1247 73.5497 51.0036 73.5196 50.9431L73.4695 50.8423C73.4695 50.8423 73.4695 50.8019 73.4695 50.7616C73.018 50.0657 72.6066 49.0974 72.2655 47.7258C71.6335 45.164 71.3626 40.8675 72.0147 37.1156C72.3859 37.1559 72.7872 37.2064 73.2387 37.2871C76.0278 37.7611 77.9541 39.0722 78.9874 39.9699C79.0276 40.4136 79.0075 41.0389 78.7868 41.866C78.7667 41.9366 78.7667 42.0475 78.7868 42.1988C78.3453 42.3299 77.7334 42.3904 76.9107 42.3501C73.5196 42.1786 72.5063 41.3415 72.5063 41.3415C72.5063 41.3415 72.0649 44.4984 72.6969 46.4146C73.329 48.3309 73.8607 49.6118 73.8607 49.6118C73.8607 49.6118 74.4226 50.7313 75.0947 52.0727C75.7067 53.3234 76.4492 54.7555 76.8204 55.6935C78.1648 59.0319 79.6496 59.7581 80.4823 60.9583C81.305 62.1484 82.9303 64.2765 83.4018 65.275C83.8834 66.2734 85.0974 67.3627 85.0673 67.5442V67.5543Z" fill="#E09C63"/>
<path d="M84.0439 66.9693L84.997 66.6667C84.997 66.6667 85.7896 67.1307 85.92 67.8367C86.0906 68.8049 85.7194 69.521 85.7194 69.521L85.1676 69.7731L84.054 66.9693H84.0439Z" fill="#2B2B2D"/>
<path d="M70.1185 39.1327C70.1185 39.1327 71.7539 40.9481 74.1918 41.5633C76.6298 42.1786 79.5192 41.8054 79.5192 41.8054C79.5192 41.8054 79.7399 38.1846 79.77 37.3173C79.8603 35.0782 79.7299 32.7686 79.0677 30.7615C78.5259 29.1276 77.4223 27.3929 75.9676 26.5558C74.0313 25.4464 72.9277 26.4146 72.3759 28.5023C71.5331 31.6894 70.9312 35.9355 70.1185 39.1327Z" fill="#DA3F3C"/>
<path d="M70.1185 39.1327C70.9412 35.9355 71.5432 31.6894 72.3759 28.5023C72.9277 26.4146 74.0313 25.4464 75.9676 26.5558C76.0579 26.6062 76.1382 26.6667 76.2184 26.7272C74.3724 30.0152 73.1484 33.5855 73.2487 37.2971C73.2788 38.6788 73.4193 40.0101 73.5597 41.3515C71.4328 40.464 70.1085 39.1327 70.1085 39.1327H70.1185Z" fill="#A8020B"/>
<path d="M83.5523 67.7963C83.5523 68.5124 84.0038 69.3596 84.5656 69.6823C85.1274 70.0051 85.5789 69.6824 85.5789 68.9764C85.5789 68.2703 85.1274 67.4131 84.5656 67.0903C84.0038 66.7676 83.5523 67.0903 83.5523 67.7963Z" fill="#161618"/>
<path d="M82.9604 20.6355C82.9604 20.6355 83.5022 22.0676 85.1375 23.641C85.9301 24.4075 86.9835 25.2043 88.368 25.8901C91.6688 27.524 92.7523 24.811 93.0733 23.4998C93.1636 23.1367 93.1837 22.8846 93.1837 22.8543C93.1837 22.814 93.1837 22.5417 93.1135 22.0979C92.9429 20.7363 92.2808 17.7207 89.8428 14.3823C86.6123 9.94459 83.5323 10.8624 83.5323 10.8624C83.5624 10.8624 83.7429 11.3263 83.9737 12.0223C84.4954 13.5855 85.2579 16.3087 84.8465 17.287C84.2646 18.6788 82.9704 20.6254 82.9704 20.6254L82.9604 20.6355Z" fill="#E2A46F"/>
<path d="M82.9604 20.6354C82.9604 20.6354 83.5022 22.0676 85.1375 23.641C85.7896 22.4408 86.7528 20.9481 86.7528 20.9481C86.7528 20.9481 89.3011 23.4594 91.1972 23.7418C92.0701 23.8729 92.672 23.7116 93.0633 23.4998C93.1536 23.1367 93.1737 22.8845 93.1737 22.8543C93.1737 22.8139 93.1737 22.5416 93.1035 22.0979C91.6387 20.1513 87.8062 15.2295 84.5556 12.4962C84.3449 12.3147 84.1443 12.1634 83.9536 12.0222C84.4753 13.5855 85.2378 16.3087 84.8265 17.287C84.2446 18.6788 82.9504 20.6253 82.9504 20.6253L82.9604 20.6354Z" fill="#C4734E"/>
<path d="M91.9397 20.6355C91.9397 20.6355 93.7255 23.762 92.2105 25.2951C90.9364 26.586 90.4949 26.3238 90.4949 26.3238L91.4481 28.4721C91.4481 28.4721 93.7756 27.7459 93.9061 25.3253C94.0365 22.9047 92.9128 20.9784 92.9128 20.9784L91.9296 20.6254L91.9397 20.6355Z" fill="#FFD15B"/>
<path d="M82.6795 20.0707C82.6795 20.0707 84.0941 23.1468 86.1709 24.4882C88.2476 25.8296 89.9532 26.3642 90.2241 26.344L90.4949 26.3238V28.694C90.4949 28.694 87.8965 28.9663 84.6559 26.1625C81.4153 23.3687 80.8034 21.0793 80.8034 21.0793L82.6795 20.0707Z" fill="#FFD15B"/>
<path d="M84.9268 15.9556C85.1375 17.1962 87.756 19.9798 89.6823 21.7549C89.7124 21.7751 89.7224 21.7953 89.7525 21.8053C91.6688 23.53 94.3074 23.641 94.8592 23.6309C95.421 23.6309 96.4343 22.935 96.5647 22.5517C96.6952 22.1583 96.7152 20.7564 96.7152 20.7564C96.7152 20.7564 96.9359 20.6354 97.0262 20.474C97.1165 20.3227 97.0262 20.0807 97.0262 20.0807L97.1767 19.8285L97.5981 18.0837C97.5981 18.0837 98.2904 17.9728 98.3706 17.5088C98.4509 17.055 98.0797 16.3893 98.0797 16.3893C98.0797 16.3893 98.17 16.0061 98.2904 14.3722C98.3205 14.0091 98.3606 13.5552 98.3907 13.0812C98.5211 11.417 98.6616 9.3999 98.6616 9.3999C98.6616 9.3999 86.9735 9.79325 85.3482 9.94453C83.7128 10.0857 84.7161 14.7151 84.9168 15.9657L84.9268 15.9556Z" fill="#F9C48E"/>
<path d="M84.9268 15.9557C85.1375 17.1962 87.756 19.9799 89.6823 21.755C89.7124 21.7752 89.7224 21.7953 89.7525 21.8054C89.2208 20.7666 88.7894 19.7076 88.5787 19.1529C88.1473 18.0132 87.9165 14.6849 88.3981 14.463C88.8797 14.2411 90.3645 12.5669 90.7458 12.2845C91.127 12.0021 93.1135 12.8493 95.1501 13.5452C97.1968 14.2411 98.4007 13.0712 98.4007 13.0712C98.5311 11.407 98.6716 9.38989 98.6716 9.38989C98.6716 9.38989 86.9835 9.78324 85.3582 9.93452C83.7229 10.0757 84.7261 14.7051 84.9268 15.9557Z" fill="#EAA671"/>
<path d="M83.0908 11.7499C83.0908 11.7499 84.0941 13.7671 84.4352 14.4227C84.7763 15.0682 84.9268 15.9557 84.9268 15.9557C84.9268 15.9557 84.3148 11.3566 86.1508 11.7499C87.9968 12.1433 87.6156 12.2643 87.6557 13.0712C87.6958 13.8881 87.6557 14.3319 87.6557 14.3319L88.6289 13.8377C88.6289 13.8377 89.5418 11.7298 91.0668 11.4575C92.5918 11.1851 97.7987 9.63194 95.2304 8.19977C92.662 6.76759 82.8099 8.30063 83.0808 11.7499H83.0908Z" fill="#89310B"/>
<path d="M83.2313 12.3954C83.2313 12.3954 85.2077 12.0525 89.9231 10.7817C92.8526 9.99502 95.8524 8.97636 97.6784 8.32079C98.782 7.92744 99.4642 7.66522 99.4642 7.66522C99.4642 7.66522 99.0428 5.35558 96.3641 2.04746C93.6853 -1.26066 88.5486 0.433747 88.5486 0.433747C88.5486 0.433747 86.0605 0.958205 83.8433 3.62084C81.626 6.28347 83.2212 12.3954 83.2212 12.3954H83.2313Z" fill="#BE1513"/>
<path d="M86.5822 1.65417C86.5822 1.65417 86.1708 3.48978 86.8731 6.07172C87.2945 7.61484 88.7693 10.7112 88.7693 10.7112C88.7693 10.7112 83.5924 12.3551 83.3717 12.0828C83.161 11.8206 81.1144 4.42775 86.5822 1.65417Z" fill="#CF3B39"/>
<path d="M88.5586 0.433747C88.5586 0.433747 93.6853 0.272376 95.3106 3.04595C96.1835 4.53864 97.0664 6.66673 97.6884 8.32079C98.792 7.92744 99.4742 7.66522 99.4742 7.66522C99.4742 7.66522 99.0528 5.35558 96.3741 2.04746C93.6954 -1.26066 88.5586 0.433747 88.5586 0.433747Z" fill="#AB0000"/>
<path d="M87.1942 12.3349C87.1942 12.3349 86.7628 11.407 85.8498 11.2658C84.9368 11.1246 84.7261 12.1533 84.8566 13.0509C84.987 13.9486 85.5288 15.3606 85.6793 15.7237C85.8297 16.0867 86.1006 16.7927 86.4618 16.6213C86.833 16.4498 87.2042 16.2985 87.2644 15.3202C87.3246 14.3419 87.2644 12.4559 87.1842 12.3248L87.1942 12.3349Z" fill="#F9C794"/>
<path d="M105.273 9.95469C105.273 9.95469 105.233 11.0339 104.24 10.7918C103.247 10.5497 101.431 9.95469 101.431 9.95469C101.431 9.95469 102.354 8.82509 102.986 9.07723C103.618 9.32937 104.671 9.20834 105.273 9.95469Z" fill="#941919"/>
<path d="M99.4742 7.66519L104.711 9.41002L105.163 9.67225L105.273 9.95465C105.273 9.95465 104.28 8.7141 102.374 10.227C100.457 11.7297 98.5612 13.3233 96.023 13.051C93.4847 12.7787 89.9231 10.7918 89.9231 10.7918C89.9231 10.7918 96.9861 7.21133 99.4742 7.67527V7.66519Z" fill="#DA3F3C"/>
<path d="M96.8256 8.13929C96.8256 8.13929 98.4509 8.60323 98.9826 8.80495C99.6949 9.07726 101.762 10.0455 101.762 10.0455C101.762 10.0455 99.3237 12.4661 96.7353 12.7787C94.1468 13.0914 90.2943 10.6406 90.2943 10.6406C90.2943 10.6406 95.8223 7.988 96.8256 8.13929Z" fill="#FF655C"/>
<path d="M91.1872 65.991C91.1872 65.991 90.9063 66.586 90.9163 66.9289C90.9163 67.2719 90.7859 68.9259 90.7859 68.9259C90.7859 68.9259 90.7759 67.171 90.7157 66.939C90.6555 66.7071 90.3545 66.1826 90.3545 66.1826C90.3545 66.1826 90.816 66.818 91.1872 65.991Z" fill="#E09C63"/>
<path d="M89.1506 66.9188C89.1506 66.9188 88.8797 67.998 88.8997 68.2199C88.9198 68.4418 88.7794 69.3092 88.7794 69.3092L88.679 69.1478C88.679 69.1478 88.8496 67.8265 88.8396 67.5341C88.8295 67.2416 88.6991 67.0399 88.6991 67.0399C88.6991 67.0399 88.9298 67.3323 89.1506 66.9188Z" fill="#E09C63"/>
<path d="M87.2744 67.2517C87.2744 67.2517 87.1541 67.9476 87.1541 68.0787C87.1541 68.1998 87.1942 69.0974 87.1942 69.0974L87.0939 68.694C87.0939 68.694 87.0638 67.7963 87.0136 67.5543L86.9634 67.3122C86.9634 67.3122 87.0537 67.4635 87.2644 67.2618L87.2744 67.2517Z" fill="#E09C63"/>
<path d="M96.0531 50.0758C96.0531 52.1433 94.7789 54.2311 93.2138 54.7454C91.6487 55.2598 90.3746 54.0092 90.3746 51.9416C90.3746 49.874 91.6487 47.7863 93.2138 47.2719C94.7789 46.7575 96.0531 48.0082 96.0531 50.0758Z" fill="#BFCFB8"/>
<path d="M95.3106 50.6506C95.3106 52.3249 94.2873 54.0193 93.0132 54.4328C91.749 54.8463 90.7157 53.8377 90.7157 52.1635C90.7157 50.4893 91.739 48.7949 93.0132 48.3813C94.2773 47.9678 95.3106 48.9764 95.3106 50.6506Z" fill="#CDDAC9"/>
<path d="M94.1067 52.2744C94.6585 54.0999 98.6917 61.7247 98.6917 61.7247L98.5211 62.461L97.7586 62.2391C97.7586 62.2391 93.4345 52.5971 93.2038 51.8205C93.2038 51.8205 92.8928 51.2154 93.0132 51.054C93.1937 50.7918 93.6352 50.7212 94.1067 52.2643V52.2744Z" fill="#D8E2D4"/>
<path d="M52.2704 62.1282C52.2704 62.1282 46.4213 58.4066 42.7995 59.3143C39.1777 60.222 38.1544 62.9048 38.1544 62.9048C38.1544 62.9048 43.8529 67.3425 49.3609 70.6708C54.8688 73.9991 63.3364 77.398 63.3364 77.398C63.3364 77.398 63.1057 71.4777 59.7347 68.2502C56.3637 65.0228 52.2603 62.1383 52.2603 62.1383L52.2704 62.1282Z" fill="#E79036"/>
<path d="M114.744 65.5472C114.744 65.5472 112.768 67.6955 110.41 68.7242C108.052 69.753 107.33 68.926 106.487 69.2991C105.644 69.6723 105.093 70.4388 105.093 70.4388C105.093 70.4388 109.617 76.339 111.875 81.0389C114.132 85.7389 115.978 94.4529 116.48 94.6244C116.981 94.7959 120.011 93.2628 120.162 92.9199C120.312 92.5669 120.734 82.0273 118.707 75.401C117.082 70.0959 114.744 65.5472 114.744 65.5472Z" fill="#FFE56F"/>
<g style="mix-blend-mode:multiply">
<path d="M125.168 138.8C125.168 138.8 119.871 130.227 115.838 128.351C111.804 126.475 114.644 123.792 114.644 123.792C114.644 123.792 67.7006 98.114 67.0686 96.9138C66.4365 95.7136 61.681 94.8362 61.681 94.8362C61.681 94.8362 56.1831 87.4333 45.4481 84.4075C34.7131 81.3818 33.3587 83.5603 33.3587 83.5603C33.3587 83.5603 29.6767 79.0924 24.7306 78.8604C19.7845 78.6385 16.8951 80.5649 16.3232 86.929C15.7513 93.2931 20.4667 100.615 20.4667 100.615C20.4667 100.615 17.0957 106.122 17.5572 110.267C18.0187 114.413 38.4252 115.976 43.9834 116.087C49.5314 116.198 77.9541 117.741 79.5392 117.156C81.1244 116.581 83.5623 117.045 83.5623 117.045C83.5623 117.045 86.1508 121.059 73.9611 122.441C61.7713 123.833 51.538 121.402 65.5737 128.22C79.6095 135.038 76.2385 129.067 89.8528 136.188C103.457 143.308 109.236 138.285 109.236 138.285C109.236 138.285 109.266 137.529 109.276 136.642C119.74 140.05 125.198 138.81 125.198 138.81L125.168 138.8Z" fill="#A9A9AB"/>
</g>
<g style="mix-blend-mode:multiply">
<path d="M16.0523 87.7459C16.0523 87.7459 -0.561834 87.2517 0.020063 90.9532C0.591927 94.6547 6.03968 100.978 13.8652 103.49C19.5638 104.892 20.567 100.353 20.567 100.353L19.0621 97.8317L17.5572 94.3017L16.554 90.2674L16.0523 87.7459Z" fill="#A9A9AB"/>
</g>
<path d="M84.9469 90.7413C84.9469 90.7413 85.9602 93.3737 86.4417 95.2295C86.8029 96.6213 87.5052 97.6198 88.6891 98.2451C90.2341 99.0419 91.5986 98.7797 91.9397 98.0636C92.1905 97.5391 91.2775 97.1054 90.4047 94.9572C89.6923 93.2023 89.1104 91.9214 88.99 91.0439C88.99 91.0439 88.5386 91.5179 88.0971 91.5986C86.8631 91.8205 86.0404 91.3263 84.9469 90.7413Z" fill="#54544A"/>
<path d="M97.4376 88.0383C97.4376 88.0383 98.2502 90.2269 98.9224 91.1044C99.6046 91.9919 101.521 94.2814 101.23 95.0782C100.929 95.885 99.0529 96.3288 97.578 95.3807C96.1032 94.4327 94.9695 90.6808 94.9194 90.1462L94.7589 88.2905L97.4376 88.0383Z" fill="#54544A"/>
</g>
<defs>
<clipPath id="clip0_555_25">
<rect width="135" height="140" fill="white"/>
</clipPath>
</defs>
</svg>
