<svg width="33" height="44" viewBox="0 0 33 44" fill="none" xmlns="http://www.w3.org/2000/svg">
<path d="M1.91879 0.355331H30.9195C31.7833 0.355331 32.483 1.05507 32.483 1.9188V41.9295C32.483 42.7932 31.7833 43.4929 30.9195 43.4929H1.91879C1.05505 43.4929 0.355316 42.7932 0.355316 41.9295V1.9188C0.355316 1.05507 1.05505 0.355331 1.91879 0.355331Z" fill="#F6CF94"/>
<path d="M30.9196 0.710669C31.5865 0.710669 32.1277 1.25187 32.1277 1.91881V41.9295C32.1277 42.5964 31.5865 43.1376 30.9196 43.1376H1.91881C1.25187 43.1376 0.710669 42.5964 0.710669 41.9295V1.91881C0.710669 1.25187 1.25187 0.710669 1.91881 0.710669H30.9196ZM30.9196 0H1.91881C0.863736 0 0 0.863736 0 1.91881V41.9295C0 42.99 0.863736 43.8483 1.91881 43.8483H30.9196C31.9801 43.8483 32.8384 42.9845 32.8384 41.9295V1.91881C32.8384 0.858269 31.9746 0 30.9196 0Z" fill="#F68132"/>
<path d="M10.6928 43.1431H30.9523C31.6193 43.1431 32.1605 42.6019 32.1605 41.9349V21.6754L10.6928 43.1431Z" fill="#DE9761"/>
<path d="M30.187 2.24682H2.65677V39.4257H30.187V2.24682Z" fill="white"/>
<path d="M25.5676 5.45028H6.84425C6.07892 5.45028 5.46118 4.82708 5.46118 4.06175V0.71067H6.43425V4.06175C6.43425 4.29135 6.62012 4.47722 6.84972 4.47722H25.5786C25.8082 4.47722 25.994 4.29135 25.994 4.06175V0.71067H26.9671V4.06175C26.9671 4.82708 26.3439 5.45028 25.5786 5.45028H25.5676Z" fill="#002E5E"/>
<path d="M23.9823 8.69749H8.43509V10.5179H23.9823V8.69749Z" fill="#F68132"/>
<g opacity="0.88">
<path d="M25.8847 14.7327H6.52719V15.6457H25.8847V14.7327Z" fill="#407FC9"/>
</g>
<g opacity="0.88">
<path d="M25.8847 16.7554H6.52719V17.6683H25.8847V16.7554Z" fill="#407FC9"/>
</g>
<g opacity="0.88">
<path d="M25.8847 18.8601H6.52719V19.773H25.8847V18.8601Z" fill="#407FC9"/>
</g>
<g opacity="0.88">
<path d="M25.8847 22.8343H11.6714V23.7473H25.8847V22.8343Z" fill="#407FC9"/>
</g>
<g opacity="0.88">
<path d="M25.8847 24.9718H11.6714V25.8847H25.8847V24.9718Z" fill="#407FC9"/>
</g>
<g opacity="0.88">
<path d="M25.8848 34.4182H19.5762V35.3312H25.8848V34.4182Z" fill="#407FC9"/>
</g>
<g opacity="0.88">
<path d="M25.8848 35.9161H21.6645V36.8291H25.8848V35.9161Z" fill="#407FC9"/>
</g>
<path d="M9.91112 26.7157H7.44018C6.80605 26.7157 6.28671 26.1963 6.28671 25.5622V23.0913C6.28671 22.4571 6.80605 21.9378 7.44018 21.9378H9.91112C10.5453 21.9378 11.0646 22.4571 11.0646 23.0913V25.5622C11.0646 26.1963 10.5453 26.7157 9.91112 26.7157ZM7.44018 22.4243C7.07391 22.4243 6.77325 22.725 6.77325 23.0913V25.5622C6.77325 25.9285 7.07391 26.2291 7.44018 26.2291H9.91112C10.2774 26.2291 10.5781 25.9285 10.5781 25.5622V23.0913C10.5781 22.725 10.2774 22.4243 9.91112 22.4243H7.44018Z" fill="#407FC9"/>
<path d="M8.61004 25.8629L7.05203 23.8457L7.44017 23.5505L8.55537 24.9937L10.8295 21.0249L11.2504 21.2709L8.61004 25.8629Z" fill="#407FC9"/>
<g opacity="0.88">
<path d="M25.8847 28.7657H11.6714V29.6786H25.8847V28.7657Z" fill="#407FC9"/>
</g>
<g opacity="0.88">
<path d="M25.8847 30.9086H11.6714V31.8216H25.8847V30.9086Z" fill="#407FC9"/>
</g>
<path d="M9.91112 32.6525H7.44018C6.80605 32.6525 6.28671 32.1332 6.28671 31.499V29.0281C6.28671 28.394 6.80605 27.8746 7.44018 27.8746H9.91112C10.5453 27.8746 11.0646 28.394 11.0646 29.0281V31.499C11.0646 32.1332 10.5453 32.6525 9.91112 32.6525ZM7.44018 28.3557C7.07391 28.3557 6.77325 28.6564 6.77325 29.0226V31.4936C6.77325 31.8598 7.07391 32.1605 7.44018 32.1605H9.91112C10.2774 32.1605 10.5781 31.8598 10.5781 31.4936V29.0226C10.5781 28.6564 10.2774 28.3557 9.91112 28.3557H7.44018Z" fill="#407FC9"/>
<path d="M8.61004 31.7997L7.05203 29.7825L7.44017 29.4873L8.55537 30.9305L10.8295 26.9617L11.2504 27.2022L8.61004 31.7997Z" fill="#407FC9"/>
<path d="M11.9064 3.79936H8.43509V6.14457H11.9064V3.79936Z" fill="#002E5E"/>
<path d="M23.9823 3.79936H20.511V6.14457H23.9823V3.79936Z" fill="#002E5E"/>
</svg>
