<svg width="43" height="37" viewBox="0 0 43 37" fill="none" xmlns="http://www.w3.org/2000/svg">
<path d="M26.1731 29.9791H16.5483V34.4057H26.1731V29.9791Z" fill="#F6CF94"/>
<path d="M38.2798 2.26999H4.44167C2.97373 2.26999 1.7782 3.46552 1.7782 4.93346V27.6108C1.7782 29.0787 2.97373 30.2742 4.44167 30.2742H38.2874C39.7553 30.2742 40.9509 29.0787 40.9509 27.6108V4.93346C40.9509 3.46552 39.7553 2.26999 38.2874 2.26999H38.2798Z" fill="#DE9761"/>
<path d="M3.66229 23.8577C3.66229 24.2815 4.01036 24.6295 4.44166 24.6295H38.2874C38.7187 24.6295 39.0668 24.2815 39.0668 23.8502V4.93347C39.0668 4.50217 38.7187 4.15411 38.2874 4.15411H4.43409C4.15412 4.15411 3.90442 4.30544 3.76822 4.53244C3.70012 4.64594 3.65472 4.78214 3.65472 4.93347V23.8502L3.66229 23.8577Z" fill="white"/>
<path d="M22.4276 27.4443C22.4276 28.0345 21.9509 28.5112 21.3607 28.5112C20.7705 28.5112 20.2938 28.0345 20.2938 27.4443C20.2938 26.8541 20.7705 26.3774 21.3607 26.3774C21.9509 26.3774 22.4276 26.8541 22.4276 27.4443Z" fill="#002E5E"/>
<path d="M27.8454 34.1106H14.8837V36.0628H27.8454V34.1106Z" fill="#002E5E"/>
<path d="M42.7214 4.15411V8.67141C42.7214 8.67141 42.7214 8.74708 42.7214 8.78491C42.676 11.1608 41.0038 12.5001 39.1575 12.5001C37.1978 12.5001 35.5936 10.9111 35.5936 8.94381C35.5936 10.9111 34.0046 12.5001 32.0449 12.5001C30.0851 12.5001 28.481 10.9111 28.481 8.94381C28.481 10.9111 26.892 12.5001 24.9246 12.5001C22.9573 12.5001 21.3607 10.9111 21.3607 8.94381C21.3607 10.9111 19.7642 12.5001 17.8044 12.5001C15.8446 12.5001 14.2405 10.9111 14.2405 8.94381C14.2405 10.9111 12.6515 12.5001 10.6841 12.5001C8.71681 12.5001 7.12024 10.9111 7.12024 8.94381C7.12024 10.9111 5.53124 12.5001 3.5639 12.5001C1.59657 12.5001 0 10.9111 0 8.94381V4.16167H42.7214V4.15411Z" fill="#F6E4D4"/>
<path d="M14.233 4.15411V8.93624C14.233 10.9036 12.644 12.4926 10.6766 12.4926C8.7093 12.4926 7.11273 10.9036 7.11273 8.93624V4.15411H14.233Z" fill="#F68132"/>
<path d="M28.481 4.15411V8.93624C28.481 10.9036 26.892 12.4926 24.9246 12.4926C22.9573 12.4926 21.3607 10.9036 21.3607 8.93624V4.15411H28.481Z" fill="#F68132"/>
<path d="M42.7139 4.15411V8.78491C42.6685 11.1608 40.9963 12.5001 39.15 12.5001C37.1903 12.5001 35.5861 10.9111 35.5861 8.94381V4.16167H42.7064L42.7139 4.15411Z" fill="#F68132"/>
<path d="M0 4.1541L3.66227 0H21.3607V4.1541H0Z" fill="#E27329"/>
<path d="M42.7214 4.1541L39.0592 0H21.3607V4.1541H42.7214Z" fill="#E0C9B8"/>
<path d="M14.2329 4.1541L15.3755 0H21.3607V4.1541H14.2329Z" fill="#E0C9B8"/>
<path d="M0 4.1541L3.66227 0H9.74587L7.11267 4.1541H0Z" fill="#E0C9B8"/>
<path d="M42.7215 4.1541L39.0592 0H33.3994L35.5937 4.1541H42.7215Z" fill="#E27329"/>
<path d="M28.481 4.1541L27.346 0H21.3607V4.1541H28.481Z" fill="#E27329"/>
</svg>
