<svg width="41" height="43" viewBox="0 0 41 43" fill="none" xmlns="http://www.w3.org/2000/svg">
<path d="M24.0141 16.0927L22.7403 16.5466C22.581 16.6023 22.4536 16.7217 22.39 16.873C22.1989 17.3268 21.8884 18.5608 21.1957 18.5369C20.6543 18.513 20.097 18.5051 19.5238 18.5051C19.4522 18.5051 19.3725 18.4732 19.3168 18.4255C18.9028 18.0513 18.6242 17.2153 18.4809 16.8889C18.441 16.7934 18.3614 16.7137 18.2659 16.6739L17.0557 16.1326C17 16.1087 16.9443 16.1087 16.8885 16.1326C16.2596 16.3634 15.6306 16.6739 15.0017 17.0561C14.6593 17.2631 14.317 17.2312 13.9587 16.9446C13.4014 16.4908 12.8361 15.8778 12.9317 15.1453C12.9317 15.1214 12.9396 15.1055 12.9476 15.0896L13.8234 13.139C13.8791 13.0116 13.8632 12.8604 13.7836 12.7409L13.0909 11.7776C13.0511 11.7219 12.9954 11.69 12.9317 11.6741C12.3584 11.5547 11.0926 11.3636 10.7661 10.9098C10.4875 10.5117 10.5432 9.33342 10.6069 8.97515C10.7502 8.20288 12.3027 7.85257 12.9476 7.66946C13.0431 7.64557 13.1227 7.58188 13.1705 7.49431L13.7756 6.44339C13.8472 6.316 13.8472 6.16473 13.7756 6.03735C13.3855 5.30489 12.8919 4.58039 12.8282 3.98328C12.7486 3.28266 13.6084 2.52632 14.1577 2.27951C14.3807 2.18397 14.6354 2.18397 14.8584 2.27951L16.6099 3.0677C16.785 3.14732 16.992 3.14732 17.1672 3.05974L18.0669 2.62982C18.2102 2.55816 18.3216 2.43874 18.3774 2.29543C18.4649 2.07251 18.6401 1.57094 18.8948 0.790708C19.078 0.241363 19.5079 -0.0293284 20.1687 0.00251766C21.0922 0.0343637 21.6416 -0.0134054 21.96 0.862361C22.2387 1.61871 22.4059 2.08047 22.4616 2.2397C22.5094 2.36709 22.597 2.47059 22.7164 2.54224L23.7275 3.12343C23.831 3.18712 23.9584 3.19509 24.0778 3.14732L26.1 2.32728C26.315 2.2397 26.5459 2.24767 26.7529 2.3432C27.3261 2.6139 27.7401 3.02789 27.9869 3.5852C28.2178 4.1027 27.5172 5.32877 27.1828 6.0055C27.1191 6.14085 27.1191 6.29212 27.1828 6.42746L27.6366 7.36692C27.7003 7.50227 27.8197 7.60577 27.963 7.65354C28.5681 7.84461 29.0299 7.99588 29.3563 8.10734C29.8977 8.29046 30.2639 8.59299 30.3037 9.22195C30.3594 10.0579 30.4948 10.9655 29.5474 11.2442C29.2846 11.3238 28.8149 11.4432 28.1382 11.6184C28.0187 11.6502 27.9073 11.7139 27.8197 11.8094C27.4853 12.1677 27.2624 12.5976 27.1509 13.1231C27.1271 13.2266 27.143 13.3301 27.1828 13.4256L28.0426 15.2249C28.1063 15.3603 28.1063 15.5275 28.0426 15.6628C27.7003 16.3475 27.2306 16.8411 26.6414 17.1516C26.4264 17.2631 26.1717 17.2551 25.9647 17.1357L24.2052 16.1246C24.1495 16.0927 24.0778 16.0848 24.0141 16.1087V16.0927ZM16.8169 8.93534C16.4109 10.9178 17.7086 12.8683 19.7228 13.2744C21.7371 13.6884 23.6956 12.4145 24.1096 10.4321C24.5157 8.44969 23.218 6.49912 21.2037 6.09308C19.1894 5.67908 17.2309 6.95292 16.8169 8.93534Z" fill="#F68132"/>
<path d="M12.5039 23.1658C13.111 20.5939 11.5181 18.0168 8.94613 17.4098C6.37418 16.8027 3.79711 18.3956 3.19008 20.9676C2.58304 23.5395 4.17592 26.1166 6.74786 26.7236C9.31981 27.3306 11.8969 25.7378 12.5039 23.1658Z" fill="#F6CF94"/>
<path d="M33.138 26.8488C35.785 26.8488 37.9308 24.7029 37.9308 22.0559C37.9308 19.4089 35.785 17.2631 33.138 17.2631C30.491 17.2631 28.3452 19.4089 28.3452 22.0559C28.3452 24.7029 30.491 26.8488 33.138 26.8488Z" fill="#F6CF94"/>
<path d="M25.2556 26.832C25.8758 24.2044 24.2485 21.5716 21.6209 20.9514C18.9933 20.3312 16.3605 21.9586 15.7403 24.5861C15.1202 27.2137 16.7475 29.8465 19.3751 30.4667C22.0027 31.0869 24.6355 29.4595 25.2556 26.832Z" fill="#F6CF94"/>
<path d="M15.344 30.2802C15.137 29.9697 14.8822 29.7149 14.5638 29.4999C13.7517 28.6242 12.8202 28.1385 11.7693 28.035C10.8537 27.9475 9.93018 28.0111 9.00664 28.0191C8.02737 28.0191 7.04811 28.0191 6.06884 27.9713C4.77908 27.9076 3.53708 27.8997 2.35877 28.5048C1.37155 29.0143 0.607241 29.8741 0.225088 30.9171C0.057896 31.3629 -0.0137577 32.0715 0.00216538 33.0508C0.00216538 33.1861 0.00216538 34.4998 0.00216538 36.9997C0.00216538 37.8277 0.153434 38.4885 1.06901 38.4805C4.75519 38.4726 8.01941 38.4567 10.8537 38.4407C10.9174 38.4407 10.9652 38.385 10.9652 38.3293C10.9652 37.8038 10.9652 37.0952 10.9652 36.1956C10.9731 34.2052 11.6101 32.6129 13.2183 31.4426C13.8871 30.9569 14.5001 30.5748 15.2803 30.4076C15.2883 30.4076 15.3042 30.4076 15.3122 30.3916C15.352 30.3678 15.3599 30.32 15.336 30.2802H15.344Z" fill="#F6CF94"/>
<path d="M25.6143 30.2165C26.6812 28.9028 28.0824 28.0032 29.8339 27.9952C33.6953 27.9952 35.7573 27.9793 35.9962 27.9713C36.856 27.9475 37.5327 28.0271 38.0343 28.2341C39.9849 29.0223 40.9801 30.5668 40.988 32.6368C41.0039 35.1924 41.0039 36.8405 40.988 37.5968C40.988 37.6605 40.9801 37.7242 40.9562 37.7879C40.8208 38.1621 40.5342 38.385 40.1043 38.4567C40.0724 38.4567 36.7843 38.4567 30.232 38.4487C30.1206 38.4487 30.025 38.3532 30.0171 38.2417C30.0011 37.2385 29.9932 36.5857 29.9932 36.2752C29.9932 33.3454 28.3531 31.2993 25.6621 30.3996C25.5984 30.3757 25.5666 30.312 25.5904 30.2563C25.5904 30.2404 25.5984 30.2324 25.6143 30.2165Z" fill="#F6CF94"/>
<path d="M28.4646 36.0762C28.4407 35.0889 28.1222 34.2211 27.5251 33.4727C26.8086 32.4537 25.7895 31.8725 24.4679 31.7292C22.2466 31.6814 19.9537 31.6655 17.5812 31.6734C16.578 31.6734 15.8535 31.769 15.3918 31.9362C13.4332 32.6766 12.454 34.1415 12.4619 36.3309C12.4619 38.8547 12.4619 40.3674 12.446 40.869C12.4221 41.5776 12.7645 42.111 13.4571 42.111C17.3423 42.103 21.745 42.103 26.6573 42.111C27.4375 42.111 28.4725 42.1269 28.4885 41.1078C28.5203 39.3961 28.5123 37.7162 28.4646 36.0762Z" fill="#F6CF94"/>
</svg>
