<svg width="59" height="59" viewBox="0 0 59 59" fill="none" xmlns="http://www.w3.org/2000/svg">
<path d="M23.3351 0.860378L43.4053 13.1498C44.1814 13.6249 44.4252 14.6392 43.9501 15.4152L23.7407 48.4197C23.2656 49.1957 22.2513 49.4396 21.4753 48.9644L1.40508 36.675C0.629064 36.1999 0.38518 35.1856 0.860351 34.4096L21.0697 1.4051C21.5448 0.62909 22.5591 0.385208 23.3351 0.860378Z" fill="#F5B977"/>
<path d="M0.0448837 36.8636L11.2326 44.7706L28.1258 55.1165L28.8165 53.987L0.267923 36.4967L0.0448837 36.8636Z" fill="#407FC9"/>
<path d="M24.0752 51.9293L39.6445 26.5032C40.1553 25.6759 40.9539 25.0931 41.9036 24.8628C42.8533 24.6326 43.8246 24.7909 44.6592 25.3017L54.7461 31.4748L55.4944 30.2445L45.4074 24.0714C44.2491 23.3592 42.8821 23.1433 41.5655 23.4671C40.2488 23.7836 39.1265 24.5966 38.4214 25.755L22.8521 51.1811L24.0823 51.9293H24.0752Z" fill="#407FC9"/>
<path d="M51.8848 26.7794L57.9285 30.4801C58.5046 30.8329 58.6857 31.5858 58.3329 32.1619L57.7318 33.1436C57.379 33.7197 56.6261 33.9008 56.05 33.548L50.0062 29.8473C49.4302 29.4945 49.2491 28.7416 49.6019 28.1655L50.203 27.1838C50.5557 26.6077 51.3087 26.4266 51.8848 26.7794Z" fill="#407FC9"/>
<path d="M29.0467 54.9798C26.9746 58.3685 22.5427 59.4334 19.154 57.3613C15.7653 55.2892 14.7005 50.8573 16.7725 47.4686C18.8446 44.0799 23.2765 43.0151 26.6652 45.0871C30.0539 47.1592 31.1188 51.5911 29.0467 54.9798Z" fill="#002E5E"/>
<path d="M26.8379 53.6272C25.5069 55.7928 22.6722 56.4763 20.5066 55.1525C18.341 53.8287 17.6575 50.9868 18.9813 48.8212C20.3051 46.6556 23.147 45.9721 25.3127 47.2959C27.4783 48.6269 28.1618 51.4616 26.8379 53.6272Z" fill="#407FC9"/>
<path d="M25.2262 52.6344C24.442 53.9078 22.78 54.3107 21.4994 53.5265C20.2187 52.7423 19.823 51.0803 20.6072 49.7997C21.3915 48.5262 23.0534 48.1233 24.3341 48.9075C25.6076 49.6917 26.0105 51.3537 25.2262 52.6344Z" fill="white"/>
<path d="M24.219 52.0156C23.7801 52.7351 22.8376 52.9653 22.1181 52.5193C21.3986 52.0732 21.1684 51.1379 21.6145 50.4184C22.0606 49.6989 22.9959 49.4687 23.7153 49.9148C24.4348 50.3609 24.665 51.2962 24.219 52.0156Z" fill="#5F5F5F"/>
<path d="M24.4489 48.361L24.4561 48.0011L24.78 47.8283L25.0896 48.0155L25.0824 48.3826L24.7584 48.5553L24.4489 48.361Z" fill="#1E1B1C"/>
<path d="M26.0893 52.318L26.1037 51.9509L26.4204 51.7782L26.7299 51.9653L26.7227 52.3324L26.406 52.5052L26.0893 52.318Z" fill="#1E1B1C"/>
<path d="M22.8229 55.1024L22.8373 54.7353L23.1541 54.5625L23.4636 54.7497L23.4564 55.1168L23.1397 55.2895L22.8229 55.1024Z" fill="#1E1B1C"/>
<path d="M19.1896 52.872L19.204 52.5121L19.5208 52.3394L19.8303 52.5265L19.8231 52.8936L19.5064 53.0664L19.1896 52.872Z" fill="#1E1B1C"/>
<path d="M20.1824 48.6991L20.1896 48.332L20.5135 48.1592L20.8231 48.3464L20.8159 48.7135L20.492 48.8863L20.1824 48.6991Z" fill="#1E1B1C"/>
<path d="M49.5012 28.3163L49.7674 27.8774C51.1416 29.2588 53.5447 31.0719 57.7248 33.1296L57.624 33.2878C57.3219 33.7771 56.6815 33.9354 56.1851 33.6332L49.8394 29.7481C49.3501 29.4459 49.1919 28.8055 49.494 28.3091L49.5012 28.3163Z" fill="#002E5E"/>
<path d="M32.3815 6.38211L34.9228 7.93577L31.1512 14.1049L28.6099 12.5512L32.3815 6.38211Z" fill="#E06D20"/>
</svg>
