<svg width="44" height="39" viewBox="0 0 44 39" fill="none" xmlns="http://www.w3.org/2000/svg">
<path d="M3.14157 19.5524C3.34326 18.6873 3.62457 18.0504 4.3942 17.5514C4.47912 17.4983 4.56405 17.4453 4.65428 17.4028C4.74451 17.355 4.83474 17.3179 4.93028 17.2807C5.02582 17.2436 5.11606 17.2117 5.2169 17.1905C5.31244 17.164 5.41329 17.1427 5.50883 17.1268C5.60968 17.1109 5.70522 17.1003 5.80606 17.095C5.90691 17.095 6.00776 17.095 6.1033 17.095C6.20415 17.1003 6.29969 17.1109 6.40053 17.1268C6.50138 17.1427 6.59692 17.164 6.69246 17.1905C6.77739 17.2117 6.86231 17.2436 6.94723 17.2754C7.03216 17.3073 7.11177 17.3444 7.19139 17.3869C7.27101 17.4293 7.34532 17.4718 7.41962 17.5196C7.49393 17.5673 7.56293 17.6204 7.63194 17.6788C7.70094 17.7372 7.76463 17.7956 7.82832 17.8593C7.89202 17.923 7.9504 17.9867 8.00348 18.061C8.05656 18.13 8.10963 18.2043 8.1574 18.2786C8.20517 18.3529 8.24764 18.4325 8.2901 18.5121C8.50772 18.9474 8.57672 19.441 8.60325 19.924C8.05656 19.4941 7.78586 18.8412 7.17547 18.4166C6.65531 18.0504 6.06615 17.7584 5.41329 17.8858C4.39951 18.0875 3.86873 18.8996 3.31672 19.6798L3.13626 19.5578L3.14157 19.5524Z" fill="#407FC9"/>
<path d="M35.8162 31.5851C35.9861 31.7709 36.1824 31.9514 36.3311 32.1531C34.5317 34.377 32.5201 35.7146 29.7282 36.3727C28.9055 36.5691 27.913 36.6328 27.1539 36.9778C27.1115 37.2008 27.0903 37.4396 26.931 37.6148C26.2729 38.3525 23.7782 38.2411 22.8547 38.1349C22.6901 38.1137 22.3345 38.0872 22.2496 37.9332C22.0691 37.5988 22.1593 36.8982 22.2814 36.5479C22.4831 35.9694 23.0351 35.5713 23.5765 35.343C24.3143 35.0352 26.0075 34.6902 26.724 35.1042C27.0159 35.274 27.0372 35.497 27.1274 35.7942C27.552 36.0437 28.2898 35.9428 28.7675 35.8791C31.6284 35.4864 34.1071 33.8569 35.8162 31.5798V31.5851Z" fill="#002E5E"/>
<path d="M40.3172 19.7966C41.193 19.8921 42.3766 19.9664 42.9711 20.7148C43.5921 21.5004 43.5018 25.6245 43.3161 26.7498C43.2417 27.2168 43.1303 27.7688 42.7216 28.0502C42.0369 28.5225 41.0709 28.4323 40.28 28.4429C40.3278 25.5608 40.2269 22.6787 40.3225 19.7966H40.3172Z" fill="#F6E4D4"/>
<path d="M3.25838 28.4588C2.44098 28.4588 1.54928 28.4907 0.853959 28.0024C0.397491 27.6839 0.275413 27.2274 0.174565 26.7073C-0.0642839 25.4706 -0.170439 20.9059 0.61511 19.9824C1.12465 19.3773 2.43567 19.5312 3.1416 19.5524L3.32207 19.6745C3.04076 22.5725 3.58215 25.5714 3.25838 28.4588Z" fill="#F6E4D4"/>
<path d="M3.32206 19.6745C3.87406 18.8943 4.40484 18.0822 5.41862 17.8805C6.07148 17.7531 6.66064 18.045 7.1808 18.4113C7.78588 18.8412 8.06189 19.4941 8.60859 19.9187C8.69882 21.8613 8.67228 23.8146 8.6882 25.7625C8.69351 26.9408 8.81559 28.2519 8.61389 29.4143C8.52897 29.9132 8.31666 30.3378 7.96635 30.7041C7.40372 31.2932 6.57041 31.6276 5.75832 31.6117C5.66809 31.6117 5.57785 31.6011 5.48762 31.5904C5.39739 31.5798 5.30716 31.5639 5.21693 31.5427C5.12669 31.5214 5.04177 31.4949 4.95154 31.4684C4.86661 31.4365 4.78169 31.4047 4.69677 31.3675C4.61184 31.3304 4.53223 31.2879 4.45261 31.2401C4.37299 31.1924 4.29868 31.1446 4.22438 31.0915C4.15007 31.0384 4.08107 30.9801 4.01206 30.9164C3.94306 30.8527 3.87937 30.789 3.82099 30.72C3.24244 30.0671 3.2159 29.2922 3.25836 28.4589C3.58744 25.5714 3.04605 22.5673 3.32206 19.6745Z" fill="#002E5E"/>
<path d="M35.8162 31.5851C35.5296 31.2614 35.1315 30.9004 34.9882 30.4811C34.5954 29.3346 34.4202 19.1756 35.0731 18.2308C35.503 17.6098 36.2302 17.3073 36.9573 17.1958C37.7323 17.079 38.5868 17.148 39.2238 17.647C39.9031 18.1777 40.2163 18.958 40.3278 19.7913C40.2322 22.6681 40.3331 25.5555 40.2853 28.4376C40.2853 29.3612 40.28 30.428 39.6112 31.1552C38.7089 32.1371 36.9786 31.4843 36.331 32.1478C36.1824 31.9514 35.986 31.7656 35.8162 31.5798V31.5851Z" fill="#002E5E"/>
<path d="M20.4396 0.120729C20.4715 0.115421 20.5033 0.104806 20.5352 0.0994978C24.8345 -0.457817 29.6274 1.38398 32.8439 4.17586C36.4744 7.32336 38.2472 11.5749 38.5763 16.2988L35.4075 16.2829C35.4075 16.1024 35.3969 15.9219 35.3863 15.7415C35.3757 15.561 35.3651 15.3805 35.3438 15.2001C35.3279 15.0196 35.3067 14.8445 35.2801 14.664C35.2536 14.4835 35.2271 14.3084 35.1952 14.1279C35.1634 13.9528 35.1315 13.7723 35.0891 13.5971C35.0519 13.422 35.0094 13.2468 34.9617 13.0717C34.9139 12.8965 34.8661 12.7267 34.813 12.5515C34.76 12.3817 34.7069 12.2065 34.6485 12.0367C34.5901 11.8668 34.5264 11.697 34.4627 11.5271C34.399 11.3573 34.33 11.1927 34.2557 11.0282C34.1814 10.8636 34.1071 10.6991 34.0275 10.5399C33.9479 10.3753 33.8683 10.2161 33.7833 10.0569C33.6984 9.89763 33.6082 9.73839 33.518 9.58447C33.4277 9.43054 33.3322 9.27662 33.2366 9.12269C33.1411 8.96877 33.0403 8.82015 32.9341 8.67153C32.8333 8.52292 32.7271 8.37961 32.6156 8.2363C30.1157 4.97202 26.8567 3.4487 22.8494 2.93384C18.9906 2.833 15.4556 3.86801 12.547 6.49004C9.53749 9.20231 8.04601 12.7267 7.86024 16.7287C6.85177 16.4793 5.81675 16.4793 4.78174 16.4421C5.72121 12.2914 6.15645 9.41462 8.95895 6.00173C11.9207 2.43491 15.8697 0.571889 20.4396 0.120729Z" fill="#F68132"/>
</svg>
