<svg width="56" height="56" viewBox="0 0 56 56" fill="none" xmlns="http://www.w3.org/2000/svg">
<path d="M56 28C56 43.464 43.464 56 28 56C12.536 56 0 43.464 0 28C0 12.536 12.536 0 28 0C43.464 0 56 12.536 56 28Z" fill="#1F1F1F"/>
<circle cx="28" cy="28" r="27" transform="rotate(180 28 28)" fill="#F58220" stroke="white" stroke-width="2"/>
<path d="M22.98 37.28L26.46 35.54C27.43 35.06 28.56 35.06 29.53 35.54L33.02 37.29C36 38.78 39.15 35.56 37.59 32.61L36.77 31.07C36.66 30.86 36.48 30.69 36.26 30.59L23.61 24.9C23.09 24.67 22.48 24.88 22.22 25.38L18.41 32.62C16.86 35.56 20 38.78 22.98 37.28Z" fill="white"/>
<path opacity="0.4" d="M24.4 23.69L32.68 27.42C33.61 27.84 34.55 26.84 34.07 25.94L31.03 20.17C29.74 17.72 26.24 17.72 24.95 20.17L23.88 22.21C23.6 22.76 23.84 23.43 24.4 23.69Z" fill="white"/>
</svg>
