<svg width="109" height="96" viewBox="0 0 109 96" fill="none" xmlns="http://www.w3.org/2000/svg">
<g clip-path="url(#clip0_111_9975)">
<g style="mix-blend-mode:multiply">
<path d="M18.57 82.6201L0 72.1001L30.81 53.4001L64.16 36.0801L65.24 95.0801L18.57 82.6201Z" fill="#A9A9AB"/>
</g>
<path d="M65.24 95.08L21.99 70.11V24.97L65.24 49.95V95.08Z" fill="#B76F3F"/>
<path d="M21.99 24.97V70.11L65.24 95.08L23.24 69.4L21.99 24.97Z" fill="#8C4320"/>
<path d="M40.1599 80.75V35.46L47.0299 39.43V85.1L40.1599 80.75Z" fill="#9C480C"/>
<path d="M65.24 49.95L21.99 24.97L65.24 0L108.5 24.97L65.24 49.95Z" fill="#EFD995"/>
<path d="M105.31 24.97L65.37 47.95L21.99 24.97L65.24 49.95L108.5 24.97L65.24 0L105.31 24.97Z" fill="#FFEDB4"/>
<path d="M41.3 13.97L91.4701 42.78L99.07 38.46L41.5 13.77L41.3 13.97Z" fill="#AB774D"/>
<path d="M48.37 9.81006L66.31 19.8301L59.18 23.9301L41.5 13.7701L48.37 9.81006Z" fill="#E6E1E4"/>
<path d="M99.2601 38.27L91.6601 42.58L66.3701 28.05L73.7001 23.97L99.2601 38.27Z" fill="#E6E1E4"/>
<path d="M46.45 39.16L91.16 14.24L91.05 14.9L47.0299 39.43L46.45 39.16Z" fill="#C39055"/>
<path d="M73.6999 23.9701L66.3699 28.0501L59.1799 23.9301L66.3099 19.8301L73.6999 23.9701Z" fill="#F9F9F9"/>
<path d="M59.1801 23.9299L66.3701 28.0499L46.4401 39.1599L39.5701 35.1899L59.1801 23.9299Z" fill="#F1F1F1"/>
<path d="M91.1601 14.2399L73.7001 23.9699L66.3101 19.8299L83.5601 9.92993L91.1601 14.2399Z" fill="#F1F1F1"/>
<path d="M39.5801 80.4699V35.1899L46.4501 39.1599V84.8299L39.5801 80.4699Z" fill="#B3A4AD"/>
<path d="M65.24 95.08L108.5 70.11V24.97L65.24 49.95V95.08Z" fill="#D9AF6A"/>
<path d="M65.24 95.0801L108.5 70.1101V69.3301L65.24 94.3101V95.0801Z" fill="#9D6F40"/>
<path d="M67.8101 63.0301L80.1301 55.9101V45.6101L68.0401 52.0801L67.8101 52.7301V63.0301Z" fill="#9C480C"/>
<path d="M91.96 79.64V34.52L84.55 38.79V83.91L91.96 79.64Z" fill="#9C480C"/>
<path d="M92.2401 79.8001V34.3501L84.8301 38.6301V84.0801L92.2401 79.8001Z" fill="#D6D6D6"/>
<path d="M35 50.11L24.96 44.3V29.51L35 35.32V50.11ZM25.88 43.77L34.08 48.51V35.85L25.88 31.11V43.77Z" fill="#A45823"/>
<path d="M28.0698 42.9001L31.4898 44.8701V40.8201L28.0698 38.8401V42.9001Z" fill="#A45823"/>
<path d="M26.3999 37.91L33.1499 41.81L29.7799 34.75L26.3999 37.91Z" fill="#A45823"/>
<path d="M68.29 52.27L80.61 45.15L80.36 44.96L68.04 52.08L68.29 52.27Z" fill="#FEFEFE"/>
<path d="M68.29 62.5701V52.2701L68.04 52.0801V62.3701L68.29 62.5701Z" fill="#8B8B8B"/>
<path d="M68.29 62.5699L80.61 55.4499V45.1499L68.29 52.2699V62.5699Z" fill="#D6D6D6"/>
<path d="M68.98 53.6699L79.92 47.3499V46.7L68.98 53.02V53.6699Z" fill="#6F6F6F"/>
<path d="M73.51 53.9401L79.92 50.2401V49.5901L73.51 53.2801V53.9401Z" fill="#8E8E8E"/>
<path d="M69.02 60.8699L72.36 58.9399V53.3999L69.02 55.3299V60.8699Z" fill="#8E8E8E"/>
<path d="M73.51 55.35L79.92 51.66V51L73.51 54.7V55.35Z" fill="#8E8E8E"/>
<path d="M73.51 56.7699L79.92 53.0699V52.4199L73.51 56.1199V56.7699Z" fill="#8E8E8E"/>
<path d="M73.51 58.1901L79.92 54.4901V53.8401L73.51 57.5401V58.1901Z" fill="#8E8E8E"/>
<path d="M86.3401 31.04L91.3101 34.35L84.8301 38.09V38.63L92.2401 34.35L86.3401 31.04Z" fill="#F1F1F1"/>
</g>
<defs>
<clipPath id="clip0_111_9975">
<rect width="108.5" height="95.08" fill="white"/>
</clipPath>
</defs>
</svg>
