<svg width="15" height="15" viewBox="0 0 15 15" fill="none" xmlns="http://www.w3.org/2000/svg">
<path d="M14.9987 6.6501V8.34855C14.9148 8.77166 14.5835 9.07902 14.1424 9.1329L13.0048 9.2766C12.8971 9.58196 12.7873 9.84541 12.6476 10.1348L13.392 11.0948C13.6734 11.494 13.6136 11.9949 13.2723 12.3322L12.2564 13.3361C11.951 13.6395 11.4681 13.6315 11.1188 13.402L10.1388 12.6435C9.85144 12.7853 9.58599 12.893 9.28063 13.0008L9.13294 14.1624C9.07706 14.5935 8.76372 14.9128 8.35258 14.9946H6.65414C6.24499 14.9128 5.92965 14.5935 5.87377 14.1624L5.72608 12.9988C5.4287 12.891 5.17324 12.7912 4.87586 12.6396L3.9039 13.384C3.55862 13.6474 3.0437 13.6275 2.73634 13.3201L1.65261 12.2324C1.36521 11.943 1.35723 11.4361 1.60272 11.1148L2.35714 10.1308C2.21743 9.84342 2.10766 9.57797 1.99989 9.27261L0.862268 9.12891C0.349343 9.06904 -0.00591291 8.66389 7.4546e-05 8.14098L0.0160411 6.68204C0.0200327 6.28687 0.377284 5.9376 0.758486 5.88571L1.99789 5.71806C2.10367 5.41669 2.21344 5.14925 2.35514 4.86185L1.59673 3.8819C1.37519 3.54261 1.35923 3.06761 1.65261 2.76025C2.01785 2.37506 2.38109 2.01382 2.76428 1.64858C3.08162 1.34721 3.57858 1.37316 3.91986 1.61864L4.86588 2.35311C5.15328 2.2134 5.42072 2.10363 5.72209 1.99585L5.87776 0.802355C5.93963 0.329346 6.35277 -0.00395617 6.82578 3.54698e-05L8.28672 0.0120104C8.73777 0.016002 9.07506 0.405187 9.12895 0.830296L9.27864 1.99585C9.582 2.10363 9.84944 2.2134 10.1368 2.35311L11.1367 1.58871C11.47 1.33324 11.977 1.38114 12.2684 1.67453L13.3401 2.74828C13.6335 3.04366 13.6555 3.55259 13.402 3.8819L12.6476 4.86584C12.7873 5.15324 12.8971 5.41868 13.0048 5.72404L14.1424 5.86575C14.5835 5.92163 14.9168 6.225 14.9987 6.6521V6.6501ZM10.6238 7.49833C10.6238 5.77394 9.22475 4.37487 7.50036 4.37487C5.77598 4.37487 4.37691 5.77394 4.37691 7.49833C4.37691 9.22272 5.77598 10.6218 7.50036 10.6218C9.22475 10.6218 10.6238 9.22272 10.6238 7.49833Z" fill="#F58220"/>
</svg>
