<svg width="40" height="40" viewBox="0 0 40 40" fill="none" xmlns="http://www.w3.org/2000/svg">
<path opacity="0.4" d="M11.2668 36.6666H28.7335C33.3335 36.6666 35.1668 33.85 35.3835 30.4166L36.2501 16.65C36.4835 13.05 33.6168 9.99998 30.0001 9.99998C28.9835 9.99998 28.0501 9.41665 27.5835 8.51665L26.3835 6.09998C25.6168 4.58331 23.6168 3.33331 21.9168 3.33331H18.1001C16.3835 3.33331 14.3835 4.58331 13.6168 6.09998L12.4168 8.51665C11.9501 9.41665 11.0168 9.99998 10.0001 9.99998C6.38345 9.99998 3.51678 13.05 3.75012 16.65L4.61678 30.4166C4.81678 33.85 6.66678 36.6666 11.2668 36.6666Z" fill="#292D32"/>
<path d="M22.5 14.5833H17.5C16.8167 14.5833 16.25 14.0166 16.25 13.3333C16.25 12.65 16.8167 12.0833 17.5 12.0833H22.5C23.1833 12.0833 23.75 12.65 23.75 13.3333C23.75 14.0166 23.1833 14.5833 22.5 14.5833Z" fill="#292D32"/>
<path d="M20 30.2167C23.1112 30.2167 25.6334 27.6945 25.6334 24.5833C25.6334 21.4721 23.1112 18.95 20 18.95C16.8888 18.95 14.3667 21.4721 14.3667 24.5833C14.3667 27.6945 16.8888 30.2167 20 30.2167Z" fill="#292D32"/>
</svg>
