<svg width="38" height="37" viewBox="0 0 38 37" fill="none" xmlns="http://www.w3.org/2000/svg">
<rect x="2" y="8" width="34" height="21" rx="4" fill="#C03E35"/>
<path d="M12.8686 17.3828H10.6911C10.6513 17.1011 10.5701 16.8509 10.4474 16.6321C10.3248 16.41 10.1674 16.2211 9.97514 16.0653C9.78291 15.9096 9.56084 15.7902 9.30895 15.7074C9.06037 15.6245 8.79025 15.5831 8.49858 15.5831C7.97159 15.5831 7.51255 15.714 7.12145 15.9759C6.73035 16.2344 6.42708 16.6122 6.21165 17.1094C5.99621 17.6032 5.88849 18.2031 5.88849 18.9091C5.88849 19.6349 5.99621 20.2448 6.21165 20.7386C6.4304 21.2325 6.73532 21.6054 7.12642 21.8572C7.51752 22.1091 7.96993 22.2351 8.48366 22.2351C8.77202 22.2351 9.03883 22.197 9.28409 22.1207C9.53267 22.0445 9.75308 21.9335 9.94531 21.7876C10.1375 21.6385 10.2966 21.4579 10.4226 21.2457C10.5518 21.0336 10.6413 20.7917 10.6911 20.5199L12.8686 20.5298C12.8123 20.9972 12.6714 21.4479 12.446 21.8821C12.224 22.313 11.924 22.6991 11.5462 23.0405C11.1716 23.3786 10.7242 23.647 10.2038 23.8459C9.68679 24.0414 9.1018 24.1392 8.44886 24.1392C7.54072 24.1392 6.72869 23.9337 6.01278 23.5227C5.30019 23.1117 4.73674 22.5168 4.32244 21.7379C3.91146 20.959 3.70597 20.0161 3.70597 18.9091C3.70597 17.7988 3.91477 16.8542 4.33239 16.0753C4.75 15.2964 5.31676 14.7031 6.03267 14.2955C6.74858 13.8845 7.55398 13.679 8.44886 13.679C9.03883 13.679 9.5857 13.7618 10.0895 13.9276C10.5966 14.0933 11.0457 14.3352 11.4368 14.6534C11.8279 14.9683 12.1461 15.3544 12.3913 15.8118C12.6399 16.2692 12.799 16.7929 12.8686 17.3828ZM23.7688 18.9091C23.7688 20.0194 23.5584 20.964 23.1374 21.7429C22.7198 22.5218 22.1497 23.1167 21.4272 23.5277C20.708 23.9354 19.8993 24.1392 19.0011 24.1392C18.0962 24.1392 17.2842 23.9337 16.565 23.5227C15.8458 23.1117 15.2773 22.5168 14.8597 21.7379C14.4421 20.959 14.2333 20.0161 14.2333 18.9091C14.2333 17.7988 14.4421 16.8542 14.8597 16.0753C15.2773 15.2964 15.8458 14.7031 16.565 14.2955C17.2842 13.8845 18.0962 13.679 19.0011 13.679C19.8993 13.679 20.708 13.8845 21.4272 14.2955C22.1497 14.7031 22.7198 15.2964 23.1374 16.0753C23.5584 16.8542 23.7688 17.7988 23.7688 18.9091ZM21.5863 18.9091C21.5863 18.1899 21.4786 17.5833 21.2631 17.0895C21.051 16.5956 20.7511 16.2211 20.3633 15.9659C19.9755 15.7107 19.5214 15.5831 19.0011 15.5831C18.4807 15.5831 18.0266 15.7107 17.6388 15.9659C17.2511 16.2211 16.9495 16.5956 16.734 17.0895C16.5219 17.5833 16.4158 18.1899 16.4158 18.9091C16.4158 19.6283 16.5219 20.2348 16.734 20.7287C16.9495 21.2225 17.2511 21.5971 17.6388 21.8523C18.0266 22.1075 18.4807 22.2351 19.0011 22.2351C19.5214 22.2351 19.9755 22.1075 20.3633 21.8523C20.7511 21.5971 21.051 21.2225 21.2631 20.7287C21.4786 20.2348 21.5863 19.6283 21.5863 18.9091ZM28.9728 24H25.3635V13.8182H29.0027C30.0268 13.8182 30.9084 14.022 31.6475 14.4297C32.3867 14.834 32.9551 15.4157 33.3528 16.1747C33.7538 16.9337 33.9544 17.8419 33.9544 18.8991C33.9544 19.9598 33.7538 20.8712 33.3528 21.6335C32.9551 22.3958 32.3833 22.9808 31.6376 23.3885C30.8952 23.7962 30.0069 24 28.9728 24ZM27.5162 22.1555H28.8833C29.5197 22.1555 30.055 22.0429 30.4892 21.8175C30.9267 21.5888 31.2548 21.2358 31.4735 20.7585C31.6956 20.2779 31.8066 19.6581 31.8066 18.8991C31.8066 18.1468 31.6956 17.532 31.4735 17.0547C31.2548 16.5774 30.9283 16.2261 30.4941 16.0007C30.06 15.7753 29.5247 15.6626 28.8883 15.6626H27.5162V22.1555Z" fill="white"/>
</svg>
