<svg width="56" height="56" viewBox="0 0 56 56" fill="none" xmlns="http://www.w3.org/2000/svg">
<path opacity="0.4" d="M49.1867 20.0201V35.98C49.1867 38.5933 47.7867 41.0201 45.5233 42.3501L31.6633 50.3534C29.4 51.6601 26.5999 51.6601 24.3133 50.3534L10.4533 42.3501C8.18993 41.0434 6.78992 38.6167 6.78992 35.98V20.0201C6.78992 17.4067 8.18993 14.98 10.4533 13.65L24.3133 5.64666C26.5766 4.34 29.3767 4.34 31.6633 5.64666L45.5233 13.65C47.7867 14.98 49.1867 17.3834 49.1867 20.0201Z" fill="#F58220"/>
<path d="M28 32.0833C27.0433 32.0833 26.25 31.29 26.25 30.3333V18.0833C26.25 17.1267 27.0433 16.3333 28 16.3333C28.9567 16.3333 29.75 17.1267 29.75 18.0833V30.3333C29.75 31.29 28.9567 32.0833 28 32.0833Z" fill="#F58220"/>
<path d="M28 40.25C27.6967 40.25 27.3933 40.1799 27.1133 40.0632C26.81 39.9466 26.5766 39.7833 26.3433 39.5733C26.1333 39.34 25.97 39.0833 25.83 38.8033C25.7134 38.5233 25.6667 38.22 25.6667 37.9166C25.6667 37.3099 25.9 36.7032 26.3433 36.2599C26.5766 36.0499 26.81 35.8867 27.1133 35.77C27.9767 35.3967 29.0034 35.6066 29.6567 36.2599C29.8667 36.4932 30.03 36.7266 30.1466 37.0299C30.2633 37.3099 30.3334 37.6133 30.3334 37.9166C30.3334 38.22 30.2633 38.5233 30.1466 38.8033C30.03 39.0833 29.8667 39.34 29.6567 39.5733C29.2134 40.0167 28.63 40.25 28 40.25Z" fill="#F58220"/>
</svg>
