<svg width="15" height="15" viewBox="0 0 15 15" fill="none" xmlns="http://www.w3.org/2000/svg">
<path d="M13.7179 14.5665H13.5757L11.4374 13.4942C11.0916 13.3213 10.9275 12.982 10.9253 12.6056V12.2642L7.43675 8.7778L7.10627 9.09076C6.77142 9.34901 6.34903 9.2374 6.08422 8.94194C5.79314 8.62022 5.55239 8.29413 5.40576 7.88268C5.31603 7.63099 5.11468 7.4384 4.86519 7.3421C4.47124 7.1889 4.12764 6.9788 3.82124 6.67459L0.538395 3.39393C0.238562 3.0941 0.063477 2.7308 0.00219727 2.33248L0.0131401 1.91009C0.063477 1.52928 0.223242 1.17473 0.499001 0.896781L0.868868 0.524726C1.532 -0.142786 2.71164 -0.147163 3.36821 0.509406L6.69045 3.83383C6.99685 4.14023 7.19819 4.48821 7.35358 4.88216C7.4455 5.11414 7.62934 5.30893 7.86352 5.39428C8.28372 5.54529 8.61419 5.78384 8.94248 6.08149C9.24888 6.35944 9.36925 6.81685 9.06504 7.13419L8.77834 7.43621L12.2647 10.9226H12.6608C13.0504 10.9292 13.3437 11.1371 13.5144 11.4741L14.5189 13.4766C14.5868 13.6145 14.589 13.7655 14.4774 13.8772L13.8383 14.514L13.7201 14.5665H13.7179Z" fill="#F58220"/>
<path d="M3.2719 14.562L2.76197 14.5686C2.22358 14.5029 1.70051 14.3147 1.24967 13.9755C1.17307 13.9186 1.14681 13.7982 1.15994 13.7041C1.16869 13.6319 1.22997 13.54 1.31314 13.4896L3.32881 12.2816C3.27409 11.7257 2.95237 11.2376 2.44025 10.9728L0.516501 12.1262C0.404884 12.1918 0.284513 12.2006 0.175085 12.1349C0.085354 12.0824 0.0372056 11.9598 0.0284513 11.8395L0 11.695L0.00875425 11.277C0.159765 9.67279 1.49698 8.47127 3.12089 8.49315C3.59362 8.49972 4.02915 8.29837 4.35086 7.97008C4.42309 7.89786 4.54127 7.87817 4.631 7.90005C4.69885 7.91756 4.80827 7.99635 4.83673 8.0817C4.99868 8.55443 5.26787 8.944 5.60053 9.30949C5.81501 9.54585 6.047 9.72531 6.36653 9.79972C6.47377 9.8238 6.57663 9.93104 6.59414 10.0098C6.62478 10.1411 6.58101 10.244 6.49785 10.3381C6.24178 10.627 6.06451 10.9837 6.07108 11.3777C6.07983 11.857 5.98791 12.3056 5.75592 12.728C5.2241 13.6932 4.36837 14.4242 3.26971 14.562H3.2719Z" fill="#F58220"/>
<path d="M10.8487 5.97906L10.3038 6.51744C10.2272 6.59185 10.098 6.61374 9.99738 6.58529C9.9164 6.56121 9.8201 6.46711 9.79822 6.36862C9.72162 6.04034 9.53997 5.80397 9.29704 5.5873C8.93592 5.26121 8.55074 4.99639 8.08457 4.83663C7.99046 4.8038 7.91167 4.68999 7.90073 4.60683C7.88541 4.50615 7.92262 4.40548 7.99922 4.32231C8.27279 4.02905 8.5004 3.66137 8.49821 3.24554C8.49821 2.73779 8.57481 2.26725 8.82649 1.82079C9.44148 0.73088 10.5117 -0.116094 11.7964 0.0130317C12.4157 0.0743115 12.976 0.304111 13.4466 0.698052C13.5954 0.8228 13.5779 1.07011 13.4093 1.17078L11.5447 2.29133C11.6103 2.86692 11.9364 3.33965 12.4376 3.59571L14.0812 2.60867C14.1797 2.54958 14.2979 2.54301 14.4008 2.59773C14.473 2.63493 14.5583 2.73779 14.5649 2.84066C14.6721 4.61777 13.2452 6.09943 11.4637 6.06222C11.258 6.05784 11.0741 6.02283 10.8487 5.97468V5.97906Z" fill="#F58220"/>
</svg>
