<svg width="20" height="17" viewBox="0 0 20 17" fill="none" xmlns="http://www.w3.org/2000/svg">
<path d="M7.73123 12.7614L6.26182 13.5762C6.12865 13.6485 5.93228 13.644 5.81716 13.5604C5.72236 13.4905 5.60725 13.2738 5.63885 13.1271L5.98419 11.5425C4.9933 10.5042 4.50801 9.13867 4.5193 7.73697C4.54638 4.75301 6.92769 2.43716 9.87328 2.41233C12.943 2.38525 15.374 4.82975 15.3243 7.90626C15.2814 10.5584 13.3696 12.802 10.6994 13.1609C9.70174 13.2941 8.70407 13.1858 7.73349 12.7637L7.73123 12.7614ZM8.19395 7.81371C8.19395 7.25168 7.73801 6.79348 7.17372 6.79348C6.60943 6.79348 6.15348 7.24942 6.15348 7.81371C6.15348 8.378 6.60943 8.83395 7.17372 8.83395C7.73801 8.83395 8.19395 8.378 8.19395 7.81371ZM10.9387 7.81146C10.9387 7.24943 10.4827 6.79348 9.92068 6.79348C9.35865 6.79348 8.9027 7.24943 8.9027 7.81146C8.9027 8.37349 9.35865 8.82944 9.92068 8.82944C10.4827 8.82944 10.9387 8.37349 10.9387 7.81146ZM13.6856 7.81371C13.6856 7.25168 13.2297 6.79348 12.6654 6.79348C12.1011 6.79348 11.6451 7.24942 11.6451 7.81371C11.6451 8.378 12.1011 8.83395 12.6654 8.83395C13.2297 8.83395 13.6856 8.378 13.6856 7.81371Z" fill="#F58220"/>
<path d="M8.75825 14.4255L10.5324 14.4097C13.0942 14.1953 15.2679 12.4889 16.1527 10.0873L16.5477 7.47121C16.3649 3.92522 13.4351 1.18502 9.94325 1.17148C6.45143 1.15794 3.47649 3.90942 3.29592 7.46896L3.88504 11.3919C3.89632 12.0487 3.39072 12.1616 2.74969 12.2993C1.73622 12.516 0.925904 11.8185 0.4835 10.9247C-0.0491892 9.84349 -0.14399 8.59754 0.210384 7.44187C0.512843 6.45549 1.37508 5.59551 2.42014 5.61808C3.39975 2.27749 6.45594 0.00678657 9.90037 1.50889e-05C13.3583 -0.00675639 16.4439 2.2662 17.419 5.63388C18.0532 5.62034 18.6288 5.85057 19.0283 6.33135C20.035 7.54344 20.0531 9.51846 19.3556 10.9247C18.9358 11.7711 18.0758 12.5476 17.1684 12.3128L16.4348 12.1232C15.3311 13.7732 13.6789 14.9289 11.7535 15.4096C11.8483 15.8927 11.5436 16.3892 11.0605 16.3915L8.78082 16.4028C8.27521 16.3418 7.99081 15.8882 8.08336 15.3916C7.99984 14.9334 8.2707 14.4955 8.75825 14.4233V14.4255Z" fill="#F58220"/>
</svg>
