<?xml version="1.0" standalone="no"?>
<!DOCTYPE svg PUBLIC "-//W3C//DTD SVG 20010904//EN"
 "http://www.w3.org/TR/2001/REC-SVG-20010904/DTD/svg10.dtd">
<svg version="1.0" xmlns="http://www.w3.org/2000/svg"
 width="512.000000pt" height="512.000000pt" viewBox="0 0 512.000000 512.000000"
 preserveAspectRatio="xMidYMid meet">

<g transform="translate(0.000000,512.000000) scale(0.100000,-0.100000)"
fill="#000000" stroke="none">
<path d="M2385 4794 c-530 -56 -951 -240 -1336 -586 l-87 -78 -4 124 c-3 107
-6 128 -24 152 -39 53 -71 69 -134 69 -63 0 -95 -16 -134 -69 -20 -27 -21 -39
-21 -406 0 -367 1 -379 21 -406 11 -15 33 -37 48 -48 27 -20 39 -21 406 -21
367 0 379 1 406 21 53 39 69 71 69 134 0 63 -16 95 -69 134 -25 19 -46 22
-209 26 l-182 5 80 79 c509 501 1258 677 1942 455 487 -158 904 -522 1129
-984 352 -727 215 -1590 -345 -2168 -309 -319 -681 -509 -1121 -573 -171 -24
-471 -15 -637 20 -313 67 -598 200 -835 393 -96 78 -272 265 -342 362 -173
241 -283 503 -338 801 -32 173 -31 497 2 665 30 153 31 205 4 242 -72 97 -195
98 -266 3 -21 -29 -38 -96 -64 -255 -26 -154 -26 -496 -1 -650 80 -485 279
-889 607 -1229 355 -368 772 -579 1315 -667 123 -20 484 -17 620 5 483 78 889
278 1228 605 353 341 574 763 659 1261 26 151 31 512 10 645 -89 545 -300 960
-668 1315 -335 323 -733 523 -1199 601 -116 20 -432 33 -530 23z"/>
<path d="M2495 3666 c-72 -33 -95 -83 -95 -210 l0 -94 -122 -4 c-103 -4 -131
-8 -173 -29 -63 -30 -123 -90 -155 -154 -25 -49 -25 -54 -25 -295 0 -234 1
-247 23 -290 35 -72 75 -114 144 -151 l63 -34 363 -3 362 -3 0 -159 0 -159
-429 -3 c-416 -3 -430 -4 -457 -24 -53 -39 -69 -71 -69 -134 0 -63 16 -95 69
-134 25 -19 44 -21 216 -24 l188 -3 4 -109 c3 -117 12 -140 72 -184 39 -29
133 -29 172 0 60 44 69 67 72 184 l4 108 121 4 c116 4 125 6 185 38 70 37 100
68 140 144 l27 51 0 245 0 245 -34 63 c-37 69 -79 109 -151 144 -44 22 -54 23
-407 26 l-363 3 0 159 0 159 429 3 c416 3 430 4 457 24 53 39 69 71 69 134 0
63 -16 95 -69 134 -25 19 -44 21 -216 24 l-188 3 -4 109 c-3 117 -12 140 -70
183 -34 25 -113 32 -153 13z"/>
</g>
</svg>
