<svg xmlns="http://www.w3.org/2000/svg" width="512" height="512" viewBox="0 0 512 512" version="1.1">
<path d="M 110.334 49.469 C 72.118 56.466, 41.996 83.600, 30.371 121.500 C 27.806 129.863, 27.607 131.773, 27.555 148.500 C 27.507 164.328, 27.780 167.526, 29.820 175 C 37.500 203.132, 56.722 226.726, 82.727 239.941 C 90.266 243.772, 101.373 247.633, 107.491 248.551 L 112 249.227 112.015 330.864 C 112.027 399.268, 112.269 413.514, 113.504 418.754 C 117.427 435.394, 129.498 450.353, 145 457.786 C 149.675 460.028, 156.170 462.343, 159.434 462.931 C 163.365 463.639, 196.105 463.994, 256.434 463.983 C 330.697 463.968, 348.721 463.707, 354.115 462.563 C 370.816 459.023, 386.229 446.760, 393.786 431 C 396.028 426.325, 398.343 419.830, 398.931 416.566 C 399.632 412.677, 400 382.829, 400 329.930 L 400 249.227 404.663 248.528 C 411.049 247.570, 425.336 242.458, 432 238.747 C 456.627 225.030, 474.837 201.896, 482.180 175 C 484.225 167.509, 484.491 164.364, 484.426 148.500 C 484.357 131.867, 484.145 129.820, 481.623 121.551 C 470.948 86.549, 444.285 60.596, 409 50.863 L 400.500 48.519 259 48.338 C 145.926 48.193, 116.060 48.421, 110.334 49.469 M 116.500 81.066 C 95.162 84.722, 76.085 98.878, 66.597 118.096 C 60.506 130.434, 58.648 139.341, 59.319 153 C 60.737 181.877, 78.629 205.411, 106.440 214.979 L 111.930 216.868 112.215 180.184 L 112.500 143.500 114.901 140.133 C 116.222 138.282, 119.147 135.929, 121.401 134.905 C 125.331 133.121, 130.871 133.044, 256 133.044 C 381.129 133.044, 386.669 133.121, 390.599 134.905 C 392.853 135.929, 395.778 138.282, 397.099 140.133 L 399.500 143.500 399.785 180.184 L 400.070 216.868 405.307 215.066 C 433.408 205.398, 451.256 182.015, 452.681 153 C 453.353 139.315, 451.497 130.438, 445.366 118.022 C 437.089 101.257, 422.942 89.372, 403.500 82.849 L 396.500 80.500 259 80.355 C 183.375 80.275, 119.250 80.595, 116.500 81.066 M 144.006 286.750 C 144.009 366.530, 144.363 409.768, 145.033 412.177 C 146.793 418.515, 152.023 425.064, 158 428.416 L 163.500 431.500 256 431.500 L 348.500 431.500 354 428.416 C 359.977 425.064, 365.207 418.515, 366.967 412.177 C 367.637 409.768, 367.991 366.530, 367.994 286.750 L 368 165 256 165 L 144 165 144.006 286.750 M 248.207 220.612 C 246.395 221.536, 243.808 224.178, 242.457 226.484 L 240 230.676 240 277.015 L 240 323.355 231.750 315.320 C 222.500 306.313, 218.762 304, 213.451 304 C 202.826 304, 194.981 314.242, 197.940 324.250 C 198.955 327.684, 202.299 331.631, 215.348 344.799 C 224.232 353.764, 233.525 362.387, 236 363.961 C 248.289 371.778, 263.711 371.778, 276 363.961 C 278.475 362.387, 287.768 353.764, 296.652 344.799 C 309.701 331.631, 313.045 327.684, 314.060 324.250 C 317.019 314.242, 309.174 304, 298.549 304 C 293.238 304, 289.500 306.313, 280.250 315.320 L 272 323.355 272 277.064 C 272 232.106, 271.940 230.668, 269.932 227.136 C 268.795 225.136, 266.678 222.622, 265.228 221.549 C 261.615 218.876, 252.586 218.379, 248.207 220.612" stroke="none" fill="#F97316" fill-rule="evenodd"/>
</svg>