<?xml version="1.0" encoding="UTF-8"?>
<!-- Generator: visioncortex VTracer 0.6.12 -->
<svg version="1.1" xmlns="http://www.w3.org/2000/svg" width="512" height="512">
<path d="M0 0 C0.6716015624999727 0.37124999999999986 1.3432031250000023 0.7425000000000002 2.03515625 1.125 C2.5610937499999977 1.4137500000000003 2.5610937499999977 1.4137500000000003 5.22265625 2.875 C17.046242966263492 12.3338693730108 20.472437540135047 26.036601410220374 25.34765625 39.875 C25.80633880880555 41.16937782612308 26.265321737214038 42.46364925207164 26.724609375 43.7578125 C27.831064817807942 46.87918153865812 28.93452350997984 50.00157410488602 30.03515625 53.125 C31.24070159912111 53.13308685302734 32.44624694824216 53.14117370605469 33.688323974609375 53.149505615234375 C45.07559742170042 53.22714868974247 56.46275405740005 53.31493334326888 67.84987449645996 53.412527084350586 C73.70344061930848 53.46237259629569 79.55698971780066 53.50870343976544 85.41064453125 53.546875 C91.0647029874329 53.58387642626262 96.71861481631402 53.6302761572127 102.3725471496582 53.68306350708008 C104.52455689134587 53.701528719891584 106.67659797054404 53.71666540135417 108.82865524291992 53.72834396362305 C111.85385757044526 53.745341738711964 114.87872981419139 53.77440839707944 117.90380859375 53.80615234375 C118.78422821044921 53.808312530517576 119.66464782714843 53.81047271728516 120.57174682617188 53.81269836425781 C131.33125209801784 53.95597489582575 142.07413455199378 55.73952522455989 150.30078125 63.171875 C156.18242541419346 69.48919650968926 161.06641283010356 76.71908558528263 161.240478515625 85.596435546875 C161.26042373657225 86.49714279174805 161.28036895751956 87.3978500366211 161.30091857910156 88.32585144042969 C161.30927482604977 88.81026954650879 161.30927482604977 88.81026954650879 161.3515625 91.26171875 C161.36195304870603 91.75900733947753 161.36195304870603 91.75900733947753 161.41453552246094 94.27558898925781 C161.47995037384823 97.45448867044786 161.53887864660487 100.63347133637312 161.59765625 103.8125 C161.64084912844783 105.96680547673982 161.6844636680367 108.12110254376584 161.728515625 110.275390625 C161.83562351024557 115.55850588063828 161.9374049792646 120.84170379074318 162.03515625 126.125 C163.11764648437497 126.31255859375 164.20013671875 126.5001171875 165.3154296875 126.693359375 C166.75852596505393 126.95147415635111 168.20155638787435 127.20995731479528 169.64453125 127.46875 C169.99990966796872 127.5298193359375 169.99990966796872 127.5298193359375 171.79833984375 127.8388671875 C185.8150964634401 130.38151649394206 197.28278225085745 139.0422168810015 205.47265625 150.5625 C210.7320128932899 159.18286562243372 214.16657119546784 168.00697075612732 214.148681640625 178.0966796875 C214.14882766723633 178.7897673034668 214.14897369384767 179.4828549194336 214.1491241455078 180.1969451904297 C214.14842931896663 182.48028732831455 214.14065709598066 184.76354716919855 214.1328125 187.046875 C214.13094679265362 188.63299515211818 214.12952360970593 190.2191158814965 214.12852478027344 191.80523681640625 C214.12471163439977 195.97436115028898 214.11489161893462 200.14345049794855 214.10382080078125 204.31256103515625 C214.09358082243233 208.56904629281232 214.08902161746641 212.82553721801023 214.083984375 217.08203125 C214.07326826546404 225.42970353253253 214.05620628769304 233.77734741063148 214.03515625 242.125 C215.13601562500003 242.2705029296875 216.236875 242.416005859375 217.37109375 242.56591796875 C225.72862130511783 243.84115371643256 232.95519166736756 248.39049224541606 238.03515625 255.125 C242.41426515402867 262.5979209089528 244.18571145302326 268.5507624457964 244.212158203125 277.211181640625 C244.21544380187993 277.676417388916 244.21544380187993 277.676417388916 244.23207092285156 280.0307922363281 C244.25180788508135 283.11558106533954 244.26346976080185 286.2003211080263 244.2734375 289.28515625 C244.27751302719116 290.34008207321165 244.28158855438232 291.39500789642335 244.28578758239746 292.48190116882324 C244.30665375718127 298.06955647139523 244.32095100456797 303.6571872025251 244.330322265625 309.244873046875 C244.3413651432951 315.0025686775589 244.37573920968578 320.75987554792084 244.41549396514893 326.5174341201782 C244.44170991904662 330.9554259447628 244.45001872236037 335.39332603562934 244.45360374450684 339.83138847351074 C244.45845975828308 341.95274914242253 244.47004546717812 344.07410598510097 244.4886417388916 346.19539070129395 C244.51313030614278 349.17492026149927 244.51204989071834 352.1534561300482 244.505126953125 355.133056640625 C244.5179370117188 355.9994123840332 244.5307470703125 356.8657681274414 244.5439453125 357.7583770751953 C244.45794635454286 367.9832103970347 240.24598866322225 376.92792871733735 233.03515625 384.125 C228.40565156172954 387.70443491626213 224.07779779927796 389.9752736243189 218.35888671875 391.199462890625 C217.54902313232424 391.374337310791 216.73915954589842 391.54921173095704 215.90475463867188 391.72938537597656 C215.28778717041018 391.8599382019043 214.67081970214844 391.99049102783204 214.03515625 392.125 C214.04403869628908 392.9981535339355 214.0529211425781 393.8713070678711 214.06207275390625 394.7709197998047 C214.14265416259485 403.0520048081478 214.20334005990912 411.3329556756676 214.24240493774414 419.6143445968628 C214.2631646934484 423.8705911383369 214.29126607307012 428.12651020975954 214.3369140625 432.382568359375 C214.38079133393848 436.49990814914224 214.4043803449777 440.616935564194 214.41466522216797 444.7344913482666 C214.42198230629288 446.29517843621846 214.43626781648533 447.8558509565179 214.45807647705078 449.41640281677246 C214.69980514571313 467.4523503548438 209.97307878440262 481.50865719528565 197.515625 494.80078125 C190.43535360190964 501.43505130017917 182.25473564815275 505.3456778475585 173.03515625 508.125 C172.46111570775508 508.3022170418501 171.88707516551017 508.4794340837002 171.29563945531845 508.66202133893967 C168.31746983951075 509.2719922415737 165.49828668011452 509.2546204141786 162.45726871490479 509.25922107696533 C162.12598716124893 509.26039719209075 162.12598716124893 509.26039719209075 160.44950172305107 509.2663490474224 C158.2195783632847 509.2730292631262 155.9897134056069 509.27258111911954 153.75978088378906 509.2721710205078 C152.14867102275326 509.275470270553 150.53756198772686 509.2791959680143 148.92645400762558 509.28331249952316 C144.49117120081343 509.2933339562609 140.055901927592 509.2970495403141 135.62060940265656 509.2997018098831 C130.83987612296733 509.30360451104787 126.05915356295935 509.31318297865835 121.27842712402344 509.32191467285156 C109.72783704868147 509.3416816090187 98.17724609324472 509.35174627465096 86.62664332985878 509.3606424629688 C81.18659543476554 509.3650255999295 75.74654851379029 509.37039240096465 70.3065013885498 509.37563133239746 C52.22061267434674 509.3926449913623 34.13472456736008 509.40713846296467 16.048829078674316 509.41438007354736 C11.354899716367015 509.416289959418 6.660970359081034 509.4182102912358 1.967041015625 509.420166015625 C0.8003920667618445 509.4206497558206 -0.366256882101311 509.4211334960163 -1.5682588294148445 509.4216318950057 C-20.460909355492504 509.4299295270241 -39.35349650978165 509.45526133966143 -58.24611937254667 509.4877466931939 C-77.64523293482452 509.52083076801455 -97.04431431162848 509.53883011766743 -116.44345623254776 509.54202431440353 C-127.33428154936166 509.54418832109604 -138.22501449493862 509.5529208730205 -149.11581230163574 509.5784854888916 C-158.39255121477436 509.6002109983541 -167.66917532365326 509.608233829293 -176.9459367915988 509.59851870685816 C-181.67666234678194 509.59397919397054 -186.40715112478466 509.5958399225517 -191.13784408569336 509.6152801513672 C-195.47527401938777 509.6329498027395 -199.8122951099886 509.63188341463547 -204.14972961694002 509.6163828596473 C-205.71242012232236 509.6140125246569 -207.2751392230446 509.6183003223641 -208.83778613060713 509.6302115097642 C-226.7191704997794 509.75798353271966 -240.5299091290658 504.87623003779714 -253.640625 492.609375 C-261.6810971014449 484.0148535604724 -268.07487413573136 472.0456453257743 -268.09906482696533 460.07482147216797 C-268.10352267086506 459.05013936519623 -268.1079805147648 458.0254572582245 -268.1125734448433 456.9697241783142 C-268.1123890823126 455.8456221818924 -268.11220471978186 454.7215201854706 -268.1120147705078 453.5633544921875 C-268.1156914585829 452.3678391885758 -268.11936814665796 451.172323884964 -268.12315624952316 449.94058084487915 C-268.1322754328941 446.6207090683416 -268.1368911114818 443.3008866960099 -268.1395455598831 439.9810070991516 C-268.14345227182895 436.40071121188214 -268.15303046782356 432.8204295905519 -268.16175842285156 429.2401428222656 C-268.1815141808585 420.5920692148295 -268.1915886712513 411.9439944521961 -268.2004862129688 403.2959039211273 C-268.20487123977983 399.22101626940145 -268.21023755641073 395.1461299140436 -268.21547508239746 391.0712432861328 C-268.23248773497085 377.52073181011303 -268.2469806208683 363.9702211379829 -268.25422382354736 350.4197006225586 C-268.2561336516233 346.90382384188246 -268.25805399192035 343.38794706794977 -268.260009765625 339.8720703125 C-268.26049350582065 338.99823930084705 -268.26097724601624 338.1244082891941 -268.2614756450057 337.2240975499153 C-268.2697711189427 323.077191672978 -268.2950997012149 308.93037048445717 -268.3275904431939 294.7835015654564 C-268.360693203418 280.25135581842034 -268.3786755563459 265.7192530559018 -268.38186806440353 251.18706941604614 C-268.38403036355885 243.03102651169846 -268.39273772024876 234.87510704677646 -268.4183292388916 226.71910095214844 C-268.4400803752021 219.77104126310647 -268.4480651025683 212.82313499549434 -268.43836245685816 205.8750451207161 C-268.4338302394112 202.3332446815334 -268.43564030584844 198.7917604886512 -268.4551239013672 195.25000381469727 C-268.4761152656714 191.40071120354676 -268.4657299251963 187.55184957668118 -268.4525909423828 183.7025146484375 C-268.46356018841266 182.5962584257126 -268.4745294344425 181.49000220298768 -268.4858310818672 180.3502230644226 C-268.35293107282257 164.15694066734687 -261.2900576342307 151.29768575110975 -249.96484375 140.125 C-240.5391504508604 131.72623048442426 -230.2582605998132 128.30380442727238 -217.96484375 126.125 C-218.2071875 125.46604736328126 -218.44953125 124.8070947265625 -218.69921875 124.128173828125 C-229.2618344622843 95.04797244524232 -229.2618344622843 95.04797244524232 -223.28515625 80.69140625 C-216.76506069261737 68.01772938254321 -206.49617973080964 62.883594646588875 -193.46484375 58.359375 C-191.61337620635254 57.69898872067426 -189.76190973368148 57.03859942991536 -187.9104871749878 56.37808704376221 C-185.94938934785887 55.68107031702105 -183.9862515018192 54.990124993475966 -182.02236938476563 54.300994873046875 C-177.89737644169065 52.853281865838575 -173.77860633443044 51.38842514880717 -169.660888671875 49.920166015625 C-168.2620789196513 49.42155922313197 -166.86325993296856 48.92297833657807 -165.4644317626953 48.42442321777344 C-164.770899143219 48.177229747772216 -164.07736652374268 47.930036277770995 -163.36281776428223 47.67535209655762 C-161.25373040019707 46.92432765600813 -159.14406713053705 46.174943185036945 -157.0342254638672 45.42604064941406 C-144.74788045228053 41.063198496801306 -132.50704348312752 36.58160480407744 -120.27734375 32.0625 C-101.80060975747722 25.247913625447573 -83.29555012390693 18.51334581786444 -64.77734375 11.8125 C-63.51860528773426 11.356924146213164 -62.25986708436861 10.901347577094707 -61.001129150390625 10.445770263671875 C-51.163479723789465 6.885950013352005 -51.163479723789465 6.885950013352005 -46.93788146972656 5.365936279296875 C-42.44094879260561 3.748318563390903 -37.94690003367674 2.1287686820898486 -33.47900390625 0.432373046875 C-22.26384560208274 -3.772752422255623 -11.216538560073275 -5.392926720035222 0 0 Z M-28.9921875 31.578125 C-29.987283325195307 31.945074768066405 -30.982379150390614 32.31202453613281 -32.00762939453125 32.690093994140625 C-35.309184612422854 33.90963511072161 -38.60561812326097 35.1424695109185 -41.90234375 36.375 C-44.24024022370227 37.240829778420085 -46.57854561963117 38.10555610767389 -48.917236328125 38.96923828125 C-52.57176381996351 40.319158627942116 -56.22595459510771 41.66993705243061 -59.87882995605469 43.024322509765625 C-71.49034605050181 47.32936603510822 -83.1293097043536 51.556964894251124 -94.77264404296875 55.7750244140625 C-114.99749189571378 63.10554102693507 -135.19959459419044 70.49759117842015 -155.38739395141602 77.9294204711914 C-157.25750136848535 78.61769718465816 -159.12781880212555 79.30540317730689 -160.99813842773438 79.99310302734375 C-164.48371249015474 81.27508769418745 -167.96854326315577 82.55907088062207 -171.453125 83.84375 C-172.4735891723633 84.21891754150391 -173.49405334472658 84.59408508300781 -174.54544067382813 84.98062133789063 C-179.22919636792722 86.71016671200843 -183.90417905272602 88.46234154523185 -188.559326171875 90.267578125 C-189.3603727722168 90.57699340820312 -190.1614193725586 90.88640869140625 -190.9867401123047 91.2052001953125 C-192.96484375 92.125 -192.96484375 92.125 -194.96484375 94.125 C-194.73987591031707 100.96777179035591 -191.89736225350714 107.1814767045124 -189.46484375 113.5 C-189.0484765625 114.6047265625 -188.632109375 115.709453125 -188.203125 116.84765625 C-185.11369977678572 124.97614397321428 -185.11369977678572 124.97614397321428 -183.96484375 126.125 C-182.15523503703403 126.22141497242205 -180.34182246506333 126.24687397561667 -178.52964782714844 126.24525451660156 C-177.93996971130372 126.24594184875488 -177.93996971130372 126.24594184875488 -174.95584106445313 126.24942016601563 C-173.65033294677733 126.2458248901367 -172.34482482910155 126.24222961425781 -170.999755859375 126.238525390625 C-169.62031557266994 126.2382435204853 -168.24087513564314 126.2384012489128 -166.86143493652344 126.23896789550781 C-163.10540256683055 126.23925587822325 -159.34940185874734 126.23335904822801 -155.5933768749237 126.22639393806458 C-151.67224330193434 126.2201605081624 -147.75110907652123 126.21955661014425 -143.82997131347656 126.21836853027344 C-136.39972764315633 126.21525518182295 -128.9694986122184 126.20704174794633 -121.53926140069962 126.19701904058456 C-113.08232736963095 126.18585801196949 -104.62539265485827 126.18034747991524 -96.16845309734344 126.17532360553741 C-78.76724150066468 126.16485913603691 -61.3660441711105 126.14725962841311 -43.96484375 126.125 C-43.9601708984375 125.46697387695312 -43.9601708984375 125.46697387695312 -43.9365234375 122.136962890625 C-43.896443856202666 117.22207650166176 -43.83063539005829 112.30780427298009 -43.75732421875 107.393310546875 C-43.72921849375271 105.27229747251145 -43.707952589767984 103.15118168278441 -43.69384765625 101.030029296875 C-43.67227385809474 97.96870733864269 -43.62554955061003 94.90860692425761 -43.57421875 91.84765625 C-43.572990112304694 90.90978775024413 -43.57176147460939 89.97191925048828 -43.57049560546875 89.00563049316406 C-43.3589268706028 79.34645882232383 -39.6417326635617 71.12615283430864 -32.96484375 64.125 C-25.900257536588754 58.40484132450903 -19.082141108854785 56.063042904825856 -10.08984375 55 C-9.401484374999995 54.9136328125 -8.713124999999991 54.827265624999995 -8.00390625 54.73828125 C-6.324890998666831 54.528404343583354 -4.64495327476601 54.32592912891604 -2.96484375 54.125 C-4.249525260229916 50.35175024114899 -5.543778241356904 46.58185314883924 -6.83984375 42.8125 C-7.022246093750027 42.276572265625 -7.022246093750027 42.276572265625 -7.9453125 39.564453125 C-8.2998046875 38.53642578125 -8.654296875 37.5083984375 -9.01953125 36.44921875 C-9.344213867187477 35.50135498046875 -9.668896484375011 34.5534912109375 -10.00341796875 33.576904296875 C-10.96484375 31.125000000000043 -10.96484375 31.125000000000043 -12.96484375 28.125 C-18.682015341091756 27.20202848934979 -23.736646401718247 29.592285557616847 -28.9921875 31.578125 Z M-12.96484375 87.125 C-17.077155886877648 99.46193641063292 -13.96484375 113.12072719791256 -13.96484375 126.125 C33.88515625000002 126.125 81.73515624999999 126.125 131.03515625 126.125 C131.03515625 90.125 131.03515625 90.125 129.03515625 86.125 C126.43069960996428 84.82277167998214 124.53144608629157 84.99615465441235 121.61378479003906 84.99128723144531 C121.03820831298827 84.98915473937988 121.03820831298827 84.98915473937988 118.12544250488281 84.97836303710938 C116.85629501342771 84.97881622314453 115.58714752197267 84.9792694091797 114.279541015625 84.979736328125 C112.93437608163549 84.97674537888923 111.58921200834641 84.97334300000131 110.24404907226563 84.96955871582031 C106.58498728531458 84.9607082007204 102.92594886771144 84.95838016877502 99.26687741279602 84.95774292945862 C96.21507421864834 84.95679462945284 93.16327649958987 84.95311726340367 90.11147540807724 84.94957083463669 C82.91309993598912 84.94142236072035 75.71473697515262 84.93898696612389 68.516357421875 84.939697265625 C61.08414594227071 84.94029824759605 53.65200700078111 84.9297432798669 46.219813883304596 84.913953602314 C39.84440441052061 84.90089036600347 33.4690186818637 84.8955128518657 27.093595921993256 84.89615267515182 C23.283390477498415 84.8964080121493 19.473249475506634 84.89353724032813 15.663057327270508 84.88297462463379 C12.080294331831738 84.87331399146335 8.497657661425137 84.87320037083411 4.914890289306641 84.88049125671387 C2.9700535197899853 84.88204034213952 1.025216820837386 84.87367625484606 -0.9196014404296875 84.86505126953125 C-1.4965878295898278 84.86714851379395 -1.4965878295898278 84.86714851379395 -4.4164886474609375 84.87776184082031 C-5.421410741806028 84.87721707344055 -6.4263328361511185 84.8766723060608 -7.46170711517334 84.87611103057861 C-9.96484375 85.125 -9.96484375 85.125 -12.96484375 87.125 Z M-232.96484375 167.125 C-238.4079029119489 175.15548438675938 -238.11261524682882 183.8652834344977 -238.0985565185547 193.23239135742188 C-238.10082207500935 194.34274848103524 -238.103087631464 195.45310560464858 -238.10542184114456 196.597109913826 C-238.11174592650275 200.3132857111231 -238.11093349678262 204.0294248893657 -238.110107421875 207.74560546875 C-238.11309987831862 210.41180558065497 -238.1164743764037 213.0780028380474 -238.1202850341797 215.74420166015625 C-238.12857845637768 222.23203676349516 -238.1313392719319 228.71986277919797 -238.1318974122405 235.20770274102688 C-238.132373138335 240.48253642581415 -238.1344307105929 245.7573671208996 -238.13759803771973 251.03219985961914 C-238.1464005904569 265.99706109656506 -238.15101797047663 280.96191517227794 -238.15026756376028 295.9267790168524 C-238.15022760756312 296.7329194803536 -238.150187651366 297.5390599438548 -238.150146484375 298.36962890625 C-238.15010560370982 299.17675681963567 -238.15006472304464 299.9838847330212 -238.15002260357141 300.81547106802464 C-238.14961611678197 313.8972078708441 -238.1591873594307 326.978915894599 -238.1732848510146 340.0606443732977 C-238.1876557281892 353.50240899668626 -238.19455466140784 366.94415958844695 -238.19369107484818 380.38593208789825 C-238.19335937950305 387.92866553198365 -238.1960945145993 395.4713687930002 -238.2068691253662 403.0140953063965 C-238.21598342684266 409.43549800206085 -238.21814169566554 415.8568568261457 -238.2113597020507 422.27826319634914 C-238.2080993489636 425.55229298557754 -238.20911168174194 428.82622135889363 -238.21671295166016 432.10024642944336 C-238.22443050894597 435.6547864294877 -238.2197894093238 439.20910609943854 -238.2120819091797 442.7636413574219 C-238.21722547233105 443.7909888827801 -238.22236903548242 444.8183364081383 -238.2276684641838 445.87681567668915 C-238.17933200149812 455.9784828724455 -236.83751260227245 464.36505004863767 -229.96484375 472.125 C-224.4235267407875 476.52453335325 -219.71478327101278 478.24777218980194 -212.6265630722046 478.2620143890381 C-211.97776200920345 478.2646662157774 -211.32896094620227 478.2673180425167 -210.66049924492836 478.27005022764206 C-208.47140053096126 478.27775185589854 -206.28235782954926 478.27830272939707 -204.09324645996094 478.2789001464844 C-202.51385977920634 478.2829142115035 -200.9344741283899 478.287352340589 -199.35508972406387 478.29217970371246 C-195.00297030517282 478.3041574769467 -190.65086197787812 478.3097964501573 -186.29872930049896 478.3143608570099 C-181.60937799407938 478.3203124478369 -176.92003998064382 478.33192345615197 -172.23069763183594 478.3426513671875 C-160.89921403013716 478.3671863899306 -149.56772602222776 478.38180457550027 -138.2362240254879 478.39471143484116 C-135.03619449077243 478.39842270493705 -131.83616539310856 478.4023959941606 -128.63613629341125 478.40646409988403 C-108.76890287778863 478.43170104427037 -88.90166878491027 478.4537565051542 -69.03442287445068 478.4661922454834 C-64.431395822795 478.46912199895445 -59.828368794172576 478.4720836524225 -55.225341796875 478.47509765625 C-54.6533035651222 478.475470681563 -54.6533035651222 478.475470681563 -51.75844342261553 478.47735841572285 C-33.225811516250445 478.49001154084675 -14.693275562817973 478.52323328905663 3.8393114879727364 478.56489948928356 C22.86208414943883 478.6073174611804 41.88480768928849 478.630887168806 60.907627522945404 478.6361128091812 C71.58992286158406 478.639527184574 82.27206828478285 478.65128548204126 92.95431709289551 478.6842155456543 C102.05221899362795 478.71221535621925 111.1499402536574 478.72321568049273 120.24788189679384 478.7120200842619 C124.88917169555828 478.70683319031195 129.53008320066056 478.7097222203368 134.17131805419922 478.7344856262207 C138.42358949997856 478.75698409044475 142.67521104244287 478.75623381584285 146.9274939224124 478.7372817546129 C148.462574211699 478.73448255942094 149.9976986266185 478.74007590670726 151.53270799666643 478.755094692111 C160.21901368565057 478.8348593942394 167.80305263286039 478.4816595488407 175.03515625 473.125 C182.1067163367881 465.6455967334651 184.16944946697714 457.9286763188007 184.148681640625 447.75244140625 C184.14864387512205 447.13202468872066 184.14864387512205 447.13202468872066 184.14845275878906 443.9923400878906 C184.14334737823066 442.65374714217387 184.13813140407063 441.31515461430996 184.1328125 439.9765625 C184.13094531386383 438.59508312341546 184.12952283020724 437.2136030806279 184.12852478027344 435.8321228027344 C184.1247232701894 432.2121189652316 184.1149134093364 428.59215582732276 184.10382080078125 424.97216796875 C184.0935555953348 421.2718154945421 184.0890162498875 417.5714563865743 184.083984375 413.87109375 C184.07328882597284 406.62237736411436 184.05624110081789 399.37369440476215 184.03515625 392.125 C183.22908432006835 392.12135437011716 182.4230123901367 392.1177087402344 181.59251403808594 392.11395263671875 C173.92981450094055 392.0758061143144 166.26758695577604 392.01865762227044 158.60519313812256 391.9410972595215 C154.667525949947 391.9018844914366 150.73007362407355 391.86956970289106 146.792236328125 391.85400390625 C142.97937457483533 391.8386618564322 139.16710463618625 391.80391549354414 135.3545093536377 391.7566909790039 C133.91280375081192 391.74205527557376 132.47101356923298 391.73396945066685 131.02923393249512 391.73311614990234 C110.87474584283638 391.7092313211192 93.17107806510472 385.7790833157238 78.03515625 372.125 C77.33906250000001 371.52171875 76.64296875000002 370.9184375 75.92578125 370.296875 C64.05123478312453 359.34283601117687 56.07208189831425 342.4219119007889 54.81396484375 326.28857421875 C53.94333122337309 303.3816479430458 58.20330535119422 283.1511619920086 73.70703125 265.51171875 C91.75922695804707 247.00518925735446 113.7269214849635 242.14568294613758 138.8203125 241.80859375 C140.11714462280275 241.7878126525879 141.41397674560545 241.76703155517578 142.75010681152344 241.74562072753906 C146.16778715739548 241.69090180652705 149.5855224255721 241.64127523662233 153.0032958984375 241.5927734375 C156.50289695855605 241.54218760880562 160.00242004399541 241.4866967994991 163.501953125 241.431640625 C170.3462863637218 241.32467463759042 177.1906903088008 241.22309779784513 184.03515625 241.125 C184.08170189981058 233.58782387426476 184.1171376125455 226.0506628458076 184.13878059387207 218.5133752822876 C184.14917338647632 215.01268970705738 184.16324914951338 211.512103193874 184.18603515625 208.011474609375 C184.2121242125474 203.97769269476862 184.22166622919343 199.94401321813433 184.23046875 195.91015625 C184.24079132080078 194.6660548400879 184.25111389160156 193.4219534301758 184.26174926757813 192.14015197753906 C184.26306748230348 181.83834783914557 183.62477278070628 172.45989873480045 176.5703125 164.46484375 C167.99798914845468 156.25558350510835 156.7850783552227 156.68966006556926 145.62548828125 156.74404907226563 C144.07305637867336 156.74058796358673 142.52062693785814 156.73582036477146 140.96820259094238 156.72986733913422 C136.72304291346944 156.71738990562923 132.47808659988368 156.72351281979445 128.23292636871338 156.73282599449158 C123.64662386504796 156.73962953493066 119.06035568571986 156.72912879241522 114.47406005859375 156.72088623046875 C105.49771422321976 156.70756062453412 96.52144372982275 156.7104214169212 87.54509496688843 156.71912415325642 C80.2485018567952 156.725904899844 72.95192983083501 156.72681572446987 65.65533447265625 156.72355270385742 C64.61604077458384 156.72309300474822 63.57674707651137 156.72263330563902 62.50595963001251 156.7221596762538 C60.39452027661741 156.72120048054944 58.283080929288076 156.7202278403799 56.17164158821106 156.71924190223217 C36.38212611748122 156.7106914419687 16.592652367556923 156.72051675100604 -3.1968562602996826 156.7366430014372 C-20.16966985498138 156.75004586401658 -37.14242189089339 156.74771767482812 -54.115234375 156.73388671875 C-73.83492356034293 156.71782484113353 -93.55457619809607 156.71151538384362 -113.27427101135254 156.7207235097885 C-115.37785465945109 156.721679136762 -117.48143831327286 156.72262224932265 -119.58502197265625 156.72355270385742 C-120.6199704349041 156.72401553042232 -121.65491889715196 156.72447835698725 -122.72122943401337 156.72495520859957 C-130.00733816490572 156.72754326938758 -137.2934236742782 156.7231780580295 -144.57952880859375 156.71611404418945 C-153.46131655749656 156.707692106163 -162.34302478506285 156.70999380508613 -171.2248034477234 156.72595627605915 C-175.75465234704785 156.73382962010382 -180.28436875463444 156.7369465515304 -184.81421661376953 156.72700881958008 C-188.9643152577722 156.71804202705383 -193.11415911276183 156.72302733030276 -197.26423478126526 156.73894147574902 C-198.76208249238675 156.74228089031786 -200.2599519142272 156.74061417245642 -201.75778555870056 156.7333141118288 C-213.99956988735818 156.67824719473498 -224.54564120287534 157.38361321914678 -232.96484375 167.125 Z M95.0078125 287.453125 C86.24409539021508 299.3231893625602 83.61793978269674 311.5915229968415 85.03515625 326.125 C87.67719455776069 337.52249261016055 94.36772831014207 347.4738095773777 104.03515625 354.125 C112.29181441213552 358.85811614389934 119.50970036274651 361.4259827649163 129.022216796875 361.41552734375 C129.4640328979492 361.41888595581054 129.4640328979492 361.41888595581054 131.69989013671875 361.4358825683594 C134.60727625631426 361.45481096610195 137.5144311921219 361.45878322406065 140.421875 361.4609375 C142.4463561449043 361.46736569716376 144.47083635701745 361.47409407530813 146.4953155517578 361.4811096191406 C150.73102983364015 361.4930670468487 154.96666261435223 361.49679168436114 159.202392578125 361.49560546875 C164.6367608823462 361.49540160603834 170.0706101826275 361.5227800129482 175.50485515594482 361.55714988708496 C179.6817923768288 361.5793469177487 183.85860285521784 361.5834453368703 188.0355930328369 361.5823860168457 C190.0399232259728 361.58474990870116 192.0442565025794 361.5936175095113 194.04852867126465 361.6090507507324 C196.84482117447317 361.6285785414134 199.63996960900988 361.62292662146524 202.436279296875 361.61083984375 C203.26698440551758 361.62207885742185 204.09768951416015 361.63331787109377 204.9535675048828 361.6448974609375 C210.43693371183736 361.5844621012424 210.43693371183736 361.5844621012424 213.04931640625 359.5780334472656 C214.41539612564418 356.17886139660243 214.44536038334218 352.99628484549237 214.407470703125 349.390625 C214.4092960357666 349.00340270996094 214.4092960357666 349.00340270996094 214.4185333251953 347.0438232421875 C214.4266303162974 344.4873248171892 214.4130360677513 341.9314619341785 214.3984375 339.375 C214.39791878908966 337.5966796918604 214.39843691395527 335.81835880418276 214.3999481201172 334.0400390625 C214.39985843468816 330.3143659637904 214.38943658024886 326.5889094197743 214.371337890625 322.86328125 C214.34865088174251 318.08822542530623 214.34810703354884 313.3134859992467 214.35485553741455 308.53839111328125 C214.3581974074998 304.86667062680687 214.35156130653291 301.19502223983875 214.3417263031006 297.5233154296875 C214.3378777824875 295.76265846071743 214.33672464740243 294.0019934672232 214.33831214904785 292.2413330078125 C214.33868310934048 289.7805249630762 214.32605410436292 287.32012215309163 214.309814453125 284.859375 C214.31229187011718 284.13198120117187 214.31476928710936 283.40458740234374 214.31732177734375 282.6551513671875 C214.2789675161962 279.01261420188183 214.16546250199872 276.1615292537064 212.03515625 273.125 C208.9353234327802 271.5750835913901 205.65809777733745 271.9777143956355 202.255859375 271.979736328125 C201.45233032226565 271.97637771606446 200.64880126953125 271.9730191040039 199.8209228515625 271.9695587158203 C197.15273507649204 271.96002765832696 194.48461001462 271.95810392850035 191.81640625 271.95703125 C189.95991998390616 271.95381801991186 188.10343397335322 271.95045389684736 186.2469482421875 271.9469451904297 C182.34626682672285 271.9409470397265 178.44560757901695 271.9391057786953 174.544921875 271.939697265625 C169.566410468119 271.9397984384304 164.58804312785526 271.9261959691932 159.60956573486328 271.9089250564575 C155.76948404340402 271.8977541902415 151.92943648013886 271.89577968565726 148.08934020996094 271.89630699157715 C146.25548306893103 271.8951326194432 144.4216248828401 271.890741552713 142.58778381347656 271.8829746246338 C124.66500491117034 271.8142282214853 107.96105130606105 273.4103614345507 95.0078125 287.453125 Z " fill="#F97316" transform="translate(267.96484375,2.875)"/>
<path d="M0 0 C3.521050315898435 2.9478560784265824 5.360203638426981 5.530508245359044 6.2265625 10.08203125 C6.391759366985468 15.81135895499574 6.190369655416532 19.46875837399415 2.375 23.9375 C-1.2161317782870356 27.573803247196338 -4.1378034602239495 28.407908269791335 -9.1875 28.5 C-15.17576339690197 28.413087613978178 -17.650091737222454 26.690753827740537 -22.125 22.8125 C-25.14661883786721 18.975523697946358 -25.01160940339389 14.884399450934154 -24.7890625 10.1640625 C-24.078814052853772 5.821067896958198 -22.706432072712914 3.0686893485242877 -19.3125 0.25 C-12.852284905713816 -3.7032659532198977 -6.6775049325129885 -3.5277384549125372 0 0 Z " fill="#F97316" transform="translate(406.3125,306.75)"/>
</svg>
